<svg xmlns="http://www.w3.org/2000/svg" width="137.626" height="148.43" viewBox="0 0 137.626 148.43">
  <g id="Group_3150" data-name="Group 3150" transform="translate(-174.606 -9.939)">
    <path id="Path_432" data-name="Path 432" d="M1236.789,647.4c6.763,0,12.249,5.9,12.249,13.186s-5.491,13.186-12.249,13.186-12.248-5.9-12.248-13.186S1230.023,647.4,1236.789,647.4Z" transform="translate(-968.298 -622.108)" fill="#e40066"/>
    <g id="Group_2087" data-name="Group 2087" transform="translate(175.123 11.481)">
      <path id="Path_311-2" data-name="Path 311-2" d="M1150.351,735.469c2.181-7.516,9.665-12.027,9.187-20.74-.222-4.012-2.126-7.2-3.413-10.805-3.026-8.477-5.579-21.818-.941-30.144,5.943-10.655,19.859-9.457,28.638-14.318,4.76-2.636,8.627-7.081,12.219-11.63,2.611-3.308,5.167-6.762,8.363-9.242a18.632,18.632,0,0,1,22.3-.514c6.828,4.864,11.222,13.463,20.112,11.593,3.686-.776,7.438-2.457,11.168-1.253a16.113,16.113,0,0,1,8.995,8.184c5.4,10.735-3.4,22.085.277,33.171,2.744,8.266,10.654,11.362,15.065,18.04,3.55,5.377,4.389,12.217,3.3,18.8-2.194,13.264-3.947,27.376-8.133,39.989-4.594,13.848-18.311,13.977-29.024,13.993-16.276.023-33.14,1.519-49.282-.8-12.6-1.812-27.265-6.1-37.725-15.025C1153.9,758.326,1147.019,746.956,1150.351,735.469Z" transform="translate(-1149.489 -634.622)" fill="#fff" stroke="#03cea4" stroke-width="1"/>
    </g>
    <rect id="Rectangle_1347" data-name="Rectangle 1347" width="92.824" height="29.666" rx="13.281" transform="translate(197.133 120.576)" fill="#03cea4"/>
    <g id="المكتشف_" data-name="المكتشف " transform="translate(202.751 123.502)" style="isolation: isolate">
      <text id="المكتشف" transform="translate(1 16)" fill="#fff" font-size="17" font-family="SegoeUI, Segoe UI" letter-spacing="-0.05em" style="isolation: isolate"><tspan x="0" y="0">المكتشف</tspan></text>
    </g>
    <g id="Group_2501" data-name="Group 2501" transform="translate(192.74 9.939)">
      <g id="Group_2500" data-name="Group 2500">
        <path id="Path_8517" data-name="Path 8517" d="M1172.129,641.372c4.4-6.669,28.195-11.879,41.193-4.773,19.843,10.845,23.705-5.828,39.18,6.66,25.311,20.427,10.784,34.638,6.605,44.874-4.532,11.1,2.725,11.756-6.711,18.689-6.144,4.514-32.282,6.058-42.711,5.427-12.266-.742-24.163-2.99-33.062-11.466-6.568-6.256-10.386-17.3-10.156-28.313C1166.583,666.972,1162.75,655.582,1172.129,641.372Z" transform="translate(-1165.788 -633.195)" fill="#86dbc6"/>
        <g id="Group_2499" data-name="Group 2499" transform="translate(37.46 37.22)">
          <path id="Path_8518" data-name="Path 8518" d="M1202.287,723.573c0,.873,5.031,1.581,11.239,1.581s11.238-.708,11.238-1.581-5.031-1.581-11.238-1.581S1202.287,722.7,1202.287,723.573Z" transform="translate(-1200.298 -663.236)" opacity="0.16"/>
          <path id="Path_8519" data-name="Path 8519" d="M1210.211,723.262c-.118.329-2.039-.149-2.013-.5.337-4.553,1.07-15.289,1.176-16.427l4.485.821S1210.782,721.661,1210.211,723.262Z" transform="translate(-1199.82 -664.502)" fill="#e0a075"/>
          <g id="Group_2492" data-name="Group 2492" transform="translate(2.972 54.693)">
            <path id="Path_8520" data-name="Path 8520" d="M1210.826,721.956a15.77,15.77,0,0,1-3-.409c-.043-.894.012-2.919-.005-3.315l3.613.432C1211.258,719.575,1210.951,721.4,1210.826,721.956Z" transform="translate(-1202.823 -718.233)" fill="#9dcecc"/>
            <g id="Group_2491" data-name="Group 2491" transform="translate(0 1.857)">
              <path id="Path_8521" data-name="Path 8521" d="M1207.055,720.71c.053-.193.162-.439.246-.663.064-.166,1.689-.139,1.694.259a2.413,2.413,0,0,1-.012.274c.279,0,.58,0,.9-.012a15.562,15.562,0,0,0,1.749-.151c.029.632-.027,1.725,0,2.428,0,0-7.252,1.358-8.4.306C1202.912,722.854,1204.733,721.538,1207.055,720.71Z" transform="translate(-1203.197 -719.951)" fill="#2d8f91"/>
              <path id="Path_8522" data-name="Path 8522" d="M1211.622,722.221c0,.157,0,.307.007.441,0,0-7.252,1.358-8.4.306-.045-.042-.047-.1-.012-.183C1205.223,723.22,1209.819,722.525,1211.622,722.221Z" transform="translate(-1203.197 -719.767)" fill="#19555b"/>
              <path id="Path_8523" data-name="Path 8523" d="M1207.378,721.258a.1.1,0,0,0,.085.041.106.106,0,0,0,.057-.021.1.1,0,0,0,.019-.143,1.23,1.23,0,0,0-1.193-.477.1.1,0,1,0,.043.2A1.014,1.014,0,0,1,1207.378,721.258Zm-.512.248a.1.1,0,0,0,.077.032.1.1,0,0,0,.066-.028.1.1,0,0,0,0-.144,1.418,1.418,0,0,0-1.2-.453.1.1,0,1,0,.023.2A1.207,1.207,0,0,1,1206.865,721.506Zm-1.728-.193a.1.1,0,0,0,.118.083,1.331,1.331,0,0,1,1.076.391.106.106,0,0,0,.075.028.1.1,0,0,0,.069-.03.1.1,0,0,0,0-.144,1.558,1.558,0,0,0-1.254-.445A.1.1,0,0,0,1205.137,721.313Z" transform="translate(-1203.04 -719.895)" fill="#d3dae5"/>
            </g>
          </g>
          <path id="Path_8524" data-name="Path 8524" d="M1214.769,723.449c.037.347,2.016.334,2.073-.014.74-4.5,2.547-15.112,2.711-16.243l-4.554-.255S1214.589,721.76,1214.769,723.449Z" transform="translate(-1199.292 -664.453)" fill="#e0a075"/>
          <path id="Path_8525" data-name="Path 8525" d="M1208.912,703.084s-1.2,6.163-1.916,9.157c1.145.6,4.5,1.561,6.228,1.005.083-.351.635-3.8,1.549-3.621.326.064-.021,3.094.047,3.757a10.316,10.316,0,0,0,5.846-.758c-.032-1.462.143-7.748,0-9.541Z" transform="translate(-1199.917 -664.765)" fill="#1b6168"/>
          <path id="Path_8526" data-name="Path 8526" d="M1220.636,705.6c-.509-1.341-1.005-2.451-1.005-2.451l-10.8.263c-.012.023-.029.057-.043.083-.066.626-.566,1.923-.733,3.473,4.283,1.528,10.36,1.639,12.571.479C1220.632,706.816,1220.636,706.189,1220.636,705.6Z" transform="translate(-1199.831 -664.759)" opacity="0.23"/>
          <g id="Group_2494" data-name="Group 2494" transform="translate(15.024 55.058)">
            <path id="Path_8527" data-name="Path 8527" d="M1214.562,721.913a15.788,15.788,0,0,0,3.023-.021c.158-.881.363-2.9.432-3.287l-3.639-.036C1214.441,719.5,1214.509,721.349,1214.562,721.913Z" transform="translate(-1214.344 -718.57)" fill="#9dcecc"/>
            <g id="Group_2493" data-name="Group 2493" transform="translate(0 1.674)">
              <path id="Path_8528" data-name="Path 8528" d="M1218.931,720.879c-.052-.194-.161-.439-.245-.663-.063-.167-1.688-.144-1.694.255a2.672,2.672,0,0,0,.011.275c-.278,0-.579,0-.9-.014a15.41,15.41,0,0,1-1.749-.156c-.029.631.023,1.725,0,2.428,0,0,7.248,1.376,8.394.326C1223.068,723.034,1221.25,721.713,1218.931,720.879Z" transform="translate(-1214.346 -720.119)" fill="#2d8f91"/>
              <path id="Path_8529" data-name="Path 8529" d="M1214.359,722.38c0,.157,0,.307-.008.441,0,0,7.248,1.376,8.394.326.046-.042.048-.1.013-.183C1220.756,723.394,1216.16,722.688,1214.359,722.38Z" transform="translate(-1214.346 -719.936)" fill="#19555b"/>
              <path id="Path_8530" data-name="Path 8530" d="M1219.146,721.029a.1.1,0,1,0,.043-.2,1.226,1.226,0,0,0-1.194.473.1.1,0,0,0,.019.143.105.105,0,0,0,.057.021.1.1,0,0,0,.085-.04A1.012,1.012,0,0,1,1219.146,721.029Zm.557.258a.1.1,0,0,0,.112-.089.1.1,0,0,0-.089-.112,1.419,1.419,0,0,0-1.205.451.1.1,0,0,0,.07.171.1.1,0,0,0,.077-.031A1.2,1.2,0,0,1,1219.7,721.287Zm.612.082a1.555,1.555,0,0,0-1.255.443.1.1,0,0,0,0,.144.109.109,0,0,0,.069.03.1.1,0,0,0,.075-.029,1.333,1.333,0,0,1,1.079-.388.1.1,0,0,0,.117-.082A.1.1,0,0,0,1220.314,721.369Z" transform="translate(-1214.053 -720.063)" fill="#d3dae5"/>
            </g>
          </g>
          <path id="Path_8531" data-name="Path 8531" d="M1207.531,706.515c7.424,2.83,13.516.28,14.217-.5-1.252-6.344-2.568-11.516-4.85-13.267a24.028,24.028,0,0,0-9.9,2.4C1210.755,700.335,1208.376,704.347,1207.531,706.515Z" transform="translate(-1199.917 -665.601)" fill="#ef5a18"/>
          <path id="Path_8532" data-name="Path 8532" d="M1215.779,693.628l-.174-.867a25.04,25.04,0,0,0-5.3.985l.188.939c.149.748,1.454,1.118,2.913.826S1215.929,694.376,1215.779,693.628Z" transform="translate(-1199.649 -665.599)" fill="#9e330d"/>
          <path id="Path_8533" data-name="Path 8533" d="M1210.474,691.769l.542,2.713c.116.584,1.134.872,2.271.644s1.966-.884,1.849-1.468l-.543-2.713Z" transform="translate(-1199.636 -665.746)" fill="#e0956c"/>
          <g id="Group_2497" data-name="Group 2497" transform="translate(0 4.543)">
            <path id="Path_8534" data-name="Path 8534" d="M1221.552,683.878a3.682,3.682,0,0,1-2.687,3.86c-1.368.181-2.074-1.295-2.375-3.172s.567-3.552,1.936-3.728C1220.3,680.6,1221.473,681.987,1221.552,683.878Z" transform="translate(-1199.154 -671.108)" fill="#f4b18c"/>
            <path id="Path_8535" data-name="Path 8535" d="M1200.629,682.479a10.8,10.8,0,0,0,13.8,8.634c5.788-1.686,8.6-7.714,6.065-14.241-1.409-3.624-6.577-6.174-12.1-4.527C1202.526,674.1,1199.671,676.973,1200.629,682.479Z" transform="translate(-1200.447 -671.834)" fill="#5e3728"/>
            <path id="Path_8536" data-name="Path 8536" d="M1202.843,680.252c-.185,1.313,3.73,11.239,5.212,12.475,2.692,2.244,7.365.864,8.436.552,1.148-.335,3.454-1.252,5.039-4.781.972-2.165-1.587-11.251-2.269-12.228-2.3-3.3-5.526-2.5-9.692-1.282C1205.672,676.125,1203.325,676.844,1202.843,680.252Z" transform="translate(-1200.253 -671.664)" fill="#e0a075"/>
            <path id="Path_8537" data-name="Path 8537" d="M1208.316,688.911c.115.446.827.65,1.593.454s1.293-.716,1.179-1.162-.828-.65-1.593-.454S1208.2,688.465,1208.316,688.911Z" transform="translate(-1199.811 -670.553)" fill="#b86a68" opacity="0.5" style="isolation: isolate"/>
            <path id="Path_8538" data-name="Path 8538" d="M1217.282,686.023c.14.385.721.526,1.3.317s.932-.693.791-1.078-.721-.526-1.3-.317S1217.142,685.638,1217.282,686.023Z" transform="translate(-1199.088 -670.781)" fill="#b86a68" opacity="0.5" style="isolation: isolate"/>
            <path id="Path_8540" data-name="Path 8540" d="M1208.417,680.587a.3.3,0,0,0-.13.169,3.373,3.373,0,0,1-2.521,2.03.3.3,0,1,0,.114.586,3.949,3.949,0,0,0,2.979-2.444.3.3,0,0,0-.2-.372A.3.3,0,0,0,1208.417,680.587Z" transform="translate(-1200.036 -671.129)" fill="#ad7445"/>
            <path id="Path_8541" data-name="Path 8541" d="M1218.016,678.32a.282.282,0,0,0,.195-.131.289.289,0,0,0-.092-.4,3.807,3.807,0,0,0-3.709.132.288.288,0,1,0,.292.5,3.241,3.241,0,0,1,3.114-.141A.285.285,0,0,0,1218.016,678.32Z" transform="translate(-1199.329 -671.386)" fill="#ad7445"/>
            <path id="Path_8550" data-name="Path 8550" d="M1201.819,690.273a4.365,4.365,0,0,0,5.078,1.987c1.473-.661-.565-6.845-3.494-6.565C1200.964,685.928,1200.719,688.453,1201.819,690.273Z" transform="translate(-1200.386 -670.714)" fill="#e0a075"/>
            <path id="Path_8551" data-name="Path 8551" d="M1203.338,689.542a1.714,1.714,0,0,0,2.277.84c.265-.182-1.142-3.13-1.609-2.993A1.539,1.539,0,0,0,1203.338,689.542Z" transform="translate(-1200.227 -670.576)" fill="#ad7445"/>
            <path id="Path_8552" data-name="Path 8552" d="M1213.455,687.678h-.065a1.052,1.052,0,0,0-1.015.907.147.147,0,0,0,.1.172.131.131,0,0,0,.152-.115.876.876,0,0,1,.774-.767.8.8,0,0,1,.834.7.126.126,0,0,0,.16.1.151.151,0,0,0,.088-.182A.983.983,0,0,0,1213.455,687.678Z" transform="translate(-1199.482 -670.553)" fill="#79354f"/>
          </g>
          <path id="Path_8553" data-name="Path 8553" d="M1216.318,696.5c-.154-.174-1.089-.084-1.943-.608-.834,2.152-1.164,3.471-2.371,3.642-1.4.2-3.085-2.1-4.809-4a6.142,6.142,0,0,0,.255,3.079,5.233,5.233,0,0,0,4.973,3.629C1214.681,701.958,1216.3,699.317,1216.318,696.5Z" transform="translate(-1199.909 -665.375)" opacity="0.24"/>
          <path id="Path_8554" data-name="Path 8554" d="M1216.046,696.442c-.155-.182-1.071-.465-1.946-1-.9,2.286-1.15,3.058-2.4,3.26-1.447.234-2.818-1.484-4.567-3.459a6.013,6.013,0,0,0,.212,3.246,5.1,5.1,0,0,0,5.073,3.3C1214.376,701.576,1215.535,699.08,1216.046,696.442Z" transform="translate(-1199.917 -665.399)" fill="#e0a075"/>
          <path id="Path_8555" data-name="Path 8555" d="M1215.74,705.008c-.7.1-.686-.733-1.089-1.461,2.785-1.163,3.738-2.034,3.995-2.94a16.013,16.013,0,0,0-.329-6.863,3.822,3.822,0,0,1,1.923,1.633,8.2,8.2,0,0,1,1.147,5.677C1221.068,702.995,1218.692,704.761,1215.74,705.008Z" transform="translate(-1199.298 -665.52)" fill="#e0a075"/>
          <path id="Path_8556" data-name="Path 8556" d="M1218.2,698.925a11.726,11.726,0,0,0,3.774-1.311,20.1,20.1,0,0,0-3.042-4.4,5.824,5.824,0,0,0-3.071-.46A58.21,58.21,0,0,0,1218.2,698.925Z" transform="translate(-1199.2 -665.602)" fill="#ef5a18"/>
          <path id="Path_8557" data-name="Path 8557" d="M1217.439,695.087c.272-.309.349-.933-.277-1.006.03-.538-.01-.843-.4-.944.887-.842,1.5-2.131.9-2.739-.223-.222-2.893,2.275-3.182,2.312-.343.044-.807-1.146-1.525-1.158-.273-.005-.405,2.4.042,3.508.3.757,2.162,2.041,2.995,1.9C1217.048,696.783,1218.515,695.453,1217.439,695.087Z" transform="translate(-1199.455 -665.791)" opacity="0.24"/>
          <path id="Path_8558" data-name="Path 8558" d="M1217.754,695a.536.536,0,0,0-.535-.185c.254-.29.357-.6.227-.8-.116-.177-.383-.226-.7-.157.221-.267.309-.543.193-.72s-.4-.211-.738-.117c.833-.783,2.007-2.064,1.406-2.659-.218-.216-2.129,1.836-2.927,2.575-.315.225-.611.255-.783-.286-.272-.687-.584-1-.957-1.1-.257-.066.025,1.94.172,3.081a2.237,2.237,0,0,0,.083.652,2.139,2.139,0,0,0,1.725,1.719,3.594,3.594,0,0,0,2.2-.934l.012-.008C1217.646,695.756,1217.922,695.281,1217.754,695Z" transform="translate(-1199.445 -665.794)" fill="#e0a075"/>
          <path id="Path_8559" data-name="Path 8559" d="M1207.18,701.135c1.7.378,4.043-1.434,4.233-2.394-.633-1.218-1.8-3.372-4.4-3.774C1206.219,696.64,1207.18,701.135,1207.18,701.135Z" transform="translate(-1199.941 -665.421)" fill="#ef5a18"/>
          <g id="Group_2498" data-name="Group 2498" transform="translate(7.958 37.478)" opacity="0.4">
            <path id="Path_8560" data-name="Path 8560" d="M1214.524,704.415a12.448,12.448,0,0,0,6.635-1.519c-.043-.2-.087-.394-.13-.591a11.785,11.785,0,0,1-6.507,1.534,15.677,15.677,0,0,1-5.991-1c-.055.187-.111.371-.172.548a15.6,15.6,0,0,0,5.158,1.005C1213.84,704.408,1214.176,704.415,1214.524,704.415Z" transform="translate(-1207.764 -702.305)" fill="#fff"/>
            <path id="Path_8561" data-name="Path 8561" d="M1214.508,706.07a12.475,12.475,0,0,0,7.016-1.694q-.123-.611-.248-1.205c-1.17.772-2.956,1.742-6.771,1.751a15.1,15.1,0,0,1-6.266-1.142c-.144.384-.292.739-.431,1.067a15.379,15.379,0,0,0,5.677,1.2C1213.813,706.064,1214.155,706.072,1214.508,706.07Z" transform="translate(-1207.809 -702.235)" fill="#fff"/>
          </g>
          <path id="Path_8562" data-name="Path 8562" d="M1211.3,703.694a.615.615,0,0,0,.5.42c.121.025-.13.015-.087.11.158.359,1.027.609,1.942.68,1.813.142,2.081-1.01,2.126-1.552s.483-2.2-2.625-2.2c-.177.406.81.952.631.941a2.835,2.835,0,0,0-1.053.044c-1.133.254-1.769.894-1.44,1.171.114.1,1.733.028,1.76.1S1211.263,703.624,1211.3,703.694Z" transform="translate(-1199.576 -664.921)" opacity="0.17"/>
          <path id="Path_8563" data-name="Path 8563" d="M1211.751,703.868c.053.086.145.275.88.22.121-.01-.539.145-.411.226a4.2,4.2,0,0,0,1.894.519c1.813.132,2.971-.665,3.007-1.17.025-.357-2.068-2.412-3.5-2.164-.144.025.822.715.7.819-.17.143-.612-.009-1.123.1-1.134.236-1.92.643-1.592.9.113.089,2.1-.066,2.124,0S1211.711,703.8,1211.751,703.868Z" transform="translate(-1199.551 -664.894)" fill="#e0a075"/>
          <path id="Path_8564" data-name="Path 8564" d="M1221.577,670.367a2.7,2.7,0,0,1-.746-.146,1.936,1.936,0,0,1-.665-.347.479.479,0,0,1-.21-.518,2.232,2.232,0,0,1,.787-1.164,2.379,2.379,0,0,1,1.3-.549,2.816,2.816,0,0,1,1.542.282,2.979,2.979,0,0,1,1.108.944,2.682,2.682,0,0,1,.477,1.319,2.216,2.216,0,0,1-.351,1.4,2.366,2.366,0,0,1-1.513.975q-.261.066-.237.446c.011.1-.085.173-.286.223a3.087,3.087,0,0,1-.67.082,3,3,0,0,1-.667-.054c-.2-.041-.291-.106-.275-.195a2.925,2.925,0,0,1-.013-1.078,1.662,1.662,0,0,1,.347-.718,1.594,1.594,0,0,1,.831-.511c.342-.09.548-.2.615-.325.136-.258.006-.431-.382-.516s-.606-.008-.654.228A.282.282,0,0,1,1221.577,670.367Zm.775,5.791a1.132,1.132,0,0,1-.938-.336,1,1,0,0,1-.3-.931,1.094,1.094,0,0,1,.438-.724,1.036,1.036,0,0,1,.829-.2,1.385,1.385,0,0,1,.6.257.9.9,0,0,1,.336.543,1.117,1.117,0,0,1-.175.913A1.054,1.054,0,0,1,1222.352,676.158Z" transform="translate(-1198.87 -667.631)" fill="#969696"/>
        </g>
      </g>
      <path id="Path_749" data-name="Path 749" d="M1209.093,685.4c.755-.1.551-1.472-.172-1.476C1207.949,683.922,1208.342,685.5,1209.093,685.4Z" transform="translate(-1162.348 -629.094)" fill="#79354f"/>
      <path id="Path_750" data-name="Path 750" d="M1216.632,682.2c.731-.224.31-1.54-.4-1.429C1215.267,680.92,1215.908,682.427,1216.632,682.2Z" transform="translate(-1161.75 -629.349)" fill="#79354f"/>
      <path id="Path_756" data-name="Path 756" d="M1218.3,675.812c-.553-.2-1.513-.873-1.368-1.391-.508.425-1.122.791-1.757-.042a1,1,0,0,1-.41,1.378,1.086,1.086,0,0,1-1.178-.079c.794,1.295-.275,2.267-1.188,1.331.134,1.067-.659,1.555-1.432,1.044.172.761-.533,1.2-1.052.653.516,1.371-1.057,1.951-1.714.63-.02-.062-.013-.063,0,0,.115,1.281-1.384,1.419-1.854.3.131.788-.6,1.727-1.167.817-.022-.062-.02-.062,0,0,.268.879-.369,1.294-.986,1.085.727.61.391,1.72-.232.91h0a1.063,1.063,0,0,1-.187,1.124,1.14,1.14,0,0,1,.523,1.568c.8.309.785,1.511.077,1.1a.808.808,0,0,1,.321,1.136.874.874,0,0,1-.145.182c.59.078,1.235.54.609.932a4.2,4.2,0,0,1,.583.731c-.563.121-2.776-.475-2.4-1.432a1.749,1.749,0,0,1-1.069-1.991c-.632-.392-1.492-1.467-.984-2.179-.489-.583-1.119-1.6-.506-2.063-.539-.6-1.095-1.734-.538-2.245-.8-.586-1.144-2.016-.223-2.247-1.042-1.364,1.288-2,1.273-1.963-.444-.456-.448-2.213.65-2.13-.2-.912.387-1.981,1.162-1.438-.041-.9.525-1.5,1.242-1.141.037-.824.681-1.24,1.317-.844a1.066,1.066,0,0,1,1.25-.774,1.024,1.024,0,0,1,.6.356c-.049-.065,1.288-1.4,1.932-.294.311-.766,1.461-1.289,1.844.049.442-.533,1.642-1.228,1.981.172-.027.043-.033.043-.02,0,.493-.693,1.361-.836,1.838.412-.03.024-.051.011-.059-.042a1.082,1.082,0,0,1,1.482.125.965.965,0,0,1,.209.407c.678-.255,2.378.7,1.953,1.855a1.052,1.052,0,0,1,.873,1.468c.689.065,1.5,1.31.842,1.784.524.607,1.137,2.287.536,3.092" transform="translate(-1163.065 -630.376)" fill="#5e3728"/>
      <path id="Path_2447" data-name="Path 2447" d="M1210.249,657.227c0,5.753-5.16,8.834-11.405,9.46-.8.08-1.615.119-2.441.119-.156,0-.31,0-.463,0h-.023c-.219-.005-.433-.014-.645-.025a19.155,19.155,0,0,1-2.531-.3,17.091,17.091,0,0,1-2.019-.512c-.182-.059-.362-.12-.539-.184a14.027,14.027,0,0,1-9.544-12.928c0-6.488,8.524-11.1,15.764-9.54C1203.523,644.84,1210.249,650.738,1210.249,657.227Z" transform="translate(-1164.588 -632.402)" fill="#fff" stroke="#03cea4" stroke-width="1"/>
      <g id="Group_1105" data-name="Group 1105" transform="translate(23.601 12.81)">
        <path id="Path_2448" data-name="Path 2448" d="M1196.021,652.506c-.343-.032-.667-.053-.973-.064a.658.658,0,0,1-.594-.427,6.567,6.567,0,0,1-.355-1.6l-.12.038-2.018.627s.116.644.182,1.255c.009.073.016.147.023.224a.2.2,0,0,1-.146.211,3.711,3.711,0,0,0-1.367.653,36.091,36.091,0,0,0,1.588,7.551c.127.388-1.807,2.71-1.807,2.71.471,1.508,6.894-.649,6.894-.649s-.44-1.335.134-4.6A6.935,6.935,0,0,0,1196.021,652.506Z" transform="translate(-1187.396 -644.613)" fill="#ffb27d"/>
        <path id="Path_2449" data-name="Path 2449" d="M1195.617,652.35s2.021.246,3.167,6c0,0,.311,1.67-.311,1.868S1194.629,656.673,1195.617,652.35Z" transform="translate(-1186.992 -644.456)" fill="#ffb27d"/>
        <path id="Path_2450" data-name="Path 2450" d="M1192.876,649.464a1.26,1.26,0,0,1,.741,1.62,1.246,1.246,0,0,1-.157.294s1.061-.016,1.284-.351a.873.873,0,0,1-.06.208,3.014,3.014,0,0,0,1.307-.7c.313-.431-1.486-5.387-4.047-3.989,0,0-2.369.533-1.335,3.147s.161,2.88.161,2.88a1.281,1.281,0,0,0,.4.01s.152-.118.158-.219a.653.653,0,0,1-.018.219,2.607,2.607,0,0,0,1.333-.7A3.093,3.093,0,0,0,1192.876,649.464Z" transform="translate(-1187.403 -644.945)" fill="#233862"/>
        <path id="Path_2451" data-name="Path 2451" d="M1191.847,651.083s.142.9.209,1.512a3.7,3.7,0,0,0,1.374-2.221Z" transform="translate(-1187.282 -644.616)" fill="#ed985f"/>
        <path id="Path_2452" data-name="Path 2452" d="M1193.565,650.759a6.107,6.107,0,0,0,.562-1.852c.041-.593.387-3.064-1.752-2.522a8.313,8.313,0,0,0-2.049.932c-.44.366-1.045,1.128-.084,2.933l.265.616Z" transform="translate(-1187.453 -644.945)" fill="#233862"/>
        <path id="Path_2453" data-name="Path 2453" d="M1191.689,652.224s2.636-.758,2.14-2.394-.493-2.834-2.2-2.416-1.839,1.139-1.807,1.725S1190.989,652.38,1191.689,652.224Z" transform="translate(-1187.446 -644.862)" fill="#ffb27d"/>
        <path id="Path_2454" data-name="Path 2454" d="M1190.672,647.813a2.428,2.428,0,0,0-.411,1.048c0,.456.2,1.332-.058,1.378,0,0-.94-1.138-.558-2.061C1190.052,647.2,1190.672,647.813,1190.672,647.813Z" transform="translate(-1187.468 -644.838)" fill="#233862"/>
        <path id="Path_2455" data-name="Path 2455" d="M1197.733,658.017s.008-2.1-.382-2.351S1196.838,658.068,1197.733,658.017Z" transform="translate(-1186.861 -644.189)" fill="#f8a871"/>
        <path id="Path_2456" data-name="Path 2456" d="M1191.583,652.743s1.714,2.384,3.285,2.257c0,0,.611-1.748.073-2.709,0,0,.4.013.54.022.117.008.479.045.479.045l1.489,2.545a3.073,3.073,0,0,1,.393,1.96l-.643,5.719s-3.139.862-5.261-1.147l-.752-4.034Z" transform="translate(-1187.335 -644.461)" fill="#6e1075"/>
        <path id="Path_2457" data-name="Path 2457" d="M1197.559,655.613a.272.272,0,0,1-.018.066.124.124,0,0,1-.01.03c0,.011-.017.047-.028.073v.009c-.307.805-1.751,4.086-3.2,4.984a.936.936,0,0,1-.244.161l-.031.013-.032.012-.015.005a.75.75,0,0,1-.235.038h-.06c-.753-.057-3.974-4.721-4.034-6.139-.04-.906,1.072-1.666,1.072-1.666,1.135.6,2.233,2.471,3,4.091.16.335.3.659.433.96a23.873,23.873,0,0,0,2.635-3.027Z" transform="translate(-1187.46 -644.388)" fill="#ffb27d"/>
        <path id="Path_2458" data-name="Path 2458" d="M1197.548,662.647c-.085-.293-.146-.463-.146-.463s-4.371.231-5.472-1.226h0c-.013.012-.208.2-.493.508h0a13.372,13.372,0,0,0-1.318,1.695,9.6,9.6,0,0,0-.652,1.16c.177.065.358.125.539.184a16.842,16.842,0,0,0,2.019.512,18.762,18.762,0,0,0,2.53.3c.213.012.975.03,1.131.03.826,0,1.642-.04,2.44-.119A21.781,21.781,0,0,0,1197.548,662.647Z" transform="translate(-1187.474 -643.76)" fill="#f99746"/>
        <path id="Path_2459" data-name="Path 2459" d="M1193.978,657.969c-.723,1.008-2.084-.951-2.131-1.025l.35-.3a5.4,5.4,0,0,1,1.349.359C1193.7,657.344,1193.851,657.668,1193.978,657.969Z" transform="translate(-1187.282 -644.109)" fill="#ed985f"/>
        <path id="Path_2460" data-name="Path 2460" d="M1190.957,651.118a1.54,1.54,0,0,1,.914-.323.485.485,0,0,1-.366.4A.513.513,0,0,1,1190.957,651.118Z" transform="translate(-1187.354 -644.582)" fill="#ffe8dc"/>
        <path id="Path_2461" data-name="Path 2461" d="M1191.906,646.581l-1.486,1.362a4.635,4.635,0,0,0,2.714,2.071,6.394,6.394,0,0,1-1.5-1.017,2.339,2.339,0,0,0,1.338.507c.356.017.879,1.445-.112,1.8,0,0,1.319.138,1.783-.351a.856.856,0,0,1-.061.208,2.993,2.993,0,0,0,1.308-.7C1196.2,650.034,1194.465,645.184,1191.906,646.581Z" transform="translate(-1187.397 -644.943)" fill="#233862"/>
        <path id="Path_2462" data-name="Path 2462" d="M1191.727,652.708s-1.788.613-2.181,1.366.281,2.7,1.091,3.672a3.846,3.846,0,0,0,2.945-1.479A30.63,30.63,0,0,0,1191.727,652.708Z" transform="translate(-1187.478 -644.427)" fill="#6e1075"/>
        <path id="Path_2463" data-name="Path 2463" d="M1195.6,652.35s1.2.074,1.977,1.775c0,0,.044,1.172-.879,1.2S1195.6,652.35,1195.6,652.35Z" transform="translate(-1186.979 -644.456)" fill="#6e1075"/>
        <path id="Path_2464" data-name="Path 2464" d="M1197.823,657.613c-.838-.231-1.63-.459-2.342-.671-2.034-.6-3.434-1.067-3.434-1.067l0,.007,0-.007s-.493-.467-.522-.69c-.026-.2-.547-.306-.9-.411a.058.058,0,0,0-.071.039.057.057,0,0,0,0,.04.635.635,0,0,0,.322.265c.249.082-.252.244-.641.031-.242-.132-.659-.572-.792-.41a1.676,1.676,0,0,0,.351,1.359c.219.237,1.324.241,1.726.467h0c3.208,1.485,5.529,4.168,7.439,3.466C1198.958,660.033,1199.376,658.041,1197.823,657.613Z" transform="translate(-1187.478 -644.266)" fill="#ffb27d"/>
        <path id="Path_2465" data-name="Path 2465" d="M1195.282,656.855l-.72.668s-2.821-1.448-2.729-1.714a.045.045,0,0,1,.015-.019S1193.248,656.253,1195.282,656.855Z" transform="translate(-1187.283 -644.178)" fill="#f8a871"/>
        <path id="Path_2466" data-name="Path 2466" d="M1196.256,655.2a2.219,2.219,0,0,0,.168-.849c-.069-.205.439-.5.7-.747a.021.021,0,0,1,.029,0l.005.012a.426.426,0,0,1-.141.338c-.188.184.068.22.24.009s-.188-.653,0-.565.788.594.724.913-.694.9-.957,1.28Z" transform="translate(-1186.926 -644.372)" fill="#ffb27d"/>
        <path id="Path_2467" data-name="Path 2467" d="M1191.287,661.486s2.144,2.076,6.111,1.178l-.21-.77s-3.409.935-5.262-1.147Z" transform="translate(-1187.327 -643.777)" fill="#ed7d2b"/>
        <path id="Path_2468" data-name="Path 2468" d="M1198.085,649.87s.981-.786,1.542-.118-1.925,1.61-1.925,1.61-1.092-2-.489-2.168S1198.085,649.87,1198.085,649.87Z" transform="translate(-1186.863 -644.713)" fill="#f99746"/>
        <path id="Path_2469" data-name="Path 2469" d="M1188.291,645.7s.131-.727.638-.65-.229,1.458-.229,1.458-1.256-.46-1.054-.771S1188.291,645.7,1188.291,645.7Z" transform="translate(-1187.624 -645.047)" fill="#f99746"/>
        <path id="Path_2470" data-name="Path 2470" d="M1188.48,651.811s-.183-.817.381-.958.4,1.625.4,1.625-1.515.068-1.441-.344S1188.48,651.811,1188.48,651.811Z" transform="translate(-1187.608 -644.578)" fill="#f99746"/>
        <path id="Path_2471" data-name="Path 2471" d="M1197.259,655.431a.289.289,0,0,1-.018.067.131.131,0,0,1-.01.029c0,.01-.017.046-.027.073v.009c-.324.857-1.915,4.494-3.45,5.145l-.03.012-.034.013-.014.005a.751.751,0,0,1-.235.037C1192.888,660.36,1197.259,655.431,1197.259,655.431Z" transform="translate(-1187.157 -644.207)" fill="#ed985f"/>
      </g>
      <path id="Path_2472" data-name="Path 2472" d="M1233.774,662.995a13.666,13.666,0,0,1-1.872-.241,24.016,24.016,0,0,0-4.672-.406c-6.115.009-10.74,1.613-11.513-4.54-.787-6.275,6.8-13.9,12.35-15.93,6.515-2.381,12.318,4.708,13.687,10.895C1243.005,658.439,1240.177,663.358,1233.774,662.995Z" transform="translate(-1161.756 -632.531)" fill="#fff" stroke="#03cea4" stroke-width="1"/>
      <path id="Path_2473" data-name="Path 2473" d="M1228.295,650.424a5.642,5.642,0,0,0-2.548.954,2.984,2.984,0,0,0-.336,3.126C1226,655.408,1228.295,650.424,1228.295,650.424Z" transform="translate(-1160.992 -631.802)" fill="#6e1075"/>
      <path id="Path_2474" data-name="Path 2474" d="M1230.729,648.074a5.563,5.563,0,0,0,.773,3.28l-2.895,2.966-.226-2.752a8.527,8.527,0,0,0,.237-2.514Z" transform="translate(-1160.728 -631.992)" fill="#ed985f"/>
      <path id="Path_2475" data-name="Path 2475" d="M1229.759,646.857a1.493,1.493,0,0,1,.708,2.264s1.256-.026,1.518-.425a.976.976,0,0,1-.069.245,3.553,3.553,0,0,0,1.543-.83c.366-.513-1.8-6.369-4.821-4.7,0,0-2.8.647-1.559,3.734s.211,3.41.211,3.41a1.525,1.525,0,0,0,.47.009s.178-.141.184-.266a.736.736,0,0,1-.02.262,3.08,3.08,0,0,0,1.574-.838A3.655,3.655,0,0,0,1229.759,646.857Z" transform="translate(-1160.859 -632.393)" fill="#233862"/>
      <path id="Path_2476" data-name="Path 2476" d="M1228.59,648.5s.028,1.081.012,1.808c1.494-.272,1.8-1.55,2.11-2.237Z" transform="translate(-1160.711 -631.992)" fill="#db8952"/>
      <path id="Path_2477" data-name="Path 2477" d="M1230.4,648.47a7.2,7.2,0,0,0,.87-2.118c.117-.7.8-3.569-1.779-3.171a9.815,9.815,0,0,0-2.52.869c-.558.385-1.359,1.213-.43,3.448l.243.755Z" transform="translate(-1160.911 -632.391)" fill="#233862"/>
      <path id="Path_2478" data-name="Path 2478" d="M1228.6,650.205s3.052-1.12,2.325-3.009-.823-3.307-2.8-2.672-2.078,1.5-1.989,2.189S1227.791,650.452,1228.6,650.205Z" transform="translate(-1160.911 -632.292)" fill="#ed985f"/>
      <path id="Path_2479" data-name="Path 2479" d="M1227.139,644.919a2.863,2.863,0,0,0-.478,1.245c0,.54.245,1.575-.061,1.632,0,0-1.121-1.341-.674-2.437C1226.4,644.194,1227.139,644.919,1227.139,644.919Z" transform="translate(-1160.935 -632.265)" fill="#233862"/>
      <path id="Path_2480" data-name="Path 2480" d="M1232.957,661.663a13.666,13.666,0,0,1-1.872-.241,24.016,24.016,0,0,0-4.672-.406c.005-.08.009-.156.011-.227a11.558,11.558,0,0,0-.663-2.912H1233c-.24.85-.41,1.565-.474,1.75A3.583,3.583,0,0,0,1232.957,661.663Z" transform="translate(-1160.94 -631.2)" fill="#6e1075"/>
      <path id="Path_2481" data-name="Path 2481" d="M1232.493,660.25a11.57,11.57,0,0,1-6.351.447s-1.243-4.7-.744-6.2,2.807-3.762,2.843-3.8a4.3,4.3,0,0,0-.3,3.188,9.519,9.519,0,0,0,3.527-3.412,11.782,11.782,0,0,1,2.793,3.17c.037.076.071.151.1.227" transform="translate(-1160.979 -631.798)" fill="#6e1075"/>
      <path id="Path_2482" data-name="Path 2482" d="M1232.054,659.984s-.023.011-.067.029c-.943-1.283-.1-5.258-.1-5.258a4.516,4.516,0,0,1,1.87-1.341c.037.076.071.151.1.226C1234.52,655.282,1232.054,659.984,1232.054,659.984Z" transform="translate(-1160.472 -631.56)" fill="#6e1075"/>
      <path id="Path_2483" data-name="Path 2483" d="M1227.962,649.857s0,.227-.016.6h0v.1c-.063,1.906-.325,7.045-1.307,7.679a.373.373,0,0,1-.257.061l-.042-.007a1.888,1.888,0,0,1-.354-.09l-.022-.008h0a1.9,1.9,0,0,1-1.157-2.318l2.3-6.221a1.052,1.052,0,0,0-.2-.866,3.17,3.17,0,0,1-.254-1.107c-.062-.33-.008-.431.076-.29s.223.615.283.583-.15-1.556.151-1.545.8,1.715.792,2.234S1227.962,649.857,1227.962,649.857Z" transform="translate(-1161.023 -632.125)" fill="#ffb27d"/>
      <path id="Path_2484" data-name="Path 2484" d="M1227.867,650.256c-.064,1.906-.325,7.045-1.308,7.68a.368.368,0,0,1-.257.062l-.043-.008a1.747,1.747,0,0,1-.353-.09l-.021-.008h0C1224.908,656.92,1227.542,650.978,1227.867,650.256Z" transform="translate(-1160.947 -631.816)" fill="#ed985f"/>
      <path id="Path_2485" data-name="Path 2485" d="M1232.453,651.348c-.329-.043-1.736,2.114-2.969,3.794h0l-.6-5.614-.035-.057h.005a3.307,3.307,0,0,1,.339-1.2c.237-.272.151-.787.186-1.121s-.045-.433-.136-.286-.207.627-.29.6,0-1.567-.388-1.541-.813,1.757-.736,2.278c.066.441.119.987.133,1.145-.43,2.388-1.381,8.23-.519,8.961a.322.322,0,0,0,.151.085c2.908.031,5.377-2.615,6.486-4.025.4-.511.625-.86.625-.86C1234.86,651.846,1234.063,651.56,1232.453,651.348Z" transform="translate(-1160.832 -632.166)" fill="#ffb27d"/>
      <path id="Path_2486" data-name="Path 2486" d="M1234.037,653.768c-1.109,1.411-3.579,4.056-6.485,4.024a.92.92,0,0,0,.109-.008,4.768,4.768,0,0,0,2.017-1.108,29.771,29.771,0,0,0,3.367-3.337Z" transform="translate(-1160.795 -631.566)" fill="#ed985f"/>
      <path id="Path_2487" data-name="Path 2487" d="M1231.008,650.478s2.619.15,3.151.981c.6.944.621,1.871.1,3.612,0,0-3.25-.648-3.137-3.024Z" transform="translate(-1160.515 -631.798)" fill="#6e1075"/>
      <g id="Group_1106" data-name="Group 1106" transform="translate(62.647 16.611)">
        <path id="Path_2488" data-name="Path 2488" d="M1225.917,648.727c-.134.11-.165.3-.06.365s.173-.08.209-.263a.551.551,0,0,1,.151-.266A1,1,0,0,0,1225.917,648.727Z" transform="translate(-1223.584 -648.564)" fill="#699dee"/>
        <path id="Path_2489" data-name="Path 2489" d="M1224.134,649.906c.107.075.179-.066.23-.244a.555.555,0,0,1,.174-.252,1.038,1.038,0,0,0-.313.136C1224.082,649.645,1224.034,649.836,1224.134,649.906Z" transform="translate(-1223.722 -648.496)" fill="#699dee"/>
        <path id="Path_2490" data-name="Path 2490" d="M1225.124,650.823c-.1.145-.07.34.049.367s.142-.128.122-.312a.552.552,0,0,1,.069-.3A1.025,1.025,0,0,0,1225.124,650.823Z" transform="translate(-1223.643 -648.401)" fill="#699dee"/>
        <path id="Path_2491" data-name="Path 2491" d="M1223.818,651.173c-.1.139-.087.336.029.37s.15-.12.14-.3a.554.554,0,0,1,.084-.294A1.028,1.028,0,0,0,1223.818,651.173Z" transform="translate(-1223.749 -648.371)" fill="#699dee"/>
      </g>
      <path id="Path_2496" data-name="Path 2496" d="M1228.636,643.412a15.094,15.094,0,0,0-1.845,1.514s.062.076.171.193v.039s1.346,2.185,3.229,2.432a7.547,7.547,0,0,1-1.788-1.193,2.762,2.762,0,0,0,1.586.59c.42.018,1.048,1.7-.12,2.137,0,0,1.562.156,2.108-.428a.976.976,0,0,1-.069.245,3.55,3.55,0,0,0,1.543-.834C1233.823,647.6,1231.657,641.738,1228.636,643.412Z" transform="translate(-1160.856 -632.393)" fill="#233862"/>
      <path id="Path_2497" data-name="Path 2497" d="M1252.693,682.247c0,2.88-2.088,4.7-4.859,5.8a17.391,17.391,0,0,1-1.988.646,26.32,26.32,0,0,1-4.491.738c-.877.072-1.725.1-2.516.1a11.164,11.164,0,0,1-4.42-.841c-4.509-1.922-6.33-6.821-6.33-11.335,0-5.775,5.228-7.464,10.75-8.085C1250.018,668.017,1252.693,676.473,1252.693,682.247Z" transform="translate(-1160.751 -630.288)" fill="#fff" stroke="#03cea4" stroke-width="1"/>
      <path id="Path_2498" data-name="Path 2498" d="M1238.682,682.749a11.415,11.415,0,0,0-1.2,1.952l.32-3.922a2.251,2.251,0,0,0,.212-.631,9.059,9.059,0,0,0,.129-1.8c-.132-.048-.82.694-.89,1.03a8.517,8.517,0,0,0,.051,1.15h0a37.738,37.738,0,0,0-2.178,6.5c-.072.552-.011.911.256.923h.2a3.091,3.091,0,0,0,.8-.168h.006a3.833,3.833,0,0,0,.753-.337l.016-.01a.987.987,0,0,0,.107-.063h0a6.88,6.88,0,0,0,1.845-1.8,8.718,8.718,0,0,0,.732-1.174C1240.271,682.864,1239.172,682.562,1238.682,682.749Z" transform="translate(-1160.185 -629.545)" fill="#ffb27d"/>
      <path id="Path_2499" data-name="Path 2499" d="M1239.926,679.46a1.109,1.109,0,0,1,.883,1.3,1.1,1.1,0,0,1-.093.279s.919-.169,1.064-.492a.788.788,0,0,1-.023.189s.826-.375,1.033-.8-2.075-4.456-4.1-2.875c0,0-1.978.808-.7,2.925s.559,2.477.559,2.477a1.163,1.163,0,0,0,.346-.05s.115-.124.1-.216a.564.564,0,0,1,.017.195,2.294,2.294,0,0,0,1.055-.8A2.72,2.72,0,0,0,1239.926,679.46Z" transform="translate(-1159.985 -629.678)" fill="#233862"/>
      <g id="Group_1107" data-name="Group 1107" transform="translate(70.704 17.132)">
        <path id="Path_2492" data-name="Path 2492" d="M1231.534,649.178a1.065,1.065,0,0,0-.33-.132.581.581,0,0,1,.189.256c.058.184.139.327.247.246S1231.686,649.276,1231.534,649.178Z" transform="translate(-1231.204 -649.046)" fill="#699dee"/>
        <path id="Path_2493" data-name="Path 2493" d="M1233.385,649.819a1.081,1.081,0,0,0-.341-.1.574.574,0,0,1,.211.238c.076.178.168.316.268.227S1233.544,649.9,1233.385,649.819Z" transform="translate(-1231.055 -648.992)" fill="#699dee"/>
        <path id="Path_2494" data-name="Path 2494" d="M1232.321,651.027a.576.576,0,0,1,.107.3c0,.193.038.353.165.308s.122-.247.005-.386A1.077,1.077,0,0,0,1232.321,651.027Z" transform="translate(-1231.114 -648.886)" fill="#699dee"/>
        <path id="Path_2495" data-name="Path 2495" d="M1233.994,651.453a1.075,1.075,0,0,0-.29-.208.59.59,0,0,1,.124.294c.013.192.056.351.18.3S1234.118,651.582,1233.994,651.453Z" transform="translate(-1231.002 -648.868)" fill="#699dee"/>
      </g>
      <path id="Path_2500" data-name="Path 2500" d="M1242.321,681.773c.071.6.065,1.527-.624,1.707a4.738,4.738,0,0,0-.988.412c-.34.166-.563.223-.83-.16a2.348,2.348,0,0,1-.281-1.581l.09-.03a7.473,7.473,0,0,1-.491-1.136l1.548-.8.144-.072a5.793,5.793,0,0,0,1.779,1.392Z" transform="translate(-1159.853 -629.402)" fill="#ffb27d"/>
      <path id="Path_2501" data-name="Path 2501" d="M1240.988,683.68l-.278.205c-.342.167-.564.223-.83-.16a2.354,2.354,0,0,1-.282-1.581l.091-.03a7.321,7.321,0,0,1-.492-1.136l1.549-.8c.088.1.257.271.492.486A4.731,4.731,0,0,1,1240.988,683.68Z" transform="translate(-1159.853 -629.396)" fill="#ed985f"/>
      <path id="Path_2502" data-name="Path 2502" d="M1240.711,680.49a5.336,5.336,0,0,0,.215-1.688c-.051-.522-.11-2.716-1.887-1.934a7.3,7.3,0,0,0-1.641,1.108c-.326.384-.742,1.133.356,2.558l.319.5Z" transform="translate(-1160.028 -629.678)" fill="#233862"/>
      <path id="Path_2503" data-name="Path 2503" d="M1239.96,681.627a4.634,4.634,0,0,1-.656.4c-.584.237-1.954-1.9-2.07-2.409s-.1-1.15,1.318-1.761c1-.431,1.38-.039,1.752.7.156.31.31.682.508,1.078C1241.23,680.477,1240.538,681.2,1239.96,681.627Z" transform="translate(-1160.016 -629.598)" fill="#ffb27d"/>
      <path id="Path_2504" data-name="Path 2504" d="M1239.946,681.481c.118-1.024-1.294-2.723-1.294-2.723l1.537-.267c.156.31.31.682.509,1.078C1241.113,680.413,1240.524,681.054,1239.946,681.481Z" transform="translate(-1159.897 -629.533)" fill="#ed985f"/>
      <path id="Path_2505" data-name="Path 2505" d="M1237.784,678.325a2.126,2.126,0,0,0-.2.969c.063.4.366,1.126.149,1.205,0,0-.981-.851-.784-1.708C1237.157,677.885,1237.784,678.325,1237.784,678.325Z" transform="translate(-1160.037 -629.555)" fill="#233862"/>
      <path id="Path_2506" data-name="Path 2506" d="M1237.524,678.333s.054.047.148.121l.008.028a4.08,4.08,0,0,0,2.659,1.4,5.572,5.572,0,0,1-1.453-.664,2.058,2.058,0,0,0,1.235.245c.31-.037.973,1.126.167,1.58,0,0,1.163-.071,1.495-.564a.741.741,0,0,1-.022.189s.825-.376,1.033-.8S1239.63,675.864,1237.524,678.333Z" transform="translate(-1159.989 -629.615)" fill="#233862"/>
      <path id="Path_2507" data-name="Path 2507" d="M1245.42,682.352h0c-.065-.125-.13-.243-.2-.354a2.716,2.716,0,0,0-.858-1h0a1.441,1.441,0,0,0-.8-.05h0a9.175,9.175,0,0,0-1.192.257h0a7.293,7.293,0,0,1-.708,1.658,1.765,1.765,0,0,1-.406.466.621.621,0,0,1-.342.133,1.211,1.211,0,0,1-.757-.2.984.984,0,0,1-.386-.991h0l.05-.208h0c-.04.011-1.418.371-1.677.747a10.855,10.855,0,0,0-.654,1.259s.6,1.639,1.575,1.869v.005a4.308,4.308,0,0,0,.924,1.806c.189.253.395.5.6.738a26.228,26.228,0,0,0,4.492-.738,17.421,17.421,0,0,0,1.988-.646A23.821,23.821,0,0,0,1245.42,682.352Z" transform="translate(-1159.991 -629.337)" fill="#6e1075"/>
      <path id="Path_2508" data-name="Path 2508" d="M1243.645,681.288a23.381,23.381,0,0,0-1.752,3.046l-1.509-4.874a3.7,3.7,0,0,0-.144-1.087c-.135-.208-.634-.655-.821-.6s.062.467.1.711.063.364.042.375-.154-.421-.216-.4.042.551.084.655.344.279.387.471c.028,1.263.245,8.783,1.318,8.436a.076.076,0,0,0,.023-.012c.067-.031.133-.065.2-.1h0a7.432,7.432,0,0,0,3.5-4.241c.087-.269.121-.431.121-.431C1245.464,681.415,1244.2,681.063,1243.645,681.288Z" transform="translate(-1159.843 -629.591)" fill="#ffb27d"/>
      <g id="Group_1108" data-name="Group 1108" transform="translate(77.793 40.213)">
        <path id="Path_2509" data-name="Path 2509" d="M1239.58,674.731a.456.456,0,0,0-.341-.141.484.484,0,0,0-.359.817l.01.01a.476.476,0,0,0,.345.144.463.463,0,0,0,.343-.139.5.5,0,0,0,0-.691Zm.82-3.954a1.657,1.657,0,0,0-1.107-.376,1.754,1.754,0,0,0-.806.2,1.42,1.42,0,0,0-.594.549.851.851,0,0,0-.13.438.392.392,0,0,0,.1.283.353.353,0,0,0,.27.113.409.409,0,0,0,.335-.2l.273-.37a.792.792,0,0,1,.994-.044.529.529,0,0,1,.188.431.634.634,0,0,1-.2.5,1.348,1.348,0,0,1-.491.239.9.9,0,0,0-.346.168.352.352,0,0,0-.084.256v.683a.531.531,0,0,0,.108.341.372.372,0,0,0,.308.136.379.379,0,0,0,.4-.313,3.267,3.267,0,0,0,.027-.561,1.525,1.525,0,0,0,.886-.481,1.382,1.382,0,0,0,.323-.94,1.329,1.329,0,0,0-.465-1.048Z" transform="translate(-1237.763 -670.4)" fill="#f99746"/>
      </g>
      <g id="Group_1109" data-name="Group 1109" transform="translate(81.582 41.758)">
        <path id="Path_2510" data-name="Path 2510" d="M1241.958,674.949a.34.34,0,0,0-.192-.192.361.361,0,0,0-.277,0,.352.352,0,0,0-.195.459l0,.008a.345.345,0,0,0,.193.195.333.333,0,0,0,.272,0,.371.371,0,0,0,.195-.467Zm1.674-2.451a1.212,1.212,0,0,0-.646-.568,1.291,1.291,0,0,0-.6-.1,1.065,1.065,0,0,0-.559.205.622.622,0,0,0-.212.26.289.289,0,0,0-.009.223.258.258,0,0,0,.151.152.3.3,0,0,0,.283-.039l.287-.174a.587.587,0,0,1,.689.251.394.394,0,0,1,0,.348.47.47,0,0,1-.276.283,1.007,1.007,0,0,1-.4.023.656.656,0,0,0-.282.016.253.253,0,0,0-.13.149l-.193.464a.386.386,0,0,0-.023.263.27.27,0,0,0,.171.179.279.279,0,0,0,.359-.1,2.5,2.5,0,0,0,.177-.373,1.108,1.108,0,0,0,.736-.077,1.007,1.007,0,0,0,.486-.546.977.977,0,0,0-.012-.845Z" transform="translate(-1241.268 -671.829)" fill="#f99746"/>
      </g>
      <g id="Group_1110" data-name="Group 1110" transform="translate(74.215 42.82)">
        <path id="Path_2511" data-name="Path 2511" d="M1237.288,675.621a.354.354,0,0,0-.236-.139.337.337,0,0,0-.262.071.355.355,0,0,0,.161.635h.01a.352.352,0,0,0,.266-.072.334.334,0,0,0,.135-.234A.347.347,0,0,0,1237.288,675.621Zm-.791-2.4a.97.97,0,0,0-.744-.4,1.212,1.212,0,0,0-.813.279,1.291,1.291,0,0,0-.382.476,1.058,1.058,0,0,0-.1.587.63.63,0,0,0,.121.312.3.3,0,0,0,.189.118.26.26,0,0,0,.208-.055.3.3,0,0,0,.106-.266l-.007-.338a.583.583,0,0,1,.559-.472.387.387,0,0,1,.3.169.466.466,0,0,1,.109.379,1,1,0,0,1-.178.359.68.68,0,0,0-.127.253.255.255,0,0,0,.066.188l.307.4a.391.391,0,0,0,.215.15.272.272,0,0,0,.24-.059.279.279,0,0,0,.094-.364,2.5,2.5,0,0,0-.236-.338,1.114,1.114,0,0,0,.3-.678A1.009,1.009,0,0,0,1236.5,673.216Z" transform="translate(-1234.452 -672.812)" fill="#f99746"/>
      </g>
      <path id="Path_2512" data-name="Path 2512" d="M1244.711,683.222a7.435,7.435,0,0,1-3.5,4.24c1.247-.7,2.371-4.188,2.371-4.188Z" transform="translate(-1159.69 -629.15)" fill="#ed985f"/>
      <path id="Path_2513" data-name="Path 2513" d="M1243.1,680.974s1.294-.431,1.764.632a5.19,5.19,0,0,1-.048,2.839s-2.27-.125-2.621-1.779Z" transform="translate(-1159.611 -629.339)" fill="#6e1075"/>
      <path id="Path_2514" data-name="Path 2514" d="M1197.469,682.16c0,4.443-3.941,6.845-8.745,7.369l-.1.011q-.448.047-.9.071h0q-.528.027-1.068.028h-.063a15.491,15.491,0,0,1-1.846-.114c-6.855-.834-10.4-6.133-10.4-10.785,0-5.067,6.656-8.667,12.309-7.45C1192.217,672.489,1197.469,677.094,1197.469,682.16Z" transform="translate(-1165.096 -630.134)" fill="#fff" stroke="#03cea4" stroke-width="1"/>
      <g id="Group_1114" data-name="Group 1114" transform="translate(12.378 42.014)">
        <path id="Path_2515" data-name="Path 2515" d="M1187.768,688.284a1.766,1.766,0,0,1-.328-.972h0c.008-.035.017-.1.029-.2.044-.345.123-1.03.255-1.634.017-.077.036-.159.055-.236h0l.039-.143a1.847,1.847,0,0,0,.067-.365,2.194,2.194,0,0,0-.847-1.817,2.222,2.222,0,0,0-.182-.136,1.273,1.273,0,0,0-.467-.21,2.991,2.991,0,0,1-.407-.92c-.047-.149-.093-.293-.13-.415v-.013c-.04-.135-.07-.244-.084-.3h0l-.01-.037-.034.022-.141.089h0l-.341.217-.534.337h0a1.5,1.5,0,0,1,.037.171c.005.03.01.063.014.094.012.092.018.188.023.283h0c0,.07.005.139.005.206a.263.263,0,0,1-.263.262h-.022a6.521,6.521,0,0,0-.8,0c-.323.032-.673.082-1.06.117h-.009a8.811,8.811,0,0,1-1.472.016l.07-3.26s.335-.331.356-.508.032-.936-.109-1.014c-.064-.036-.077.546-.128.577-.143.093-.7.141-.643.712h0c-.191.665-1.12,3.984-.732,4.195h0a3.573,3.573,0,0,0,.343.212l.077.041.044.023.132.064.076.033.1.044.066.027c.051.021.1.04.152.058l.044.016.016.007.051.017h0l.09.029.091.029c.061.019.121.037.183.054l.068.02.038.01.089.023c.066.017.132.034.2.049l.068.015h.007l.089.018.093.019.219.041.19.031.117.017.106.014.1.014.146.018h0l.063.006.083.01.056.005c-.015.041-.029.082-.04.124a1.13,1.13,0,0,0-.029.12h0a1.116,1.116,0,0,0-.015.323,20.629,20.629,0,0,0,1.138,3.1,1.8,1.8,0,0,1,.063.293,4.289,4.289,0,0,1,.008.624,15.512,15.512,0,0,0,1.845.114h.064q.533,0,1.068-.028h0c.3-.017.605-.04.9-.071C1188.037,688.742,1187.893,688.505,1187.768,688.284Z" transform="translate(-1177.027 -671.592)" fill="#ffb27d"/>
        <path id="Path_2516" data-name="Path 2516" d="M1184.955,680.026a.8.8,0,0,1,.469,1.022.773.773,0,0,1-.1.186s.669-.01.811-.222a.493.493,0,0,1-.038.131,1.9,1.9,0,0,0,.826-.44c.2-.272-.939-3.4-2.556-2.517a1.327,1.327,0,0,0-1,1.588,1.311,1.311,0,0,0,.162.4c.653,1.65.1,1.819.1,1.819a.815.815,0,0,0,.251.007s.1-.077.1-.142a.4.4,0,0,1-.011.139,1.64,1.64,0,0,0,.839-.442A1.947,1.947,0,0,0,1184.955,680.026Z" transform="translate(-1176.748 -671.584)" fill="#233862"/>
        <path id="Path_2517" data-name="Path 2517" d="M1184.3,681.042s.09.57.132.956c.771-.247.843-.944.962-1.328Z" transform="translate(-1176.67 -671.37)" fill="#ed985f"/>
        <path id="Path_2518" data-name="Path 2518" d="M1185.389,680.843a3.855,3.855,0,0,0,.354-1.169c.026-.375.245-1.936-1.106-1.593a5.237,5.237,0,0,0-1.3.589c-.278.232-.66.713-.054,1.853l.167.39Z" transform="translate(-1176.778 -671.584)" fill="#233862"/>
        <path id="Path_2519" data-name="Path 2519" d="M1184.2,681.77s1.667-.479,1.352-1.513-.311-1.79-1.389-1.525-1.163.72-1.143,1.091S1183.762,681.869,1184.2,681.77Z" transform="translate(-1176.774 -671.531)" fill="#ffb27d"/>
        <path id="Path_2520" data-name="Path 2520" d="M1183.856,678.816s-.551.548-.553.84.126.839-.037.871c0,0-.594-.72-.352-1.3A.764.764,0,0,1,1183.856,678.816Z" transform="translate(-1176.787 -671.523)" fill="#233862"/>
        <path id="Path_2521" data-name="Path 2521" d="M1184.359,678.185l-.043.013c.051.113-.853.914-.853.914a2.925,2.925,0,0,0,1.714,1.308,4.019,4.019,0,0,1-.95-.643,1.472,1.472,0,0,0,.845.32c.223.011.554.915-.071,1.14,0,0,.832.088,1.126-.223a.558.558,0,0,1-.039.132,1.908,1.908,0,0,0,.827-.44C1187.112,680.432,1185.972,677.3,1184.359,678.185Z" transform="translate(-1176.738 -671.584)" fill="#233862"/>
        <path id="Path_2522" data-name="Path 2522" d="M1183.611,684.007a8.543,8.543,0,0,1-3.3-.793l-.344-.212h0c.021.008.122.048.283.1a4.687,4.687,0,0,0,3.1.157C1184.031,682.923,1183.88,683.458,1183.611,684.007Z" transform="translate(-1177.02 -671.182)" fill="#ed985f"/>
        <path id="Path_2523" data-name="Path 2523" d="M1187.755,688.3q-.446.047-.9.071h0c-.373.021-.749.029-1.128.028h0a10.052,10.052,0,0,1-.487-1.163c-.076-.22-.114-.356-.114-.356a4.091,4.091,0,0,1,1.657-.447c.09,0,.177-.005.265,0-.012.093-.021.161-.029.2h0a1.757,1.757,0,0,0,.329.971C1187.468,687.818,1187.612,688.053,1187.755,688.3Z" transform="translate(-1176.604 -670.905)" fill="#ed985f"/>
        <path id="Path_2524" data-name="Path 2524" d="M1187.752,683.491a3.514,3.514,0,0,0-1.569-1.259c-.345,1.1-1.826,1.707-1.826,1.707a2.291,2.291,0,0,1-.062-1.707h0a2.807,2.807,0,0,0-1.135-.021c-.57.122-.732.137-.732.137s-.094,1.449.514,1.818a1.358,1.358,0,0,0-.058.205c-.161.826,1.107,4.242,1.107,4.242,2.09.115,3.543.068,3.543.068s.218-3.112.324-4.195A1.825,1.825,0,0,0,1187.752,683.491Z" transform="translate(-1176.822 -671.25)" fill="#6e1075"/>
        <g id="Group_1111" data-name="Group 1111" transform="translate(5.294)">
          <path id="Path_2525" data-name="Path 2525" d="M1182.139,679.087h0l1.714-4.929,1.081,1.363,1.8-3.456h0l-1.721,5.234-1.144-1.4Z" transform="translate(-1182.139 -672.066)" fill="#f99746"/>
        </g>
        <g id="Group_1112" data-name="Group 1112" transform="translate(0 3.949)">
          <path id="Path_2526" data-name="Path 2526" d="M1179.219,680.7h0l-1.942-2.711,1.109-.063-1.145-2.211h0l2.1,2.825-1.153.081Z" transform="translate(-1177.241 -675.72)" fill="#f99746"/>
        </g>
        <g id="Group_1113" data-name="Group 1113" transform="translate(11.607 6.308)">
          <path id="Path_2527" data-name="Path 2527" d="M1187.98,681.2h0l2.06-2.624.371,1.047,1.8-1.718h0l-2.124,2.808-.4-1.084Z" transform="translate(-1187.98 -677.902)" fill="#f99746"/>
        </g>
        <path id="Path_2528" data-name="Path 2528" d="M1189.69,686.342h0a10.75,10.75,0,0,0-2.583-3.987c-.869-.183-1.125.394-1.332,1.236-.054.218,1.818,1.78,2.6,2.637h0l-1.081,1.7-.492.772q.5-.026,1-.08h0C1188.693,687.7,1189.837,686.467,1189.69,686.342Z" transform="translate(-1176.551 -671.237)" fill="#ffb27d"/>
        <path id="Path_2529" data-name="Path 2529" d="M1185.937,682.229a2.306,2.306,0,0,1,1.172.138,9.32,9.32,0,0,1,1.312,1.324s-.583,1.406-1.647,1.284c0,0-1.639-1.647-1.245-2.043A1.206,1.206,0,0,0,1185.937,682.229Z" transform="translate(-1176.576 -671.246)" fill="#6e1075"/>
      </g>
    </g>
  </g>
</svg>
