<svg xmlns="http://www.w3.org/2000/svg" width="137.627" height="147.387" viewBox="0 0 137.627 147.387">
  <g id="Group_3152" data-name="Group 3152" transform="translate(-1702.749 -636.894)">
    <g id="Group_2089" data-name="Group 2089" transform="translate(1703.267 637.395)">
      <path id="Path_311-5" data-name="Path 311-5" d="M1650.585,737.239c2.181-7.515,9.665-12.026,9.187-20.739-.222-4.013-2.127-7.2-3.413-10.805-3.026-8.477-5.579-21.818-.942-30.144,5.943-10.656,19.859-9.457,28.638-14.318,4.76-2.636,8.627-7.082,12.219-11.63,2.61-3.308,5.168-6.762,8.362-9.243a18.635,18.635,0,0,1,22.3-.513c6.828,4.863,11.222,13.463,20.111,11.592,3.687-.776,7.44-2.456,11.17-1.252a16.116,16.116,0,0,1,8.995,8.184c5.4,10.735-3.4,22.084.277,33.17,2.744,8.266,10.654,11.362,15.064,18.041,3.551,5.377,4.39,12.218,3.3,18.8-2.194,13.264-3.947,27.375-8.135,39.988-4.592,13.849-18.31,13.978-29.023,13.993-16.276.024-33.14,1.519-49.284-.8-12.6-1.81-27.263-6.1-37.725-15.024C1654.134,760.1,1647.252,748.726,1650.585,737.239Z" transform="translate(-1649.723 -636.393)" fill="#fff" stroke="#fb4f3f" stroke-width="1"/>
    </g>
    <rect id="Rectangle_1339" data-name="Rectangle 1339" width="92.824" height="29.666" rx="13.281" transform="translate(1725.278 743.619)" fill="#fb4f3f"/>
    <g id="Layer_3" data-name="Layer 3" transform="translate(1706.015 650.353)">
      <g id="Group_2502" data-name="Group 2502" transform="translate(10.332 5.987)">
        <path id="Path_8565" data-name="Path 8565" d="M1764.857,707.379a36.315,36.315,0,0,1-9.3,10.391,44.669,44.669,0,0,1-4.519,3.064c-.156.094-.313.186-.471.277a54.753,54.753,0,0,1-8.1,3.824q-.446.17-.9.333c-.23.083-.46.165-.692.244l-.064.022q-1.474.512-2.988.955c-.331.1-.66.192-.993.283-.6.168-1.213.328-1.824.478q-.488.123-.977.235a74.7,74.7,0,0,1-7.417,1.334c-27.232,3.515-58.453-7-64.281-30.773-1.736-7.077,1.194-11.406,5.29-14.137a26.759,26.759,0,0,1,6.549-3.032c.094-.032.19-.063.284-.092l.011,0c1.872-.592,3.622-1,4.976-1.316,0,0,.068-.16.212-.452a46.286,46.286,0,0,1,39.838-25.068c16.97-.63,17.925,11.742,24.6,17.215h0a11.069,11.069,0,0,0,6.924,2.526h0c.121.005.246.008.37.009h0c.164,0,.331,0,.5,0,.083,0,.171,0,.255-.008.029,0,.056,0,.085,0h.005c.122,0,.243-.011.368-.017h0c.081,0,.165-.011.246-.016.219-.017.444-.037.672-.062h0c.02,0,.04,0,.06-.005.179-.021.356-.037.531-.053h0c.357-.029.707-.047,1.053-.058h0a15.721,15.721,0,0,1,5.4.739C1770.87,677.6,1773.822,692.049,1764.857,707.379Z" transform="translate(-1661.824 -653.922)" fill="#dbedf3"/>
      </g>
      <g id="Group_2505" data-name="Group 2505" transform="translate(67.767 61.367)">
        <g id="Group_2503" data-name="Group 2503" transform="translate(0 11.117)">
          <path id="Path_8566" data-name="Path 8566" d="M1736.265,720.937q-.59.175-1.186.337-1.08.3-2.177.571-.58.146-1.165.281a89.21,89.21,0,0,1-8.85,1.592,13.162,13.162,0,0,1-7.925-6.39,14.437,14.437,0,0,1,3.9-1.312l.006.011a.964.964,0,0,0,.867.525.976.976,0,0,0,.973-.793,11.345,11.345,0,0,1,5.124-.043A26.641,26.641,0,0,1,1736.265,720.937Z" transform="translate(-1714.963 -715.444)" fill="#009e9d"/>
          <path id="Path_8567" data-name="Path 8567" d="M1719.877,718.1c-.592-.136-1.109-.256-1.23-.295a.324.324,0,0,0-.406.485c.091.119.091.119,1.492.441,2.3.532,7.257,1.673,11.746,3.208q.584-.136,1.165-.281A117.372,117.372,0,0,0,1719.877,718.1Z" transform="translate(-1714.703 -715.256)" fill="#fff"/>
        </g>
        <g id="Group_2504" data-name="Group 2504" transform="translate(6.153)">
          <path id="Path_8568" data-name="Path 8568" d="M1740.272,720.311c-.276.1-.55.2-.827.292.017.009.032.019.05.028-.043,0-.084,0-.125,0l-.011,0c-.32.11-.642.218-.964.326q-1.281.425-2.59.808-.59.175-1.186.337a25.138,25.138,0,0,1-9.25-5.559,15.814,15.814,0,0,1-4.713-11.381,19.785,19.785,0,0,1,5.588.739l.032,1.118a.962.962,0,0,0,1.725.556l.666-.875a21.651,21.651,0,0,1,10.156,8.217,26.512,26.512,0,0,1,2.411,4.471l.11.523C1740.99,720.05,1740.631,720.182,1740.272,720.311Z" transform="translate(-1720.656 -705.159)" fill="#00c0bf"/>
          <path id="Path_8569" data-name="Path 8569" d="M1738.325,719.148a82.952,82.952,0,0,1-15.1-11.808.325.325,0,0,0-.605.216c.093.456,7.771,7.737,15.65,12.31q.509.3,1.018.575c.277-.1.551-.192.827-.292Q1739.214,719.672,1738.325,719.148Z" transform="translate(-1720.498 -704.997)" fill="#fff"/>
        </g>
      </g>
      <g id="Group_2508" data-name="Group 2508" transform="translate(5.727 28.162)">
        <path id="Path_8570" data-name="Path 8570" d="M1752.55,674.438a2.026,2.026,0,1,0,2.026,2.026A2.029,2.029,0,0,0,1752.55,674.438Zm0,3.4a1.377,1.377,0,1,1,1.377-1.377A1.379,1.379,0,0,1,1752.55,677.84Z" transform="translate(-1650.049 -674.438)" fill="#fff"/>
        <g id="Group_2506" data-name="Group 2506" transform="translate(110.203 8.046)">
          <path id="Path_8571" data-name="Path 8571" d="M1761.073,685.18a.325.325,0,0,1-.324-.324v-2.649a.324.324,0,1,1,.648,0v2.649A.325.325,0,0,1,1761.073,685.18Z" transform="translate(-1759.425 -681.882)" fill="#fff"/>
          <path id="Path_8572" data-name="Path 8572" d="M1762.5,683.755h-2.649a.324.324,0,0,1,0-.648h2.649a.324.324,0,0,1,0,.648Z" transform="translate(-1759.524 -681.783)" fill="#fff"/>
        </g>
        <path id="Path_8573" data-name="Path 8573" d="M1671.872,690.825a2.026,2.026,0,1,0-2.2,3.028,1.992,1.992,0,0,0,.478.056,2.025,2.025,0,0,0,1.723-3.084Zm-.389,1.38a1.377,1.377,0,1,1-.164-1.041A1.37,1.37,0,0,1,1671.482,692.206Z" transform="translate(-1656.711 -673.191)" fill="#fff"/>
        <g id="Group_2507" data-name="Group 2507" transform="translate(0 15.585)">
          <path id="Path_8574" data-name="Path 8574" d="M1659.678,691.764a.324.324,0,0,1-.277-.155l-1.385-2.259a.325.325,0,0,1,.554-.339l1.383,2.259a.324.324,0,0,1-.276.494Z" transform="translate(-1657.532 -688.857)" fill="#fff"/>
          <path id="Path_8575" data-name="Path 8575" d="M1657.889,691.294a.324.324,0,0,1-.17-.6l2.259-1.383a.324.324,0,0,1,.338.553l-2.259,1.383A.322.322,0,0,1,1657.889,691.294Z" transform="translate(-1657.564 -688.824)" fill="#fff"/>
        </g>
      </g>
      <g id="Group_2510" data-name="Group 2510" transform="translate(0 16.428)">
        <path id="Path_8576" data-name="Path 8576" d="M1673.485,675.518s5.591-1.444,6.375-1.106,2.034,5.567,1.655,5.7-2.181-1.671-2.181-1.671-.444.891-1.144.594a4.694,4.694,0,0,1-1.458-1.534.651.651,0,0,1-.917.351c-.719-.256-1.669-1.642-1.669-1.642Z" transform="translate(-1650.55 -662.71)" fill="#fff"/>
        <path id="Path_8577" data-name="Path 8577" d="M1661.194,668.9s-2.932-4.975-3.726-5.291-5.375,2.5-5.2,2.859,2.724.36,2.724.36-.316.944.388,1.229A4.691,4.691,0,0,0,1657.5,668a.651.651,0,0,0,.4.9,5.465,5.465,0,0,0,2.341.019Z" transform="translate(-1652.265 -663.581)" fill="#dbedf3"/>
        <g id="Group_2509" data-name="Group 2509" transform="translate(5.219 0.403)">
          <path id="Path_8578" data-name="Path 8578" d="M1677.871,672.251l-4.728,9.473a.57.57,0,0,1-.764.255l-14.971-7.472a.569.569,0,0,1-.254-.764l4.728-9.471a.543.543,0,0,1,.125-.165.566.566,0,0,1,.638-.091l14.971,7.472a.568.568,0,0,1,.311.565A.557.557,0,0,1,1677.871,672.251Z" transform="translate(-1657.094 -663.955)" fill="#ffb31a"/>
          <path id="Path_8579" data-name="Path 8579" d="M1657.87,673.245l8.85-.821a1.192,1.192,0,0,1,1.119.553l4.776,7.628-4.389-8.068a1.191,1.191,0,0,0-1.27-.633Z" transform="translate(-1657.031 -663.313)" fill="#ef9127"/>
          <path id="Path_8580" data-name="Path 8580" d="M1677.535,672.106l-10.832,1.781-5.089-9.727a.578.578,0,0,1,.666-.147l14.971,7.472A.581.581,0,0,1,1677.535,672.106Z" transform="translate(-1656.729 -663.954)" fill="#ffb31a"/>
          <path id="Path_8581" data-name="Path 8581" d="M1661.906,664.7l4.427,8.422a1.045,1.045,0,0,0,1.113.562l9.322-1.481-9.484,2.14a1.054,1.054,0,0,1-1.269-.633Z" transform="translate(-1656.705 -663.894)" fill="#ef9127"/>
        </g>
      </g>
      <g id="Group_2512" data-name="Group 2512" transform="translate(90.525 6.251)">
        <path id="Path_8582" data-name="Path 8582" d="M1757.886,659.646s3.125-4.856,3.93-5.141,5.273,2.707,5.082,3.06-2.736.253-2.736.253.278.956-.437,1.213a4.69,4.69,0,0,1-2.111-.136.651.651,0,0,1-.436.88,5.461,5.461,0,0,1-2.339-.071Z" transform="translate(-1734.25 -654.14)" fill="#dbedf3"/>
        <path id="Path_8583" data-name="Path 8583" d="M1744.282,663.071s-5.531-1.662-6.327-1.355-2.249,5.484-1.876,5.627,2.245-1.583,2.245-1.583.41.907,1.12.638a4.692,4.692,0,0,0,1.517-1.475.65.65,0,0,0,.9.387c.729-.227,1.733-1.575,1.733-1.575Z" transform="translate(-1736.018 -653.558)" fill="#fff"/>
        <g id="Group_2511" data-name="Group 2511" transform="translate(5.914)">
          <path id="Path_8584" data-name="Path 8584" d="M1758.669,654.576l2.959,10.165a.568.568,0,0,1-.387.706l-16.065,4.677a.569.569,0,0,1-.706-.388l-2.959-10.164a.559.559,0,0,1-.02-.206.566.566,0,0,1,.406-.5l16.065-4.677a.569.569,0,0,1,.613.2A.546.546,0,0,1,1758.669,654.576Z" transform="translate(-1741.49 -654.166)" fill="#ffb31a"/>
          <path id="Path_8585" data-name="Path 8585" d="M1744.867,668.75l5.94-6.612a1.19,1.19,0,0,1,1.2-.353l8.686,2.358-8.7-2.944a1.192,1.192,0,0,0-1.363.4Z" transform="translate(-1741.217 -653.603)" fill="#ef9127"/>
          <path id="Path_8586" data-name="Path 8586" d="M1758.592,654.451l-6.744,8.661-10.339-3.687a.576.576,0,0,1,.389-.56l16.065-4.677A.579.579,0,0,1,1758.592,654.451Z" transform="translate(-1741.488 -654.166)" fill="#ffb31a"/>
          <path id="Path_8587" data-name="Path 8587" d="M1742.1,659.586l8.969,3.179a1.043,1.043,0,0,0,1.2-.344l5.84-7.416-5.511,8.01a1.053,1.053,0,0,1-1.362.4Z" transform="translate(-1741.44 -654.098)" fill="#ef9127"/>
        </g>
      </g>
      <g id="Group_2514" data-name="Group 2514" transform="translate(21.893 58.92)">
        <path id="Path_8588" data-name="Path 8588" d="M1688.486,711.134s4.073-1.26,4.663-1.038,1.694,4.034,1.418,4.142-1.667-1.157-1.667-1.157-.3.672-.821.479a3.472,3.472,0,0,1-1.13-1.08.479.479,0,0,1-.663.291c-.539-.164-1.288-1.152-1.288-1.152Z" transform="translate(-1671.23 -702.315)" fill="#fff"/>
        <path id="Path_8589" data-name="Path 8589" d="M1679.19,706.678s-2.336-3.566-2.932-3.77-3.876,2.03-3.732,2.288,2.02.172,2.02.172-.2.706.33.892a3.457,3.457,0,0,0,1.558-.113.481.481,0,0,0,.326.647,4.029,4.029,0,0,0,1.726-.068Z" transform="translate(-1672.521 -702.895)" fill="#fff"/>
        <g id="Group_2513" data-name="Group 2513" transform="translate(4.112 0.106)">
          <path id="Path_8590" data-name="Path 8590" d="M1691.583,708.569l-3.155,7.149a.42.42,0,0,1-.554.215l-11.3-4.986a.42.42,0,0,1-.214-.554l3.155-7.149a.406.406,0,0,1,.087-.125.416.416,0,0,1,.467-.09l11.3,4.986a.419.419,0,0,1,.25.405A.424.424,0,0,1,1691.583,708.569Z" transform="translate(-1676.326 -702.993)" fill="#ffb31a"/>
          <path id="Path_8591" data-name="Path 8591" d="M1676.9,710.011l6.5-.915a.878.878,0,0,1,.843.37l3.788,5.456-3.518-5.794a.879.879,0,0,0-.958-.423Z" transform="translate(-1676.28 -702.533)" fill="#ef9127"/>
          <path id="Path_8592" data-name="Path 8592" d="M1691.356,708.462l-7.924,1.692-4.091-6.993a.426.426,0,0,1,.485-.132l11.3,4.986A.428.428,0,0,1,1691.356,708.462Z" transform="translate(-1676.082 -702.992)" fill="#ffb31a"/>
          <path id="Path_8593" data-name="Path 8593" d="M1679.575,703.549l3.558,6.055a.771.771,0,0,0,.841.375l6.821-1.417-6.917,1.909a.776.776,0,0,1-.958-.423Z" transform="translate(-1676.063 -702.948)" fill="#ef9127"/>
        </g>
      </g>
      <g id="Group_2515" data-name="Group 2515" transform="translate(33.931)">
        <path id="Path_8594" data-name="Path 8594" d="M1684.429,667.543l25.063-18.595a2.88,2.88,0,0,1,3.447.013l24.682,18.582Z" transform="translate(-1683.596 -648.382)" fill="#ffd100"/>
        <rect id="Rectangle_1375" data-name="Rectangle 1375" width="54.857" height="35.994" rx="8.083" transform="translate(0 18.919)" fill="#ffb31a"/>
        <path id="Path_8595" data-name="Path 8595" d="M1735.864,668.088l-5.764,4.463-.076.058-4.677,3.62-3.378,2.615-7.033,5.444-1.354,1.048-.752-.458a3.652,3.652,0,0,0-3.83.013l-.748.465-1.185-.912-7.275-5.6-3.4-2.615-4.7-3.62-.86-.661-5.014-3.86Z" transform="translate(-1683.484 -646.789)" fill="#fff"/>
        <path id="Path_8596" data-name="Path 8596" d="M1736.407,698.208l-22.824-13.944-.752-.458a3.652,3.652,0,0,0-3.83.013l-.748.465-22.432,13.925,21.247-14.837,1.868-1.3a3.646,3.646,0,0,1,4.355,0l1.646,1.149Z" transform="translate(-1683.484 -645.717)" fill="#ef9127"/>
        <rect id="Rectangle_1376" data-name="Rectangle 1376" width="50.044" height="16.296" transform="translate(2.336 5.005)" fill="#fff"/>
        <rect id="Rectangle_1377" data-name="Rectangle 1377" width="39.266" height="2.613" transform="translate(7.35 10.744)" fill="#dbedf3"/>
        <rect id="Rectangle_1378" data-name="Rectangle 1378" width="39.266" height="2.613" transform="translate(7.35 16.976)" fill="#dbedf3"/>
        <path id="Path_8597" data-name="Path 8597" d="M1729.725,669.855v2.554l-.076.058H1691.32l-.86-.662v-1.95Z" transform="translate(-1683.109 -646.646)" fill="#dbedf3"/>
        <path id="Path_8598" data-name="Path 8598" d="M1724.557,675.62l-3.377,2.614H1699l-3.4-2.614Z" transform="translate(-1682.693 -646.18)" fill="#dbedf3"/>
      </g>
      <g id="Group_2516" data-name="Group 2516" transform="translate(75.718 43.315)">
        <path id="Path_8602" data-name="Path 8602" d="M1743.792,692.838c-.136.245-.325.384-.424.307s-.068-.336.068-.583.325-.383.424-.307S1743.928,692.593,1743.792,692.838Z" transform="translate(-1720.623 -688.151)" fill="#323854"/>
        <path id="Path_8603" data-name="Path 8603" d="M1745.29,693.6c-.169.258-.4.4-.526.322s-.084-.353.084-.612.405-.4.527-.322S1745.458,693.341,1745.29,693.6Z" transform="translate(-1720.511 -688.092)" fill="#323854"/>
        <path id="Path_8604" data-name="Path 8604" d="M1743.006,695.195c.064.026,2.133.98,2.133.98s-2.174,2.661-2.069-.954Z" transform="translate(-1720.647 -687.912)" fill="#fff"/>
        <path id="Path_8605" data-name="Path 8605" d="M1743.812,702.417s-6.862-.738-7.685-1.925-7.148-9.678-7.148-9.678l-2.471,2,8.2,10.6c3.058,3.862,9.291,3.847,9.631,3.734S1743.812,702.417,1743.812,702.417Z" transform="translate(-1721.981 -688.266)" fill="#fb4f3f"/>
        <path id="Path_8606" data-name="Path 8606" d="M1726.848,693.006l-4.374-3.239c-.2-.147-.206-.422-.018-.486a6.894,6.894,0,0,1,2.461-.309c.479.115,2.439.831,2.439.831l-.272-.888a.324.324,0,0,1,.248-.452h0a.905.905,0,0,1,.815.408l1.173,2.135Z" transform="translate(-1722.32 -688.457)" fill="#f7bfa3"/>
        <path id="Path_8607" data-name="Path 8607" d="M1747.148,697.042s.719.3.739-.237c.011-.3-.38-.4-.38-.4s1.295-.669,1.585.1S1748.28,698.19,1747.148,697.042Z" transform="translate(-1720.312 -687.835)" fill="#ff8860"/>
      </g>
      <g id="Layer_1" data-name="Layer 1" transform="translate(88.028 32.095)">
        <path id="Path_2384" data-name="Path 2384" d="M1759.945,697.819c-.207-1.17-.44-2.355-.757-3.519a3.559,3.559,0,0,1,.362-2.546,9.731,9.731,0,0,0,.093-6.917c-.784-2.15-1.443-3.029-3.953-4.386-5.538-3-15.724-2.907-18.889,1.533-1.412,1.981-.673,4.441-.656,6.68a14.155,14.155,0,0,1-1.414,6.422c-.792,1.577-1.588,3.317.591,4.747a3.077,3.077,0,0,0,3.009.544c.55,1.707,3.2,1.033,4.346.337a6.054,6.054,0,0,0,2.472,1.636c1.141.278,1.809-.369,2.6-.251.814.122,1.259.882,2.319.926a7.237,7.237,0,0,0,2.572-.813c1.093,1.382,3.4,1.02,4.494.111C1760.412,703.349,1760.447,700.663,1759.945,697.819Z" transform="translate(-1733.692 -678.05)" fill="#b56e51"/>
        <g id="Group_1096" data-name="Group 1096" transform="translate(0 13.01)">
          <path id="Path_2385" data-name="Path 2385" d="M1734.191,690.7c1.12-1.229,2.546-.346,3.136.88.439.918.423,2.758-.833,3.025a2.627,2.627,0,0,1-2.267-1.088A2.23,2.23,0,0,1,1734.191,690.7Z" transform="translate(-1733.708 -690.113)" fill="#fac5ab"/>
          <path id="Path_2386" data-name="Path 2386" d="M1758.129,694.607c-.671-1.521-2.308-1.139-3.255-.164-.708.727-1.279,2.481-.173,3.131a2.63,2.63,0,0,0,2.495-.308A2.234,2.234,0,0,0,1758.129,694.607Z" transform="translate(-1732.061 -689.832)" fill="#fac5ab"/>
        </g>
        <path id="Path_2387" data-name="Path 2387" d="M1758.639,685.314c-.854-2.625-4.1-3.513-6.492-4.134-3.876-1.01-7.515-1.872-11.482-.474-4.756,1.674-3.7,8.877-4.346,12.81-.592,3.647,2.071,5.267,4.361,6.14s3.795,1.488,3.533,2.32-1.28,3.1.6,3.412l.056.009.055.01c1.884.308,1.724-2.192,1.591-3.1-.128-.861,1.666-.927,4.114-1.023,2.258-.091,4.973-.934,5.868-3.262a17.784,17.784,0,0,0,.82-3.254c.56-2.724,2.077-6.4,1.4-9.162C1758.7,685.507,1758.669,685.408,1758.639,685.314Z" transform="translate(-1733.504 -677.922)" fill="#f7bfa3"/>
        <path id="Path_2388" data-name="Path 2388" d="M1746.192,694.474a1.143,1.143,0,0,1-.5.069,1.232,1.232,0,0,1-.5-.218c-.2-.12-.455-.293-.237-.544.128-.149.328-.078.478-.011a1.308,1.308,0,0,0,.561.157,3.547,3.547,0,0,1,.562-.09c.239.024.222.347.078.472a1.21,1.21,0,0,1-.432.16Z" transform="translate(-1732.805 -676.813)" fill="#e8ad97"/>
        <g id="Group_1097" data-name="Group 1097" transform="translate(3.662 14.372)" opacity="0.5">
          <path id="Path_2389" data-name="Path 2389" d="M1741.993,694.156c.316-.809-.409-1.847-1.619-2.321s-2.446-.2-2.765.609.409,1.848,1.619,2.321S1741.676,694.964,1741.993,694.156Z" transform="translate(-1737.061 -691.354)" fill="#ee8686" opacity="0.5" style="isolation: isolate"/>
          <ellipse id="Ellipse_74" data-name="Ellipse 74" cx="1.166" cy="2.353" rx="1.166" ry="2.353" transform="matrix(0.363, -0.932, 0.932, 0.363, 0.353, 2.265)" fill="#ee8686" opacity="0.5" style="isolation: isolate"/>
          <path id="Path_2390" data-name="Path 2390" d="M1741.907,694.127c.339-.873-.442-1.994-1.748-2.5s-2.643-.217-2.983.656.442,1.994,1.748,2.5S1741.565,695,1741.907,694.127Z" transform="translate(-1737.097 -691.373)" fill="#fdc6a2" opacity="0.5" style="isolation: isolate"/>
          <path id="Path_2391" data-name="Path 2391" d="M1742.533,694.358c.316-.81-.627-1.933-2.105-2.511s-2.935-.39-3.248.419.627,1.934,2.105,2.511S1742.219,695.17,1742.533,694.358Z" transform="translate(-1737.095 -691.362)" fill="#ee8686" opacity="0.5" style="isolation: isolate"/>
        </g>
        <g id="Group_1098" data-name="Group 1098" transform="translate(17.218 16.845)" opacity="0.5">
          <path id="Path_2392" data-name="Path 2392" d="M1750.143,695.478c-.042-.868.978-1.621,2.274-1.684s2.383.589,2.424,1.457-.978,1.62-2.273,1.684S1750.184,696.345,1750.143,695.478Z" transform="translate(-1749.597 -693.65)" fill="#ee8686" opacity="0.5" style="isolation: isolate"/>
          <path id="Path_2393" data-name="Path 2393" d="M1749.915,695.458c-.03-.643,1-1.215,2.3-1.276s2.375.407,2.406,1.051-1,1.215-2.295,1.276S1749.947,696.1,1749.915,695.458Z" transform="translate(-1749.616 -693.619)" fill="#ee8686" opacity="0.5" style="isolation: isolate"/>
          <path id="Path_2394" data-name="Path 2394" d="M1750.263,695.482c-.047-.937,1.054-1.75,2.454-1.817s2.572.636,2.617,1.573-1.054,1.749-2.454,1.816S1750.307,696.417,1750.263,695.482Z" transform="translate(-1749.588 -693.661)" fill="#fdc6a2" opacity="0.5" style="isolation: isolate"/>
          <path id="Path_2395" data-name="Path 2395" d="M1749.639,695.5c-.041-.867,1.209-1.632,2.8-1.709s2.905.566,2.948,1.432-1.209,1.632-2.8,1.709S1749.681,696.371,1749.639,695.5Z" transform="translate(-1749.638 -693.65)" fill="#ee8686" opacity="0.5" style="isolation: isolate"/>
        </g>
        <path id="Path_2396" data-name="Path 2396" d="M1740.33,692.67c.866.316,1.419-1.259.648-1.671C1739.945,690.445,1739.472,692.357,1740.33,692.67Z" transform="translate(-1733.209 -677.039)" fill="#7a354f"/>
        <path id="Path_2397" data-name="Path 2397" d="M1751.139,694.447c.9.211,1.258-1.419.444-1.737C1750.49,692.284,1750.249,694.239,1751.139,694.447Z" transform="translate(-1732.343 -676.898)" fill="#7a354f"/>
        <path id="Path_2398" data-name="Path 2398" d="M1743.047,694.267a2.442,2.442,0,0,0,1.425,1.616,3.818,3.818,0,0,0,3.048.135" transform="translate(-1732.953 -676.767)" fill="none" stroke="#d3697d" stroke-miterlimit="10" stroke-width="0.46"/>
        <path id="Path_2399" data-name="Path 2399" d="M1740.279,688.136a28.211,28.211,0,0,1,9.677-1c2.459.17,4.37.072,5.148-1.213-.883,1.44.249,3.557.855,4.845.927,1.973.624,3.117.719,5.189.128-.195.376-.413.511-.638-.066.251-.084.559-.158.8,1.418-3.075,2.512-5.458,2.355-8.958-.332-7.313-9.6-8.646-15.316-8.19A9.29,9.29,0,0,0,1736.2,691.2c.936-.694,1.339-2.125,2.495-2.639A13.6,13.6,0,0,1,1740.279,688.136Z" transform="translate(-1733.547 -678.009)" fill="#b56e51"/>
        <g id="Group_1099" data-name="Group 1099" transform="translate(7.138 10.363)">
          <path id="Path_2400" data-name="Path 2400" d="M1742.452,688.284a1.181,1.181,0,0,0-1.24-.6,1.081,1.081,0,0,0-.9.928c-.006.075.043.3.14.151.242-.371.415-.622.9-.653a1.39,1.39,0,0,1,1.028.4c.076.068.1-.172.076-.221Z" transform="translate(-1740.312 -687.664)" fill="#d39080"/>
        </g>
        <g id="Group_1100" data-name="Group 1100" transform="translate(18.755 11.152)">
          <path id="Path_2401" data-name="Path 2401" d="M1751.121,688.921a1.5,1.5,0,0,1,1.03-.071c.467.122.6.475.7.9.036.147.141.1.171-.025a1.15,1.15,0,0,0-1.924-1.03c-.042.038-.073.272.02.231Z" transform="translate(-1751.061 -688.394)" fill="#d39080"/>
        </g>
        <path id="Path_2415" data-name="Path 2415" d="M1736.173,690.811s-2.464-7.656,4.505-10.49,13.334-.025,15.319,1.935,3.954,5.526.966,13.145c0,0,4.955-6.475.66-12.321s-12.4-5.794-17.516-3.754S1734.326,687.409,1736.173,690.811Z" transform="translate(-1733.585 -678.076)" fill="#f54c8d"/>
        <path id="Path_2416" data-name="Path 2416" d="M1753.6,680.775c1.14-.419,2.746,1.93,2.917,2.43.933-.429,1.208-3.392.568-3.247A26.228,26.228,0,0,0,1753.6,680.775Z" transform="translate(-1732.1 -677.924)" fill="#ffa4d2"/>
        <path id="Path_2417" data-name="Path 2417" d="M1758.721,686.833c.395-1.147-1.778-2.685-2.24-2.842.4-.94,3.153-1.294,3.017-.654A28.424,28.424,0,0,1,1758.721,686.833Z" transform="translate(-1731.867 -677.677)" fill="#ffa4d2"/>
        <path id="Path_2418" data-name="Path 2418" d="M1756.145,682.008c-.708.233-1.166.678-.941,1.436a5.668,5.668,0,0,0,1.178,1.532c.723-.217,1.841-.387,1.513-1.378C1757.627,682.8,1757,681.669,1756.145,682.008Z" transform="translate(-1731.975 -677.763)" fill="#ef94bf"/>
      </g>
      <path id="Path_8608" data-name="Path 8608" d="M1753.678,710.207a.168.168,0,0,1-.046.206,45.111,45.111,0,0,1-4.094,3.325c-.146.093-.173.229-.32.319-2.369,1.454-6.075,3.838-7.355,4.477-.268.134-1,.532-1.279.64a7.05,7.05,0,0,0-.64.32h0a7.849,7.849,0,0,1,.165-4.358c.585-1.829.454-3.857.517-6.058a22.388,22.388,0,0,0,.49-3.893l-.9-2.238c.122-.853.98-1.408,1.67-1.722a5.977,5.977,0,0,1,.88-.32.138.138,0,0,1,.037,0h.3a.158.158,0,0,1,.154.143c.066.522.437,2.176,2.7.142l.027.008,1.947.466a2.33,2.33,0,0,1,1.358.937c.076.109.29.438.59.918C1750.78,704.937,1752.45,707.716,1753.678,710.207Z" transform="translate(-1645.195 -644.136)" fill="#fb4f3f"/>
      <path id="Path_8609" data-name="Path 8609" d="M1746.82,706.21a.288.288,0,0,1-.261-.3c-.032-2.578.9-3.346.934-3.378a.237.237,0,0,1,.362.084.346.346,0,0,1-.067.426c-.02.017-.735.671-.707,2.859a.29.29,0,0,1-.257.313Z" transform="translate(-1644.642 -644.009)" fill="#c1541e" opacity="0.37"/>
      <path id="Path_8610" data-name="Path 8610" d="M1748.662,713.345c-.118.089-.238.175-.357.26-.81-2.39-1.719-5.086-1.719-6.859a.211.211,0,1,1,.412,0C1747,708.4,1747.873,711.013,1748.662,713.345Z" transform="translate(-1644.639 -643.684)" fill="#c1541e" opacity="0.39"/>
      <g id="Group_2517" data-name="Group 2517" transform="translate(51.88 45.232)">
        <circle id="Ellipse_405" data-name="Ellipse 405" cx="8.029" cy="8.029" r="8.029" transform="translate(0 15.613) rotate(-76.499)" fill="#f54c8d"/>
      </g>
    </g>
    <text id="الرسائل" transform="translate(1746.466 764)" fill="#fff" font-size="17" font-family="SegoeUI-Light, Segoe UI" font-weight="300"><tspan x="0" y="0">الرسائل</tspan></text>
  </g>
</svg>
