<svg xmlns="http://www.w3.org/2000/svg" xmlns:xlink="http://www.w3.org/1999/xlink" width="137.626" height="158.454" viewBox="0 0 137.626 158.454">
  <defs>
    <linearGradient id="linear-gradient" x1="-144.047" y1="41.561" x2="-143.921" y2="41.561" gradientUnits="objectBoundingBox">
      <stop offset="0" stop-opacity="0.035"/>
      <stop offset="0.012" stop-color="#050505" stop-opacity="0.039"/>
      <stop offset="0.176" stop-color="#464646" stop-opacity="0.118"/>
      <stop offset="0.338" stop-color="#7e7e7e" stop-opacity="0.184"/>
      <stop offset="0.493" stop-color="#acacac" stop-opacity="0.239"/>
      <stop offset="0.64" stop-color="#d0d0d0" stop-opacity="0.282"/>
      <stop offset="0.777" stop-color="#eaeaea" stop-opacity="0.314"/>
      <stop offset="0.901" stop-color="#f9f9f9" stop-opacity="0.333"/>
      <stop offset="1" stop-color="#fff" stop-opacity="0.341"/>
    </linearGradient>
    <linearGradient id="linear-gradient-2" x1="-86.343" y1="12.704" x2="-86.266" y2="12.704" gradientUnits="objectBoundingBox">
      <stop offset="0" stop-opacity="0.035"/>
      <stop offset="0.124" stop-color="#323232" stop-opacity="0.055"/>
      <stop offset="0.377" stop-color="#8a8a8a" stop-opacity="0.09"/>
      <stop offset="0.614" stop-color="#cacaca" stop-opacity="0.114"/>
      <stop offset="0.829" stop-color="#f1f1f1" stop-opacity="0.129"/>
      <stop offset="1" stop-color="#fff" stop-opacity="0.137"/>
    </linearGradient>
    <linearGradient id="linear-gradient-3" x1="-383.928" y1="16.382" x2="-383.582" y2="16.382" gradientUnits="objectBoundingBox">
      <stop offset="0" stop-opacity="0.035"/>
      <stop offset="0.241" stop-color="#5b5b5b" stop-opacity="0.059"/>
      <stop offset="0.537" stop-color="#b5b5b5" stop-opacity="0.082"/>
      <stop offset="0.799" stop-color="#ebebeb" stop-opacity="0.098"/>
      <stop offset="1" stop-color="#fff" stop-opacity="0.102"/>
    </linearGradient>
    <linearGradient id="linear-gradient-4" x1="-196.812" y1="38.077" x2="-196.637" y2="38.077" xlink:href="#linear-gradient-2"/>
    <linearGradient id="linear-gradient-5" x1="-74.09" y1="187.128" x2="-74.06" y2="187.128" xlink:href="#linear-gradient"/>
    <linearGradient id="linear-gradient-6" x1="-178.58" y1="-626.969" x2="-178.422" y2="-626.969" gradientUnits="objectBoundingBox">
      <stop offset="0" stop-opacity="0.063"/>
      <stop offset="0.012" stop-color="#050505" stop-opacity="0.075"/>
      <stop offset="0.176" stop-color="#464646" stop-opacity="0.216"/>
      <stop offset="0.338" stop-color="#7e7e7e" stop-opacity="0.337"/>
      <stop offset="0.493" stop-color="#acacac" stop-opacity="0.439"/>
      <stop offset="0.64" stop-color="#d0d0d0" stop-opacity="0.518"/>
      <stop offset="0.777" stop-color="#eaeaea" stop-opacity="0.573"/>
      <stop offset="0.901" stop-color="#f9f9f9" stop-opacity="0.608"/>
      <stop offset="1" stop-color="#fff" stop-opacity="0.62"/>
    </linearGradient>
  </defs>
  <g id="Group_3150" data-name="Group 3150" transform="translate(-5.225 -0.871)">
    <g id="Group_2088" data-name="Group 2088" transform="translate(5.742 12.438)">
      <path id="Path_311" data-name="Path 311" d="M993.642,736.354c2.181-7.516,9.665-12.026,9.186-20.74-.221-4.012-2.126-7.2-3.413-10.8-3.025-8.478-5.578-21.819-.94-30.144,5.943-10.656,19.86-9.459,28.637-14.318,4.76-2.637,8.628-7.082,12.22-11.63,2.61-3.31,5.167-6.762,8.361-9.243a18.632,18.632,0,0,1,22.3-.513c6.828,4.863,11.224,13.463,20.113,11.592,3.687-.776,7.439-2.457,11.168-1.252a16.111,16.111,0,0,1,9,8.184c5.4,10.735-3.4,22.084.277,33.17,2.744,8.266,10.653,11.362,15.064,18.04,3.551,5.377,4.389,12.218,3.3,18.8-2.194,13.264-3.947,27.376-8.134,39.989-4.594,13.848-18.311,13.978-29.023,13.993-16.278.023-33.141,1.519-49.284-.8-12.6-1.81-27.263-6.1-37.725-15.024C997.19,759.211,990.308,747.841,993.642,736.354Z" transform="translate(-992.779 -635.507)" fill="#fff" stroke="#345995" stroke-width="1"/>
    </g>
    <g id="Group_331" data-name="Group 331" transform="translate(22.083 0.871)">
      <g id="OBJECTS" transform="translate(37.731)">
        <g id="Group_304" data-name="Group 304">
          <path id="Path_615" data-name="Path 615" d="M1108.727,702.077c0,1.747-14.757,3.158-32.96,3.158s-32.962-1.417-32.962-3.158,14.757-3.158,32.962-3.158S1108.727,700.331,1108.727,702.077Z" transform="translate(-1042.805 -618.813)" fill="#dbdbdb"/>
          <g id="Group_303" data-name="Group 303" transform="translate(4.094)">
            <path id="Rectangle_19" data-name="Rectangle 19" d="M1054.867,633.427h41.7a7.711,7.711,0,0,1,7.711,7.711v58.949a7.71,7.71,0,0,1-7.71,7.71h-41.7a7.71,7.71,0,0,1-7.711-7.71v-58.95A7.709,7.709,0,0,1,1054.867,633.427Z" transform="translate(-1046.547 -624.109)" fill="#784f26"/>
            <path id="Rectangle_20" data-name="Rectangle 20" d="M1054.3,632.863h41.7a7.711,7.711,0,0,1,7.71,7.711v58.949a7.71,7.71,0,0,1-7.71,7.71h-41.7a7.71,7.71,0,0,1-7.711-7.709v-58.95A7.71,7.71,0,0,1,1054.3,632.863Z" transform="translate(-1046.593 -624.154)" fill="#ca8340"/>
            <path id="Path_616" data-name="Path 616" d="M1101.929,632.914c-5.021,9.959-19.589,32.772-55.336,54.459v17.579a2.276,2.276,0,0,0,2.276,2.276h52.57a2.276,2.276,0,0,0,2.276-2.276V635.136A2.277,2.277,0,0,0,1101.929,632.914Z" transform="translate(-1046.593 -624.15)" fill="#b47639"/>
            <rect id="Rectangle_21" data-name="Rectangle 21" width="48.845" height="63.884" transform="translate(4.693 15.126)" fill="#a3a3a3"/>
            <rect id="Rectangle_22" data-name="Rectangle 22" width="48.845" height="63.884" transform="translate(4.14 14.367)" fill="#fff"/>
            <g id="Group_290" data-name="Group 290" transform="translate(9.022)">
              <path id="Path_617" data-name="Path 617" d="M1094.022,632.945a1.471,1.471,0,0,0-1.459-1.483h-12.476a5.9,5.9,0,0,0,.07-.906,5.677,5.677,0,1,0-11.352-.147v.147a5.915,5.915,0,0,0,.07.906H1056.4a1.471,1.471,0,0,0-1.459,1.483h0v7.577h39.083Zm-19.542-1.89a1.812,1.812,0,1,1,1.783-1.841v.028a1.8,1.8,0,0,1-1.784,1.813Z" transform="translate(-1054.94 -624.806)" fill="#a7b09a"/>
              <path id="Path_618" data-name="Path 618" d="M1092.808,630.986c-.433,2.374-2.053,6.806-8.111,6.806h-29.757v2.23h39.081v-7.577A1.473,1.473,0,0,0,1092.808,630.986Z" transform="translate(-1054.94 -624.306)" fill="#98a08c"/>
              <rect id="Rectangle_23" data-name="Rectangle 23" width="39.083" height="0.659" transform="translate(0 15.057)" fill="#727869"/>
            </g>
            <g id="Group_293" data-name="Group 293" transform="translate(10.051 28.474)">
              <g id="Group_292" data-name="Group 292" transform="translate(0 0.053)">
                <path id="Path_619" data-name="Path 619" d="M1063.675,655.09a3.892,3.892,0,1,1-3.891-3.891,3.892,3.892,0,0,1,3.891,3.891Z" transform="translate(-1055.892 -651.199)" fill="none" stroke="#cee2e8" stroke-miterlimit="10" stroke-width="4"/>
                <g id="Group_291" data-name="Group 291" transform="translate(10.627 1.077)">
                  <path id="Path_620" data-name="Path 620" d="M1087.447,652.638a.443.443,0,0,1-.442.442h-20.839a.443.443,0,0,1-.442-.442h0a.444.444,0,0,1,.442-.443h20.842a.444.444,0,0,1,.442.443Z" transform="translate(-1065.724 -652.195)" fill="#cee2e8"/>
                  <path id="Path_621" data-name="Path 621" d="M1083.633,654.831a.444.444,0,0,1-.442.443h-17.024a.444.444,0,0,1-.442-.443h0a.443.443,0,0,1,.442-.442h17.028a.443.443,0,0,1,.442.442Z" transform="translate(-1065.724 -652.018)" fill="#cee2e8"/>
                  <path id="Path_622" data-name="Path 622" d="M1089.027,657.026a.442.442,0,0,1-.442.442h-22.419a.442.442,0,0,1-.442-.442h0a.442.442,0,0,1,.442-.442h22.424a.442.442,0,0,1,.442.442h-.005Z" transform="translate(-1065.724 -651.84)" fill="#cee2e8"/>
                </g>
              </g>
              <path id="Path_623" data-name="Path 623" d="M1064.074,651.191a15.5,15.5,0,0,0-3.986,3.287,5.142,5.142,0,0,1-.478.479c-.008-.013-.017-.024-.025-.037a11.013,11.013,0,0,0-.95-1.627,1,1,0,0,0-1.363-.185c-.6.431-1.181.591-1.083,1.451a.766.766,0,0,0,.658.657h.042a.826.826,0,0,0,.448-.1c.547,1.244,1.349,2.7,2.806,2.029.894-.41,3.818-4.184,4.44-5.454C1064.718,651.415,1064.371,651.021,1064.074,651.191Z" transform="translate(-1055.869 -651.15)" fill="#00c79d"/>
            </g>
            <g id="Group_296" data-name="Group 296" transform="translate(10.051 40.432)">
              <g id="Group_295" data-name="Group 295" transform="translate(0 0.052)">
                <path id="Path_624" data-name="Path 624" d="M1063.675,666.153a3.892,3.892,0,1,1-3.891-3.892,3.892,3.892,0,0,1,3.891,3.892Z" transform="translate(-1055.892 -662.261)" fill="none" stroke="#cee2e8" stroke-miterlimit="10" stroke-width="4"/>
                <g id="Group_294" data-name="Group 294" transform="translate(10.627 1.078)">
                  <path id="Path_625" data-name="Path 625" d="M1081.162,663.7a.442.442,0,0,1-.442.442h-14.554a.442.442,0,0,1-.442-.442h0a.444.444,0,0,1,.442-.443h14.558a.443.443,0,0,1,.442.443Z" transform="translate(-1065.724 -663.258)" fill="#cee2e8"/>
                  <path id="Path_626" data-name="Path 626" d="M1087.369,665.9a.442.442,0,0,1-.442.442h-20.761a.442.442,0,0,1-.442-.442h0a.443.443,0,0,1,.442-.442h20.765a.442.442,0,0,1,.442.442h0Z" transform="translate(-1065.724 -663.08)" fill="#cee2e8"/>
                  <path id="Path_627" data-name="Path 627" d="M1079.423,668.089a.442.442,0,0,1-.442.442h-12.815a.442.442,0,0,1-.442-.442h0a.442.442,0,0,1,.442-.442h12.823a.442.442,0,0,1,.442.442h-.009Z" transform="translate(-1065.724 -662.903)" fill="#cee2e8"/>
                </g>
              </g>
              <path id="Path_628" data-name="Path 628" d="M1064.074,662.254a15.5,15.5,0,0,0-3.986,3.287,5.142,5.142,0,0,1-.478.479c-.008-.013-.017-.025-.025-.037a11.017,11.017,0,0,0-.95-1.627.994.994,0,0,0-1.363-.185c-.6.43-1.181.59-1.083,1.45a.767.767,0,0,0,.658.657h.042a.826.826,0,0,0,.448-.1c.547,1.244,1.349,2.7,2.806,2.029.894-.41,3.818-4.185,4.44-5.455C1064.718,662.478,1064.371,662.084,1064.074,662.254Z" transform="translate(-1055.869 -662.213)" fill="#00c79d"/>
            </g>
            <g id="Group_299" data-name="Group 299" transform="translate(10.051 52.153)">
              <g id="Group_298" data-name="Group 298" transform="translate(0 0.052)">
                <path id="Path_629" data-name="Path 629" d="M1063.675,677a3.892,3.892,0,1,1-3.891-3.892h0A3.892,3.892,0,0,1,1063.675,677Z" transform="translate(-1055.892 -673.105)" fill="none" stroke="#cee2e8" stroke-miterlimit="10" stroke-width="4"/>
                <g id="Group_297" data-name="Group 297" transform="translate(10.627 1.078)">
                  <path id="Path_630" data-name="Path 630" d="M1076.341,674.544a.442.442,0,0,1-.442.442h-9.733a.442.442,0,0,1-.442-.442h0a.443.443,0,0,1,.442-.442h9.736a.443.443,0,0,1,.443.442h0Z" transform="translate(-1065.724 -674.102)" fill="#cee2e8"/>
                  <path id="Path_631" data-name="Path 631" d="M1083.633,676.738a.443.443,0,0,1-.442.442h-17.024a.442.442,0,0,1-.442-.442h0a.443.443,0,0,1,.442-.442h17.028a.443.443,0,0,1,.442.442Z" transform="translate(-1065.724 -673.925)" fill="#cee2e8"/>
                  <path id="Path_632" data-name="Path 632" d="M1080.72,678.933a.442.442,0,0,1-.442.442h-14.112a.442.442,0,0,1-.442-.442h0a.442.442,0,0,1,.442-.442h14.116a.442.442,0,0,1,.442.442h0Z" transform="translate(-1065.724 -673.747)" fill="#cee2e8"/>
                </g>
              </g>
              <path id="Path_633" data-name="Path 633" d="M1064.074,673.1a15.5,15.5,0,0,0-3.986,3.287,5.134,5.134,0,0,1-.478.479c-.008-.013-.017-.025-.025-.037a11.014,11.014,0,0,0-.95-1.627.994.994,0,0,0-1.363-.185c-.6.43-1.181.59-1.083,1.451a.766.766,0,0,0,.658.657h.042a.815.815,0,0,0,.448-.1c.547,1.244,1.349,2.7,2.806,2.029.894-.41,3.818-4.185,4.44-5.455C1064.718,673.322,1064.371,672.928,1064.074,673.1Z" transform="translate(-1055.869 -673.057)" fill="#00c79d"/>
            </g>
            <g id="Group_302" data-name="Group 302" transform="translate(10.05 63.061)">
              <g id="Group_301" data-name="Group 301" transform="translate(0 0.053)">
                <circle id="Ellipse_30" data-name="Ellipse 30" cx="3.892" cy="3.892" r="3.892" fill="none" stroke="#cee2e8" stroke-miterlimit="10" stroke-width="4"/>
                <g id="Group_300" data-name="Group 300" transform="translate(10.627 1.077)">
                  <path id="Path_634" data-name="Path 634" d="M1087.447,684.637a.443.443,0,0,1-.442.442h-20.839a.442.442,0,0,1-.442-.442h0a.443.443,0,0,1,.442-.442h20.842a.443.443,0,0,1,.442.442h0Z" transform="translate(-1065.724 -684.195)" fill="#cee2e8"/>
                  <path id="Path_635" data-name="Path 635" d="M1083.633,686.831a.443.443,0,0,1-.442.442h-17.024a.442.442,0,0,1-.442-.442h0a.443.443,0,0,1,.442-.442h17.028a.443.443,0,0,1,.442.442Z" transform="translate(-1065.724 -684.018)" fill="#cee2e8"/>
                  <path id="Path_636" data-name="Path 636" d="M1079.585,689.026a.442.442,0,0,1-.442.442h-12.977a.442.442,0,0,1-.442-.442h0a.443.443,0,0,1,.442-.442h12.976a.445.445,0,0,1,.443.442Z" transform="translate(-1065.724 -683.84)" fill="#cee2e8"/>
                </g>
              </g>
              <path id="Path_637" data-name="Path 637" d="M1064.074,683.19a15.5,15.5,0,0,0-3.986,3.287,5.011,5.011,0,0,1-.478.479c-.008-.013-.017-.024-.025-.037a11.014,11.014,0,0,0-.95-1.627,1,1,0,0,0-1.363-.185c-.6.431-1.181.591-1.083,1.451a.768.768,0,0,0,.658.658h.042a.825.825,0,0,0,.448-.1c.547,1.244,1.349,2.7,2.806,2.028.894-.41,3.818-4.184,4.44-5.454C1064.718,683.414,1064.371,683.02,1064.074,683.19Z" transform="translate(-1055.868 -683.149)" fill="#00c79d"/>
            </g>
          </g>
        </g>
      </g>
      <g id="Layer_4" data-name="Layer 4" transform="translate(0 36.101)">
        <g id="Group_323" data-name="Group 323" transform="translate(0.511 0.6)">
          <path id="Path_667" data-name="Path 667" d="M1019.792,717.54h3.446c0-1.122-2.6-2.8-3.021-2.243A2.892,2.892,0,0,0,1019.792,717.54Z" transform="translate(-1007.451 -654.199)" fill="#9b5d51"/>
          <path id="Path_668" data-name="Path 668" d="M1013.312,717.54h-3.379c0-1.122,1.634-2.8,2.117-2.243C1012.342,715.639,1013.674,716.886,1013.312,717.54Z" transform="translate(-1008.243 -654.199)" fill="#9b5d51"/>
          <g id="Group_313" data-name="Group 313" transform="translate(28.997 24.303)" opacity="0.6">
            <path id="Path_669" data-name="Path 669" d="M1036.362,682.237a.583.583,0,1,0-.581.628A.607.607,0,0,0,1036.362,682.237Z" transform="translate(-1035.197 -681.209)" fill="#d7e7f4"/>
            <path id="Path_670" data-name="Path 670" d="M1036.939,681.783a.583.583,0,1,0-.582.628A.607.607,0,0,0,1036.939,681.783Z" transform="translate(-1035.151 -681.245)" fill="#d7e7f4"/>
            <path id="Path_671" data-name="Path 671" d="M1037.681,682.031a.583.583,0,1,0-.582.628A.605.605,0,0,0,1037.681,682.031Z" transform="translate(-1035.091 -681.225)" fill="#d7e7f4"/>
            <path id="Path_672" data-name="Path 672" d="M1037.935,682.727a.531.531,0,1,0-.53.574A.552.552,0,0,0,1037.935,682.727Z" transform="translate(-1035.062 -681.165)" fill="#d7e7f4"/>
            <path id="Path_673" data-name="Path 673" d="M1037.283,682.954a.827.827,0,1,0-.825.893A.862.862,0,0,0,1037.283,682.954Z" transform="translate(-1035.162 -681.169)" fill="#d7e7f4"/>
          </g>
          <path id="Path_674" data-name="Path 674" d="M1037.481,692.245c-2.645-.664-6.116-2.829-5.03-4.243s3.75-1.148,3.75-1.148-1.723-1.5.709-1.99a4.255,4.255,0,0,1,3.985,1.635s-.461-4.774,3.3-3.006,2.092,4.2,2.092,4.2,2.271-1.989,3.516.133,2.068,3.713-1.04,4.421S1037.481,692.245,1037.481,692.245Z" transform="translate(-1006.439 -656.793)" fill="#d7e7f4" opacity="0.6" style="isolation: isolate"/>
          <path id="Path_675" data-name="Path 675" d="M1037.551,691.109c.354.106.774.117.843-.022.059-.118-.255-.126-.486-.232-.205-.1-.278-.125-.245-.175a2.307,2.307,0,0,1,.641.108c.411.085.7.082.765-.058s-.23-.128-.583-.243c-.312-.1-.458-.129-.4-.266.025-.064.244-.017.6-.011.406.01.676-.072.693-.191.02-.163-.191-.05-.642-.12-.6-.1-.781-.028-1.008-.287-.21-.244.973-.33.828-.574-.191-.324-2.3.389-2.461.811C1035.862,690.458,1036.424,690.772,1037.551,691.109Z" transform="translate(-1006.132 -656.319)" fill="#ffcd9c"/>
          <path id="Path_676" data-name="Path 676" d="M1042.48,720.342h-.552l-.462-27.438,1.76.072Z" transform="translate(-1005.693 -656)" fill="#7f4138"/>
          <path id="Path_677" data-name="Path 677" d="M1031.371,720.342h.55l.462-27.438-1.76.072Z" transform="translate(-1006.57 -656)" fill="#7f4138"/>
          <path id="Path_678" data-name="Path 678" d="M1021.311,679.062c-2.02,2.664-5.784,2.833-7.541-.115,0,0-1.219.16-1.675-1.786,0,0-1.648.245-1.923-.826s-.032-1.426-.032-1.426-1.448-.314-1.706-2.954.339-3.245.339-3.245-1.135-.884.738-4.241,4.855-5.635,5.954-3.574c0,0,1.485-2.69,3.506-2.031a5.791,5.791,0,0,1,3.024,2.764s1.8-1.514,3.123.242c1.814,2.4-.1,4.986-.1,4.986s1.723-1.313,2.727,1.5c1.176,3.284-2.471,5.827-2.471,5.827Z" transform="translate(-1008.369 -658.761)" fill="#5e3728"/>
          <path id="Path_680" data-name="Path 680" d="M1027.457,689.036c.957-.319,9.513.373,9.93.415l.217.561s-9.489,1.278-10.462.655S1026.852,689.238,1027.457,689.036Z" transform="translate(-1006.891 -656.32)" fill="#ffcd9c"/>
          <path id="Path_681" data-name="Path 681" d="M1025.68,686.008c1.405,1.7,3.8,4.1,2.349,4.747s-4.123-3.852-4.123-3.852Z" transform="translate(-1007.113 -656.558)" fill="#ffae85"/>
          <path id="Path_682" data-name="Path 682" d="M1022.557,681.73c1.856.973,5.219,6.394,5.219,6.394s8.916,1.037,9.453,1.938c.621,1.041-7.3,1.967-10.345,2.02C1024.794,692.117,1018.9,679.817,1022.557,681.73Z" transform="translate(-1007.317 -656.92)" fill="#f9f9f9"/>
          <path id="Path_683" data-name="Path 683" d="M1021.88,681.543c-2.354.14,4.131,11.057,4.744,11.012,3.809-.287,1.627-.159,2.324-1.008C1027.678,689.632,1021.479,683.466,1021.88,681.543Z" transform="translate(-1007.318 -656.919)" fill="url(#linear-gradient)"/>
          <path id="Path_684" data-name="Path 684" d="M1024.539,690.277l.447.653,4.1-5.022-.5-.772Z" transform="translate(-1007.062 -656.628)" fill="#ffd86c"/>
          <path id="Path_685" data-name="Path 685" d="M1015.276,701.9a8.886,8.886,0,0,0,5.114.015,3.452,3.452,0,0,1-2.649,1.182A3.569,3.569,0,0,1,1015.276,701.9Z" transform="translate(-1007.811 -655.273)" fill="#68403a"/>
          <path id="Path_686" data-name="Path 686" d="M1010.017,717.7c1.261-14.277,2.436-25.489,5.828-36.09.609-1.9,8.7-.943,8.525,3.173-.262,6.186-.348,33.87-.348,33.87S1018.28,721.67,1010.017,717.7Z" transform="translate(-1008.236 -656.989)" fill="#f2eeee"/>
          <path id="Path_687" data-name="Path 687" d="M1016.311,682.293c-.256.149-.793.453-.861.685-3.4,10.968-4.171,19.547-5.432,34.313.737.766,4.881,2.91,12.291,1.847C1023.918,706.715,1017.794,691.429,1016.311,682.293Z" transform="translate(-1008.236 -656.858)" fill="url(#linear-gradient-2)"/>
          <path id="Path_688" data-name="Path 688" d="M1023.511,687.407c-.564,5.366-1.3,23.551-1.485,31.091a6.694,6.694,0,0,0,1.025-.5s.171-18.5.431-26.16C1023.5,691.248,1023.579,689.155,1023.511,687.407Z" transform="translate(-1007.265 -656.445)" fill="#d8d8d8"/>
          <path id="Path_689" data-name="Path 689" d="M1010.824,717.157h0c.65-.423,1.363-.749,1.4-1.53l1.366-26.71C1011.563,700.639,1010.824,717.157,1010.824,717.157Z" transform="translate(-1008.171 -656.323)" fill="url(#linear-gradient-3)"/>
          <path id="Path_690" data-name="Path 690" d="M1028.848,720.353h.87l1.339-27.577-2.121.073Z" transform="translate(-1006.714 -656.01)" fill="#9b5d51"/>
          <path id="Path_691" data-name="Path 691" d="M1044.943,720.353h-.87l-1.289-27.579,2.073.072Z" transform="translate(-1005.587 -656.011)" fill="#9b5d51"/>
          <rect id="Rectangle_26" data-name="Rectangle 26" width="16.272" height="1.167" transform="translate(22.869 36.62)" fill="#9b5d51"/>
          <rect id="Rectangle_27" data-name="Rectangle 27" width="15.135" height="0.656" transform="translate(23.439 39.757)" fill="#9b5d51"/>
          <path id="Path_692" data-name="Path 692" d="M1017.084,681.744c.772,1.947-2.45,7.464-2.45,7.464s-.158-.717-3.81.676C1010.837,687.163,1015.562,677.911,1017.084,681.744Z" transform="translate(-1008.171 -656.977)" fill="#f9f9f9"/>
          <path id="Path_693" data-name="Path 693" d="M1017.34,681.344l.849-3.914,3,.191L1021,681.6Z" transform="translate(-1007.644 -657.251)" fill="#e0a075"/>
          <path id="Path_694" data-name="Path 694" d="M1049.349,691.292h-22.871v1.016l1.386.881h20.106l1.384-.879Z" transform="translate(-1006.905 -656.13)" fill="#bc7266"/>
          <rect id="Rectangle_28" data-name="Rectangle 28" width="22.876" height="0.948" transform="translate(19.568 35.161)" fill="#dd9585"/>
          <path id="Path_695" data-name="Path 695" d="M1042.3,690.881c-1.053-1.169-4.612-1.178-7.729-.866-1.579.158-6.726-2.076-7.9-1.294s.131,2.741.131,2.741h8.7c.733.424.93.67.78,2.268-.1,1,.191,1.006.892.268s1.2-1.532,2.416-1.274,3.567.347,3.524-.131A2.378,2.378,0,0,0,1042.3,690.881Z" transform="translate(-1006.929 -656.352)" fill="#efe2bd"/>
          <path id="Path_696" data-name="Path 696" d="M1018.925,680.4l-1.588.708,3.074,2,.625-1.811Z" transform="translate(-1007.644 -657.012)" fill="#e0a075"/>
          <path id="Path_697" data-name="Path 697" d="M1022,683.27l-1.546-.86.3-1.546.478.089Z" transform="translate(-1007.392 -656.974)" fill="#d8d8d8"/>
          <path id="Path_698" data-name="Path 698" d="M1022.778,686.994h-1.427l-.167,1.323.7.965.807-.894Z" transform="translate(-1007.333 -656.478)" fill="#d8d8d8"/>
          <path id="Path_699" data-name="Path 699" d="M1014.211,690.133c1.081-.368,11.425-.276,11.916-.254l.065.724s-10.925,1.751-12.142,1.177S1013.53,690.365,1014.211,690.133Z" transform="translate(-1007.964 -656.247)" fill="#ffcd9c"/>
          <path id="Path_700" data-name="Path 700" d="M1014.407,691.266c-.583-.275-.724-.611-.641-.912-.454.359-.654.957.286,1.4,1.216.574,12.143-1.177,12.143-1.177l-.039-.428C1024.2,690.456,1015.486,691.776,1014.407,691.266Z" transform="translate(-1007.964 -656.223)" fill="#ffae85"/>
          <path id="Path_702" data-name="Path 702" d="M1021.065,680.884c-3.325.445-9.009-2.347-8.006-6.808a1.361,1.361,0,0,0-.584-1.361c.652-.519-.357-1.57-.357-1.57,1.044-.071.191-1.508.191-1.508a.829.829,0,0,0,.734-.914.816.816,0,0,0-.073-.26c-.516-1.544.495-3.176,3.288-4.3,6-2.412,8.421,1.914,10.311,5.107C1028.974,673.339,1028.082,679.945,1021.065,680.884Z" transform="translate(-1008.066 -658.381)" fill="#e0a075"/>
          <path id="Path_703" data-name="Path 703" d="M1014.477,676.6c-.969,1.235-3.118.173-3.357-1.446s2.085-1.835,2.719-1.308S1014.946,675.994,1014.477,676.6Z" transform="translate(-1008.148 -657.562)" fill="#e0a075"/>
          <path id="Path_704" data-name="Path 704" d="M1014.02,676.177c-.627.8-2.016.112-2.169-.934s1.348-1.186,1.757-.845S1014.327,675.791,1014.02,676.177Z" transform="translate(-1008.089 -657.51)" fill="#ad7445"/>
          <path id="Path_705" data-name="Path 705" d="M1014.292,676.442c-.439.559-1.411.078-1.52-.655s.944-.831,1.231-.592S1014.506,676.165,1014.292,676.442Z" transform="translate(-1008.014 -657.441)" fill="#e0a075"/>
          <path id="Path_706" data-name="Path 706" d="M1037.6,692c-.846.134-.276-.739-1.114-1.114-1.049-.468-4.925.445-7.066.223a5.981,5.981,0,0,1-3.217-1.733,3.783,3.783,0,0,0,.654,2.12l8.613.058c.733.426.736.721.587,2.321-.1,1,.479,1,1.175.262s1.13-1.739,2.348-1.479c1.111.238,3.158.331,3.476-.018C1041.427,692.97,1038.2,691.907,1037.6,692Z" transform="translate(-1006.927 -656.285)" fill="#e2bf8d"/>
          <path id="Path_707" data-name="Path 707" d="M1036.027,692.578c.015-1.553,2.915-1.684,3.385-1.332.451.336-1.67.191-2.168,1.457C1037.005,693.306,1036.021,693.277,1036.027,692.578Z" transform="translate(-1006.133 -656.147)" fill="#e2bf8d"/>
          <path id="Path_708" data-name="Path 708" d="M1039.974,692.341a6.155,6.155,0,0,1-2.339-.467c.022-.334,1.961-.647,1.961-.647Z" transform="translate(-1006.003 -656.136)" fill="#efe2bd"/>
          <path id="Path_709" data-name="Path 709" d="M1029.588,690.073a31.221,31.221,0,0,0,4.748,1,15.169,15.169,0,0,0,1.938-.223A33.611,33.611,0,0,0,1029.588,690.073Z" transform="translate(-1006.654 -656.229)" fill="#e2bf8d"/>
          <path id="Path_710" data-name="Path 710" d="M1026.275,690.6c.361-.076.737-.267.732-.423,0-.132-.287.011-.539.028-.225.014-.3.024-.3-.037a2.359,2.359,0,0,1,.614-.212c.4-.12.657-.263.645-.417s-.262,0-.628.065c-.323.059-.464.106-.479-.042-.01-.069.205-.133.525-.3.362-.185.559-.384.519-.5-.06-.152-.191.045-.62.2-.574.209-.7.349-1.024.228-.3-.113.7-.753.453-.9-.323-.191-1.833,1.435-1.776,1.888C1024.48,690.836,1025.125,690.845,1026.275,690.6Z" transform="translate(-1007.074 -656.374)" fill="#ffcd9c"/>
          <g id="Group_314" data-name="Group 314" transform="translate(38.289 35.637)" opacity="0.6">
            <path id="Path_711" data-name="Path 711" d="M1044.954,692.716a.582.582,0,1,0-.7.495A.6.6,0,0,0,1044.954,692.716Z" transform="translate(-1043.795 -691.705)" fill="#d7e7f4"/>
            <path id="Path_712" data-name="Path 712" d="M1045.612,692.389a.583.583,0,1,0-.7.5A.607.607,0,0,0,1045.612,692.389Z" transform="translate(-1043.742 -691.732)" fill="#d7e7f4"/>
            <path id="Path_713" data-name="Path 713" d="M1046.288,692.783a.583.583,0,1,0-.7.5A.606.606,0,0,0,1046.288,692.783Z" transform="translate(-1043.687 -691.7)" fill="#d7e7f4"/>
            <path id="Path_714" data-name="Path 714" d="M1046.4,693.519a.531.531,0,1,0-.636.452A.553.553,0,0,0,1046.4,693.519Z" transform="translate(-1043.67 -691.635)" fill="#d7e7f4"/>
            <path id="Path_715" data-name="Path 715" d="M1045.714,693.6a.827.827,0,1,0-.989.7A.86.86,0,0,0,1045.714,693.6Z" transform="translate(-1043.773 -691.656)" fill="#d7e7f4"/>
          </g>
          <g id="Group_315" data-name="Group 315" transform="translate(23.099 27.583)" opacity="0.6">
            <path id="Path_716" data-name="Path 716" d="M1030.394,685.184a.4.4,0,1,0,.2.552A.416.416,0,0,0,1030.394,685.184Z" transform="translate(-1029.732 -684.21)" fill="#d7e7f4"/>
            <path id="Path_717" data-name="Path 717" d="M1030.3,684.688a.4.4,0,1,0,.2.553.416.416,0,0,0-.2-.553Z" transform="translate(-1029.74 -684.25)" fill="#d7e7f4"/>
            <path id="Path_718" data-name="Path 718" d="M1030.681,684.311a.4.4,0,1,0,.2.552A.417.417,0,0,0,1030.681,684.311Z" transform="translate(-1029.709 -684.28)" fill="#d7e7f4"/>
            <path id="Path_719" data-name="Path 719" d="M1031.189,684.371a.365.365,0,1,0,.185.5A.383.383,0,0,0,1031.189,684.371Z" transform="translate(-1029.664 -684.275)" fill="#d7e7f4"/>
            <path id="Path_720" data-name="Path 720" d="M1031.119,684.862a.574.574,0,1,0,.288.785A.593.593,0,0,0,1031.119,684.862Z" transform="translate(-1029.693 -684.237)" fill="#d7e7f4"/>
          </g>
          <g id="Group_316" data-name="Group 316" transform="translate(42.689 24.973)" opacity="0.6">
            <path id="Path_721" data-name="Path 721" d="M1048.653,682.533a.4.4,0,1,0-.473.337A.413.413,0,0,0,1048.653,682.533Z" transform="translate(-1047.865 -681.848)" fill="#d7e7f4"/>
            <path id="Path_722" data-name="Path 722" d="M1049.1,682.311a.395.395,0,1,0-.472.336A.41.41,0,0,0,1049.1,682.311Z" transform="translate(-1047.829 -681.866)" fill="#d7e7f4"/>
            <path id="Path_723" data-name="Path 723" d="M1049.557,682.582a.4.4,0,1,0-.473.336A.413.413,0,0,0,1049.557,682.582Z" transform="translate(-1047.792 -681.844)" fill="#d7e7f4"/>
            <path id="Path_724" data-name="Path 724" d="M1049.629,683.075a.361.361,0,1,0-.432.308A.376.376,0,0,0,1049.629,683.075Z" transform="translate(-1047.781 -681.801)" fill="#d7e7f4"/>
            <path id="Path_725" data-name="Path 725" d="M1049.167,683.137a.562.562,0,1,0-.669.478A.582.582,0,0,0,1049.167,683.137Z" transform="translate(-1047.85 -681.814)" fill="#d7e7f4"/>
          </g>
          <g id="Group_317" data-name="Group 317" transform="translate(22.787 35.666)" opacity="0.6">
            <path id="Path_726" data-name="Path 726" d="M1030.105,692.663a.4.4,0,1,0,.2.553A.418.418,0,0,0,1030.105,692.663Z" transform="translate(-1029.444 -691.689)" fill="#d7e7f4"/>
            <path id="Path_727" data-name="Path 727" d="M1030.007,692.168a.4.4,0,1,0,.2.552.415.415,0,0,0-.2-.552Z" transform="translate(-1029.452 -691.729)" fill="#d7e7f4"/>
            <path id="Path_728" data-name="Path 728" d="M1030.394,691.79a.4.4,0,1,0,.2.553A.417.417,0,0,0,1030.394,691.79Z" transform="translate(-1029.421 -691.759)" fill="#d7e7f4"/>
            <path id="Path_729" data-name="Path 729" d="M1030.9,691.852a.366.366,0,1,0,.184.5A.383.383,0,0,0,1030.9,691.852Z" transform="translate(-1029.376 -691.754)" fill="#d7e7f4"/>
            <path id="Path_730" data-name="Path 730" d="M1030.831,692.342a.574.574,0,1,0,.287.785A.593.593,0,0,0,1030.831,692.342Z" transform="translate(-1029.405 -691.716)" fill="#d7e7f4"/>
          </g>
          <g id="Group_322" data-name="Group 322" transform="translate(2.528 14.357)">
            <path id="Path_731" data-name="Path 731" d="M1024.454,689.074c-.756.171-7.343-.205-9.751,0-.034-1.219.163-.625.526-1.622l-4.019.172a13.014,13.014,0,0,0-.479,4.353c-.029.211,1.032.623,1.591.725a8.417,8.417,0,0,0,1.427.129h.007c.016.01.215-.013.366-.019,1.154-.055,11.3-1.406,11.3-1.406Z" transform="translate(-1010.709 -670.798)" fill="#f9f9f9"/>
            <path id="Path_732" data-name="Path 732" d="M1017.335,681.111l.458-2.1,1,1.656,1.618,2.543Z" transform="translate(-1010.173 -671.481)" fill="#5e3728" opacity="0.34"/>
            <path id="Path_733" data-name="Path 733" d="M1021.22,672.635a.487.487,0,0,1-.628.1.379.379,0,0,0,.065.146.6.6,0,0,0,.791-.062.54.54,0,0,0,.04-.727.291.291,0,0,0-.059-.043A.643.643,0,0,1,1021.22,672.635Z" transform="translate(-1009.909 -672.044)" fill="#ad7445"/>
          </g>
          <path id="Path_744" data-name="Path 744" d="M1016.108,680.959c-1.932-.376-5.838,7.2-5.444,11.537.009.1.3.242.383.286a5.375,5.375,0,0,0,.579.249C1012.268,689.681,1014.308,683.163,1016.108,680.959Z" transform="translate(-1008.186 -656.967)" fill="url(#linear-gradient-4)"/>
          <path id="Path_745" data-name="Path 745" d="M1017.837,683.523l1.665-1.13-2.142-2.083-.506.149Z" transform="translate(-1007.683 -657.018)" fill="#d8d8d8"/>
        </g>
        <path id="Path_747" data-name="Path 747" d="M1020.175,674.322c-.017-.457-.71-.8-1.546-.771s-1.5.429-1.485.886.71.8,1.548.771S1020.193,674.779,1020.175,674.322Z" transform="translate(-1007.149 -656.965)" fill="#b86a68" opacity="0.5" style="isolation: isolate"/>
        <path id="Path_748" data-name="Path 748" d="M1023.538,673.776c-.288-.357.007-1.072.659-1.6s1.413-.663,1.7-.307-.008,1.072-.659,1.6S1023.826,674.133,1023.538,673.776Z" transform="translate(-1006.641 -657.117)" fill="#b86a68" opacity="0.5" style="isolation: isolate"/>
        <path id="Path_749" data-name="Path 749" d="M1017.563,672.293c.479.081.616-.789.177-.93C1017.151,671.176,1017.087,672.212,1017.563,672.293Z" transform="translate(-1007.141 -657.144)" fill="#79354f"/>
        <path id="Path_750" data-name="Path 750" d="M1023.69,670.9c.464-.146.191-.981-.263-.908C1022.814,670.088,1023.229,671.044,1023.69,670.9Z" transform="translate(-1006.666 -657.253)" fill="#79354f"/>
        <path id="Path_751" data-name="Path 751" d="M1017.367,669.956c-.484-.733-1.451.588-1.3,1.239" transform="translate(-1007.238 -657.273)" fill="#ad7445"/>
        <path id="Path_753" data-name="Path 753" d="M1022.462,668.359c-.137-.868,1.466-.547,1.8.032" transform="translate(-1006.72 -657.428)" fill="#ad7445"/>
        <path id="Path_754" data-name="Path 754" d="M1023.109,675.817a1.357,1.357,0,0,1-1.11.683,2.552,2.552,0,0,1-1.407-.286" transform="translate(-1006.87 -656.782)" fill="#ad7445"/>
        <path id="Path_755" data-name="Path 755" d="M1023.4,691.415l.8-.107a3.444,3.444,0,0,0-.336-2.469l-.568.131A2.556,2.556,0,0,1,1023.4,691.415Z" transform="translate(-1006.652 -655.729)" fill="#d8d8d8"/>
        <path id="Path_756" data-name="Path 756" d="M1025.16,667.192c-.457-.3-1.186-1.124-.958-1.581-.535.3-1.155.516-1.564-.395a.966.966,0,0,1-1.67.9c.463,1.375-.681,2.072-1.319,1.008-.085,1.029-.89,1.327-1.482.691.007.749-.708,1.021-1.067.4.2,1.391-1.321,1.618-1.655.246-.005-.063,0-.063,0,0-.143,1.225-1.511,1.053-1.715-.1-.035.765-.869,1.5-1.2.531-.008-.062-.006-.062,0,0,.07.879-.579,1.14-1.092.82.534.719.021,1.693-.383.807h0a1.043,1.043,0,0,1-.383,1.017,1.131,1.131,0,0,1,.166,1.577c.653.451.412,1.576-.144,1.053a.8.8,0,0,1,.069,1.131.815.815,0,0,1-.164.141c.512.192,1,.757.364,1a4.023,4.023,0,0,1,.383.8c-.527,0-2.392-1.005-1.871-1.827a1.728,1.728,0,0,1-.574-2.085c-.49-.5-1.053-1.677-.462-2.243-.324-.645-.693-1.723-.055-2.038-.368-.67-.646-1.848-.05-2.215-.608-.712-.637-2.123.232-2.154-.67-1.491,1.538-1.619,1.516-1.586-.309-.518.025-2.166.99-1.868,0-.9.727-1.781,1.317-1.114.135-.851.759-1.306,1.33-.821.191-.765.847-1.026,1.339-.527a.958.958,0,0,1,1.733-.019c-.03-.071,1.422-1.053,1.786.113.426-.656,1.555-.915,1.641.417.5-.411,1.7-.821,1.739.561-.032.036-.038.035-.018,0,.575-.55,1.378-.509,1.565.757-.031.016-.047,0-.045-.051a.967.967,0,0,1,1.3.416.953.953,0,0,1,.107.425c.656-.1,1.994,1.135,1.392,2.134a1.035,1.035,0,0,1,.615,1.327,1,1,0,0,1-.117.227c.6.2,1.089,1.53.411,1.844.352.676,1.07,1.67.377,2.3" transform="translate(-1007.897 -658.206)" fill="#5e3728"/>
        <path id="Path_757" data-name="Path 757" d="M1011.312,691.961c.029,1.135,8.731.479,13.141-1.264" transform="translate(-1007.621 -655.579)" fill="url(#linear-gradient-5)"/>
        <path id="Path_758" data-name="Path 758" d="M1019.221,688.957s-4.055-.142-4.844,0l-.79.143-.419.134" transform="translate(-1007.471 -655.725)" fill="url(#linear-gradient-6)"/>
      </g>
      <g id="Layer_5" data-name="Layer 5" transform="translate(60.044 41.48)">
        <path id="Path_759" data-name="Path 759" d="M1099.8,677.828c-.451-.987-.926-1.98-1.459-2.933a3.835,3.835,0,0,1-.374-2.355,10.437,10.437,0,0,0-1.684-6.171,5.589,5.589,0,0,0-4.076-2.884c-4.912-1.244-12.527,1.451-13.772,6.207-.557,2.123.62,4.12,1.2,6.1a15.391,15.391,0,0,1,.567,6.07c-.191,1.6-.349,3.355,1.646,4.067a2.117,2.117,0,0,0,2.393-.287c.845,1.375,2.658.1,3.343-.818a4.475,4.475,0,0,0,2.27.82c.926-.046,1.264-.792,1.887-.891.642-.1,1.168.46,1.975.225a5.433,5.433,0,0,0,1.723-1.381c1.17.948,2.8.036,3.4-1.053C1101.551,682.626,1100.894,680.231,1099.8,677.828Z" transform="translate(-1062.249 -663.183)" fill="#b76e51"/>
        <g id="Group_330" data-name="Group 330" transform="translate(0 1.596)">
          <path id="Path_760" data-name="Path 760" d="M1103.572,693.23l-2.466,1.339v.479l3.269-.951Z" transform="translate(-1060.404 -662.349)" fill="#c95579"/>
          <path id="Path_761" data-name="Path 761" d="M1100.062,694.542l1.426-3.18,2.852,2.105.119.773-2.556-1.308-1.4,1.783Z" transform="translate(-1060.489 -662.5)" fill="#d36789"/>
          <path id="Path_762" data-name="Path 762" d="M1085.925,700.894c.127.342.166.759.033.838-.116.068-.142-.243-.263-.464-.107-.191-.141-.267-.191-.23a2.31,2.31,0,0,0,.147.627c.112.4.125.689-.01.765s-.141-.218-.278-.559c-.12-.3-.156-.443-.287-.375-.062.029,0,.243.027.6.036.4-.029.67-.143.7-.16.032-.06-.183-.159-.626-.129-.59-.077-.772-.348-.977-.256-.191-.266.989-.516.861-.335-.164.24-2.3.647-2.5C1085.174,699.273,1085.522,699.805,1085.925,700.894Z" transform="translate(-1061.801 -661.844)" fill="#f9c1a5"/>
          <path id="Path_763" data-name="Path 763" d="M1087.9,683.429c-1.027,2.451-3.5,15.476-3.679,18.364l.933-.557c.525-2.083,4.341-16.512,4.341-16.512Z" transform="translate(-1061.77 -663.142)" fill="#f9c1a5"/>
          <path id="Path_764" data-name="Path 764" d="M1087.844,683.429a51.834,51.834,0,0,0-1.661,6.571l1.053.792s-1.279,5.757-2.34,10.565l.2-.121c.524-2.083,4.341-16.512,4.341-16.512Z" transform="translate(-1061.715 -663.142)" fill="#f9c1a5"/>
          <path id="Path_765" data-name="Path 765" d="M1088.678,681.234c-1.335-.253-4.515,6.808-4.222,7.261s4.361,1.868,5.1.883S1090.64,681.606,1088.678,681.234Z" transform="translate(-1061.752 -663.32)" fill="#f4b3cb"/>
          <path id="Path_766" data-name="Path 766" d="M1088.486,681.234c-.427-.081-1.041.587-1.671,1.546.829,1.613.7,5.263.269,6.794,1,.205,1.96.233,2.283-.2C1090.107,688.394,1090.447,681.606,1088.486,681.234Z" transform="translate(-1061.56 -663.32)" fill="#e89ab2"/>
          <path id="Path_767" data-name="Path 767" d="M1089.59,720.176h1.073s4.115-18.715,3.76-25.424l-3.581.883S1091.021,712.23,1089.59,720.176Z" transform="translate(-1061.335 -662.226)" fill="#f9c1a5"/>
          <path id="Path_768" data-name="Path 768" d="M1090.338,712.849a2.715,2.715,0,0,1,1.541,1.083c1.176-6.073,2.706-14.981,2.483-19.182l-3.581.883S1090.882,704.862,1090.338,712.849Z" transform="translate(-1061.275 -662.227)" fill="#f9c1a5"/>
          <path id="Path_769" data-name="Path 769" d="M1100.982,720.176h1.073s.158-18.715-1.62-25.424l-3.394.883S1100.733,712.23,1100.982,720.176Z" transform="translate(-1060.733 -662.226)" fill="#f9c1a5"/>
          <path id="Path_770" data-name="Path 770" d="M1101.316,714.323a2.155,2.155,0,0,1,.706.122c-.1-6.074-.442-15.373-1.587-19.694l-3.394.883s2.35,10.564,3.427,18.871A2.176,2.176,0,0,1,1101.316,714.323Z" transform="translate(-1060.733 -662.226)" fill="#ef8f6f"/>
          <path id="Path_771" data-name="Path 771" d="M1089,710.636s9.4,2.516,15.981,2.383c0,0-3.625-29.794-8.191-32.707s-9.7.992-9.264,2.384C1089.669,689.582,1089.4,709.179,1089,710.636Z" transform="translate(-1061.505 -663.479)" fill="#dd7290"/>
          <g id="Group_324" data-name="Group 324" transform="translate(27.479 46.618)">
            <path id="Path_772" data-name="Path 772" d="M1090.156,708.742c.028-.5-.233-.928-.584-.951s-.664.363-.7.868.228.943.584.965S1090.127,709.251,1090.156,708.742Z" transform="translate(-1088.872 -707.79)" fill="#dd7290"/>
            <path id="Path_773" data-name="Path 773" d="M1091.3,708.9c.023-.5-.242-.928-.591-.957s-.658.363-.686.869.237.944.591.966S1091.277,709.409,1091.3,708.9Z" transform="translate(-1088.78 -707.778)" fill="#dd7290"/>
            <path id="Path_774" data-name="Path 774" d="M1092.444,709.059c.017-.5-.251-.93-.6-.958s-.653.364-.676.87.245.943.6.966S1092.426,709.567,1092.444,709.059Z" transform="translate(-1088.687 -707.765)" fill="#dd7290"/>
            <path id="Path_775" data-name="Path 775" d="M1093.585,709.215c.012-.5-.259-.93-.607-.957s-.646.364-.665.871.254.945.609.966S1093.572,709.723,1093.585,709.215Z" transform="translate(-1088.594 -707.752)" fill="#dd7290"/>
            <path id="Path_776" data-name="Path 776" d="M1094.563,709.394c-.067-.495-.4-.911-.75-.934s-.582.357-.52.852.4.926.753.948S1094.63,709.893,1094.563,709.394Z" transform="translate(-1088.516 -707.736)" fill="#d36789"/>
            <path id="Path_777" data-name="Path 777" d="M1095.714,709.549c-.071-.5-.41-.911-.758-.934s-.574.357-.508.853.409.925.765.948S1095.787,710.048,1095.714,709.549Z" transform="translate(-1088.422 -707.723)" fill="#d36789"/>
            <path id="Path_778" data-name="Path 778" d="M1096.864,709.7c-.078-.495-.42-.912-.766-.935s-.574.358-.5.854.417.926.765.949S1096.94,710.2,1096.864,709.7Z" transform="translate(-1088.33 -707.711)" fill="#d36789"/>
            <path id="Path_779" data-name="Path 779" d="M1098.01,709.86c-.082-.5-.429-.912-.774-.935s-.564.358-.486.853.426.927.777.95S1098.095,710.359,1098.01,709.86Z" transform="translate(-1088.237 -707.698)" fill="#d36789"/>
            <path id="Path_780" data-name="Path 780" d="M1099.268,710c-.013-.507-.3-.933-.647-.958s-.617.367-.609.874.3.947.65.969S1099.281,710.51,1099.268,710Z" transform="translate(-1088.133 -707.689)" fill="#dd7290"/>
            <path id="Path_781" data-name="Path 781" d="M1100.4,710.155c-.017-.507-.311-.934-.655-.958s-.613.367-.6.875.308.947.656.968S1100.417,710.666,1100.4,710.155Z" transform="translate(-1088.042 -707.676)" fill="#dd7290"/>
            <path id="Path_782" data-name="Path 782" d="M1101.528,710.311c-.024-.508-.319-.934-.662-.958s-.607.367-.588.875.317.949.665.969S1101.552,710.822,1101.528,710.311Z" transform="translate(-1087.95 -707.664)" fill="#dd7290"/>
            <path id="Path_783" data-name="Path 783" d="M1102.656,710.466c-.028-.507-.329-.934-.67-.957s-.6.367-.574.877.325.948.67.971S1102.684,710.977,1102.656,710.466Z" transform="translate(-1087.859 -707.651)" fill="#c95579"/>
            <path id="Path_784" data-name="Path 784" d="M1103.782,710.621c-.035-.507-.337-.934-.678-.957s-.6.369-.567.877.334.948.681.971S1103.816,711.133,1103.782,710.621Z" transform="translate(-1087.768 -707.639)" fill="#c95579"/>
          </g>
          <path id="Path_785" data-name="Path 785" d="M1096.892,680.4c-4.564-2.914-6.254.442-4.992,1.011,5.942,2.674,8.64,23.555,10.622,31.579.732.038,1.447.053,2.131.04C1104.652,713.022,1101.456,683.31,1096.892,680.4Z" transform="translate(-1061.182 -663.482)" fill="#c95579"/>
          <path id="Path_786" data-name="Path 786" d="M1100.41,697.105l-11.366.579-.09-1.2,11.322-1.026Z" transform="translate(-1061.387 -662.169)" fill="#c95579"/>
          <path id="Path_787" data-name="Path 787" d="M1090.069,679.555a2.11,2.11,0,0,0,1.712,3.727c2.771-.156,3.128-2.488,2.354-3.571S1090.924,678.969,1090.069,679.555Z" transform="translate(-1061.361 -663.5)" fill="#e89ab2"/>
          <path id="Path_788" data-name="Path 788" d="M1089.927,680.348c-.911,1.179.191,3.437,2.488,2.5s1.945-2.915.987-3.565S1090.486,679.625,1089.927,680.348Z" transform="translate(-1061.334 -663.494)" fill="#f9c1a5"/>
          <path id="Path_789" data-name="Path 789" d="M1098.806,684.017l-1.213,1.164s3.619,3.4,2.327,4.594c-1.71,1.573-7.877-1.5-7.877-1.5l-.74.54c1.794,1.282,7.628,4.644,9.894,1.73C1103.259,687.9,1098.806,684.017,1098.806,684.017Z" transform="translate(-1061.197 -663.094)" fill="#f9c1a5"/>
          <path id="Path_790" data-name="Path 790" d="M1098.34,684.017l-1.214,1.164s2.554,2.4,2.6,3.874a1.657,1.657,0,0,1,.733,1.244,1.715,1.715,0,0,1-.811,1.308,2.717,2.717,0,0,0,1.148-.86C1102.854,688.095,1098.34,684.017,1098.34,684.017Z" transform="translate(-1060.726 -663.094)" fill="#f9c1a5"/>
          <g id="Group_325" data-name="Group 325" transform="translate(30.112 20.99)">
            <path id="Path_791" data-name="Path 791" d="M1097.127,685.093" transform="translate(-1090.839 -683.997)" fill="#ef8f6f"/>
            <path id="Path_792" data-name="Path 792" d="M1098.883,684.079c1.123,1.178,3.553,4.134,1.938,6.213-2.073,2.666-7.184-.088-9.415-1.559l-.1.072c1.794,1.283,7.695,4.846,9.96,1.931C1103.172,688.286,1099.447,684.611,1098.883,684.079Z" transform="translate(-1091.309 -684.079)" fill="#ef8f6f"/>
          </g>
          <path id="Path_793" data-name="Path 793" d="M1095.342,680.444c1.126-.75,6.357,4.149,6.266,4.678s-2.954,3.356-4.027,2.738S1093.686,681.547,1095.342,680.444Z" transform="translate(-1060.912 -663.389)" fill="#f4b3cb"/>
          <path id="Path_794" data-name="Path 794" d="M1095.747,680.387a6.579,6.579,0,0,1,1.829,2.116c1.315,2.219,1.5,4.4.7,4.958-.342.236-.831.141-1.362-.2a2.345,2.345,0,0,0,.59.6c1.073.618,3.939-2.207,4.027-2.737C1101.615,684.647,1097.431,680.673,1095.747,680.387Z" transform="translate(-1060.838 -663.388)" fill="#e89ab2"/>
          <path id="Path_795" data-name="Path 795" d="M1090.061,681.234l-.6-3.489,2.088-1.137,2.376,3.658Z" transform="translate(-1061.346 -663.693)" fill="#ffcd9c"/>
          <path id="Path_796" data-name="Path 796" d="M1080.706,673.669c1.42,4.533,2.14,11.471,11.119,8.332,4.1-1.435,4.372-6.78,3.9-9.1-.368-1.814-4.379-9.943-9.564-7.925C1080.214,667.291,1082.488,670.1,1080.706,673.669Z" transform="translate(-1062.054 -664.659)" fill="#f9c1a5"/>
          <path id="Path_797" data-name="Path 797" d="M1094.257,675.373c-.664-1.092-.738-3.707.6-4.237s1.746,2.847,1.478,3.445S1095.062,676.7,1094.257,675.373Z" transform="translate(-1060.996 -664.14)" fill="#f9c1a5"/>
          <path id="Path_798" data-name="Path 798" d="M1094.568,674.791c-.389-.639-.432-2.169.354-2.479s1.021,1.667.86,2.015S1095.038,675.566,1094.568,674.791Z" transform="translate(-1060.955 -664.043)" fill="#ef8f6f"/>
          <path id="Path_799" data-name="Path 799" d="M1094.61,675.193c-.252-.415-.28-1.409.23-1.61s.663,1.082.562,1.308S1094.918,675.7,1094.61,675.193Z" transform="translate(-1060.944 -663.94)" fill="#ffcd9c"/>
          <path id="Path_800" data-name="Path 800" d="M1086.9,718.458h4.432s-.268-1.59-.94-1.59A17.433,17.433,0,0,0,1086.9,718.458Z" transform="translate(-1061.553 -660.438)" fill="#f9c1a5"/>
          <path id="Path_801" data-name="Path 801" d="M1099.88,718.449h3.423s-1.411-1.522-2.081-1.522S1099.88,718.449,1099.88,718.449Z" transform="translate(-1060.504 -660.433)" fill="#f9c1a5"/>
          <path id="Path_802" data-name="Path 802" d="M1088.8,697.277l-.118-3.091,13.787-.3.535,2.2Z" transform="translate(-1061.409 -662.296)" fill="#f9b4cd"/>
          <path id="Path_803" data-name="Path 803" d="M1098.346,696.417l3.923-.329-.535-2.2-4.035.086A5.436,5.436,0,0,1,1098.346,696.417Z" transform="translate(-1060.68 -662.296)" fill="#e89ab2"/>
          <path id="Path_804" data-name="Path 804" d="M1076.893,720.627l16.781-37.215.535.088-16.246,37.39Z" transform="translate(-1062.362 -663.143)" fill="#91564a"/>
          <path id="Path_805" data-name="Path 805" d="M1077.346,716.1l1.281-2.217,1.244.548-1.1,2.648Z" transform="translate(-1062.325 -660.68)" fill="#e5cc93"/>
          <path id="Path_806" data-name="Path 806" d="M1079.161,718.939h-15.709l.805-.663s5.136.062,6.645-.661C1073.253,716.489,1082.786,713.509,1079.161,718.939Z" transform="translate(-1063.449 -660.526)" fill="#aac9d1"/>
          <path id="Path_807" data-name="Path 807" d="M1079.217,715.947c.286.344-.057,1.266-2.53,2.435-.917.432-8.8-.066-12.823.2l-.415.341h15.71C1080.34,717.159,1080.122,716.289,1079.217,715.947Z" transform="translate(-1063.449 -660.513)" fill="#88b5bf"/>
          <path id="Path_808" data-name="Path 808" d="M1072.232,718.581a15.4,15.4,0,0,0,3.119-1.226l-1.2,1.27Z" transform="translate(-1062.739 -660.399)" fill="#88b5bf"/>
          <path id="Path_809" data-name="Path 809" d="M1069.128,718.575a32.74,32.74,0,0,0,4.02-1.1l-2.14,1.137Z" transform="translate(-1062.99 -660.389)" fill="#88b5bf"/>
          <path id="Path_810" data-name="Path 810" d="M1076.6,718.878h2.584s-.361-2.9-.6-2.251A5.459,5.459,0,0,1,1076.6,718.878Z" transform="translate(-1062.385 -660.465)" fill="#aac9d1"/>
          <path id="Path_811" data-name="Path 811" d="M1090.81,688.984c-.362-.038-.753-.191-.765-.344-.011-.131.28-.018.531-.028.224-.009.3-.009.287-.067a2.269,2.269,0,0,0-.627-.146c-.408-.078-.67-.191-.68-.347s.258-.029.625,0c.323.025.467.057.464-.1,0-.069-.217-.111-.548-.242-.376-.146-.591-.325-.564-.438.042-.159.191.025.631.134.586.148.726.274,1.029.121.287-.145-.765-.678-.545-.847.3-.226,1.959,1.239,1.953,1.689C1092.593,689.029,1091.959,689.1,1090.81,688.984Z" transform="translate(-1061.34 -662.881)" fill="#f9c1a5"/>
          <path id="Path_812" data-name="Path 812" d="M1093.3,709.634c-.61-2.263-.042-6.447.178-6.466,1.07-.089,5.1,5.513,4.726,7.221A24.908,24.908,0,0,1,1093.3,709.634Z" transform="translate(-1061.057 -661.546)" fill="#d36789"/>
          <g id="Group_326" data-name="Group 326" transform="translate(20.621 9.828)">
            <path id="Path_813" data-name="Path 813" d="M1083.929,673.88a.949.949,0,0,0-1.1.107A.87.87,0,0,0,1082.6,675c.027.054.155.184.158.044.011-.356.024-.6.339-.823a1.127,1.127,0,0,1,.869-.16c.079.016,0-.161-.041-.182Z" transform="translate(-1082.528 -673.752)" fill="#d59280"/>
          </g>
          <g id="Group_327" data-name="Group 327" transform="translate(27.297 7.737)">
            <path id="Path_814" data-name="Path 814" d="M1088.821,672.647a1.2,1.2,0,0,1,.67-.479.8.8,0,0,1,.856.318c.085.088.138.011.107-.089a.924.924,0,0,0-1.749.1c-.012.043.066.216.112.149Z" transform="translate(-1088.704 -671.817)" fill="#d59280"/>
          </g>
          <path id="Path_815" data-name="Path 815" d="M1087.764,676.12a.676.676,0,0,1-.213.2.706.706,0,0,1-.308.064c-.133.01-.312.015-.3-.175.01-.113.13-.148.223-.168a.75.75,0,0,0,.319-.115c.083-.068.141-.177.235-.231.121-.069.221.089.191.2a.627.627,0,0,1-.15.222Z" transform="translate(-1061.549 -663.768)" fill="#eaaf99"/>
          <g id="Group_328" data-name="Group 328" transform="translate(20.843 13.043)" opacity="0.5">
            <path id="Path_816" data-name="Path 816" d="M1085.657,677.412c-.123-.489-.815-.734-1.543-.55s-1.222.727-1.1,1.216.815.734,1.545.55S1085.78,677.9,1085.657,677.412Z" transform="translate(-1082.712 -676.721)" fill="#f08888" opacity="0.5" style="isolation: isolate"/>
            <ellipse id="Ellipse_31" data-name="Ellipse 31" cx="1.363" cy="0.676" rx="1.363" ry="0.676" transform="matrix(0.97, -0.245, 0.245, 0.97, 0.276, 0.666)" fill="#f08888" opacity="0.5" style="isolation: isolate"/>
            <path id="Path_817" data-name="Path 817" d="M1085.606,677.428c-.134-.526-.879-.792-1.667-.593s-1.319.787-1.186,1.313.879.792,1.667.593S1085.739,677.958,1085.606,677.428Z" transform="translate(-1082.733 -676.724)" fill="#ffc8a4" opacity="0.5" style="isolation: isolate"/>
            <path id="Path_818" data-name="Path 818" d="M1085.986,677.335c-.123-.487-.946-.7-1.839-.479s-1.515.8-1.392,1.292.946.7,1.838.478S1086.107,677.824,1085.986,677.335Z" transform="translate(-1082.733 -676.724)" fill="#f08888" opacity="0.5" style="isolation: isolate"/>
          </g>
          <g id="Group_329" data-name="Group 329" transform="translate(28.255 10.273)" opacity="0.5">
            <path id="Path_819" data-name="Path 819" d="M1089.938,676.3c-.311-.4-.084-1.093.507-1.56s1.322-.523,1.634-.128.084,1.094-.507,1.559S1090.249,676.694,1089.938,676.3Z" transform="translate(-1089.573 -674.149)" fill="#f08888" opacity="0.5" style="isolation: isolate"/>
            <path id="Path_820" data-name="Path 820" d="M1089.829,676.373c-.231-.293.061-.908.653-1.374s1.257-.607,1.487-.313-.061.908-.653,1.375S1090.06,676.666,1089.829,676.373Z" transform="translate(-1089.577 -674.135)" fill="#f08888" opacity="0.5" style="isolation: isolate"/>
            <path id="Path_821" data-name="Path 821" d="M1089.993,676.268c-.336-.426-.1-1.179.547-1.682s1.427-.565,1.763-.139.1,1.179-.546,1.683S1090.329,676.694,1089.993,676.268Z" transform="translate(-1089.57 -674.164)" fill="#ffc8a4" opacity="0.5" style="isolation: isolate"/>
            <path id="Path_822" data-name="Path 822" d="M1089.707,676.5c-.311-.394.022-1.177.745-1.747s1.561-.71,1.871-.316-.022,1.177-.744,1.747S1090.018,676.9,1089.707,676.5Z" transform="translate(-1089.59 -674.16)" fill="#f08888" opacity="0.5" style="isolation: isolate"/>
          </g>
          <path id="Path_823" data-name="Path 823" d="M1084.385,677.227c.515-.143.245-1.071-.256-1.007C1083.452,676.307,1083.871,677.368,1084.385,677.227Z" transform="translate(-1061.806 -663.725)" fill="#79354f"/>
          <path id="Path_824" data-name="Path 824" d="M1090.408,675.087c.493-.2.117-1.093-.375-.968C1089.379,674.284,1089.918,675.288,1090.408,675.087Z" transform="translate(-1061.324 -663.896)" fill="#79354f"/>
        </g>
        <path id="Path_825" data-name="Path 825" d="M1083.23,672.431c1.3-1.6,3.561-2.024,5.628-2.494,1.542-.35,2.7-.746,2.943-1.592-.281.948.8,1.9,1.405,2.5.928.914.557,1.787.991,2.9.09.489.442.446.484.3a8.39,8.39,0,0,1,.324-1.5c1.018-1.207.383-2.4-.348-4.294-1.532-3.947-8.059-4.831-11.484-3.553-3.512,1.311-3.935,10.239-1.7,12.918A6.042,6.042,0,0,1,1083.23,672.431Z" transform="translate(-1062.103 -663.104)" fill="#b76e51"/>
        <path id="Path_826" data-name="Path 826" d="M1090.39,678.155a4.313,4.313,0,0,1-1.68.823,1.963,1.963,0,0,1-1.5-.3" transform="translate(-1061.528 -661.973)" fill="none" stroke="#d5697d" stroke-miterlimit="10" stroke-width="1"/>
      </g>
    </g>
    <rect id="Rectangle_1348" data-name="Rectangle 1348" width="92.824" height="29.666" rx="13.281" transform="translate(27.753 119.619)" fill="#345995"/>
    <g id="" transform="translate(44.977 122.546)" style="isolation: isolate">
      <text id="-2" data-name="" transform="translate(0 16)" fill="#fff" font-size="17" font-family="SegoeUI, Segoe UI" style="isolation: isolate"><tspan x="0" y="0"></tspan></text>
    </g>
  </g>
</svg>
