<svg xmlns="http://www.w3.org/2000/svg" width="137.626" height="147.387" viewBox="0 0 137.626 147.387">
  <g id="Group_3152" data-name="Group 3152" transform="translate(-522.936 -12.894)">
    <g id="Group_278" data-name="Group 278" transform="translate(523.454 13.395)">
      <path id="Path_311-3" data-name="Path 311-3" d="M1472.627,737.239c2.181-7.515,9.665-12.026,9.186-20.739-.22-4.013-2.126-7.2-3.413-10.805-3.025-8.477-5.578-21.818-.94-30.144,5.943-10.656,19.859-9.457,28.638-14.318,4.759-2.636,8.627-7.082,12.219-11.63,2.61-3.308,5.167-6.762,8.361-9.243a18.634,18.634,0,0,1,22.3-.513c6.828,4.863,11.224,13.463,20.112,11.592,3.687-.776,7.439-2.456,11.168-1.252a16.115,16.115,0,0,1,9,8.184c5.4,10.735-3.4,22.084.277,33.17,2.744,8.266,10.653,11.362,15.064,18.041,3.551,5.377,4.389,12.218,3.3,18.8-2.194,13.264-3.947,27.375-8.135,39.988-4.594,13.849-18.311,13.978-29.023,13.993-16.278.024-33.141,1.519-49.284-.8-12.6-1.81-27.263-6.1-37.725-15.024C1476.175,760.1,1469.293,748.726,1472.627,737.239Z" transform="translate(-1471.764 -636.393)" fill="#fff" stroke="#f5bf53" stroke-width="1"/>
    </g>
    <g id="Group_1104" data-name="Group 1104" transform="translate(535.959 19.145)">
      <g id="Layer_1" data-name="Layer 1">
        <path id="Path_2372" data-name="Path 2372" d="M1586.79,723.164l-84.137.806c-9.627,0-19.319-7.2-19.319-11.668h0c0-9.627,4.954-11.818,14.581-11.818l90.584-2.3c7.656,1.761,13.685,6.631,12.615,9.676l.269,1.667C1601.033,712.731,1596.417,723.164,1586.79,723.164Z" transform="translate(-1483.334 -637.147)" fill="#c2b59b"/>
        <ellipse id="Ellipse_72" data-name="Ellipse 72" cx="23.606" cy="6.689" rx="23.606" ry="6.689" transform="translate(13.221 70.524)" fill="#b39f79"/>
        <g id="Group_1095" data-name="Group 1095" transform="translate(10.694 13.024)">
          <path id="Path_2373" data-name="Path 2373" d="M1526.2,697.049s5.8,14.641,6.7,17.141-3.417,4.28-4.636.463-4.229-17.608-4.229-17.608Z" transform="translate(-1490.738 -650.263)" fill="#b28100"/>
          <path id="Path_2374" data-name="Path 2374" d="M1498.54,657.086l-3.652.311,8.555,43.692,33.792-1.877-1.06-4.535Z" transform="translate(-1493.094 -653.494)" fill="#c18c00"/>
          <path id="Path_2375" data-name="Path 2375" d="M1496.824,655.9s4.284-.71,10.788-1.313a180.321,180.321,0,0,1,21.987-.76s3.331,24.211,7.477,43.794c0,0-20.836.847-32.728,1.435C1504.351,699.055,1499.442,676.953,1496.824,655.9Z" transform="translate(-1492.937 -653.762)" fill="#fbf0df"/>
          <path id="Path_2376" data-name="Path 2376" d="M1511.267,697.184s12.834-.676,20.632-1.273l-1.758-3.244-17.588.944Z" transform="translate(-1491.769 -650.617)" fill="#d1d3d4"/>
          <path id="Path_2377" data-name="Path 2377" d="M1495.022,657.37l-1.794,2.8,8.626,42.167,1.722-1.276Z" transform="translate(-1493.228 -653.471)" fill="#b28100"/>
          <path id="Path_2378" data-name="Path 2378" d="M1513.9,697.725s-5.243,14.851-6.042,17.383,3.577,4.147,4.65.288,3.557-17.752,3.557-17.752Z" transform="translate(-1492.053 -650.215)" fill="#b28100"/>
          <path id="Path_2379" data-name="Path 2379" d="M1510.336,698.182s-7.642,11.381-8.864,13.343,2.115,4.273,3.859,1.249,7.114-14.593,7.114-14.593Z" transform="translate(-1492.583 -650.171)" fill="#b28100"/>
          <path id="Path_2380" data-name="Path 2380" d="M1501.209,699.212l33.747-1.964,1.766-1.191-33.792,1.877Z" transform="translate(-1492.583 -650.343)" fill="#966d00"/>
        </g>
        <path id="Path_2381" data-name="Path 2381" d="M1536.412,676.286c-1.31-.519-1.722-.751-2.072,1.761s1.875,2.173,2.352,1.84S1537.954,676.9,1536.412,676.286Z" transform="translate(-1479.213 -638.945)" fill="#f9c1a5"/>
        <ellipse id="Ellipse_73" data-name="Ellipse 73" cx="21.486" cy="5.953" rx="21.486" ry="5.953" transform="translate(62.193 70.705)" fill="#b39f79"/>
        <path id="Path_2382" data-name="Path 2382" d="M1542.332,684.408a17.24,17.24,0,0,1,3.4,1.27,3.871,3.871,0,0,0,5.053-.56c.025-.023.6-.722.619-.747a31.292,31.292,0,0,0,2.853-3.445c.323-.426,2.837-2.645,1.644-3.458-3.119-2.123-4.477,2.894-5.5,4.336-.659.931-1.745,1.607-7.1-.441" transform="translate(-1478.564 -638.864)" fill="#f9c1a5"/>
        <path id="Path_2383" data-name="Path 2383" d="M1578.439,687.722c-.287.615-.594-2.879-.79-4.2a11.669,11.669,0,0,0-1.979-5.25c-1.108-1.278-3.673-1.683-7.082-2.412-2.068-.441-9.236-.731-8.1,1.7,1.745,3.725.423,1.627,5.31,1.707,1.171.019,6.922.333,7.464,2.374.274,1.03.86,2.258,1.316,4.326" transform="translate(-1477.106 -638.976)" fill="#f9c1a5"/>
        <path id="Path_2384" data-name="Path 2384" d="M1577.211,666.129c-.806-1.562-1.657-3.132-2.616-4.638-.832-1.306-.7-2.244-.609-3.755a14.39,14.39,0,0,0-2.91-9.808c-2.051-2.691-3.369-3.643-7.51-4.456-9.136-1.8-23.482,2.807-26,10.467-1.122,3.418,1,6.568,2.009,9.72a20.923,20.923,0,0,1,.827,9.692c-.426,2.574-.782,5.382,2.923,6.443,1.6.457,3.128.574,4.489-.556,1.526,2.168,4.965.054,6.284-1.435a8.951,8.951,0,0,0,4.211,1.226c1.733-.109,2.392-1.318,3.564-1.5,1.2-.186,2.166.691,3.682.286,1.2-.321,2.447-1.6,3.275-2.277,2.152,1.471,5.246-.052,6.394-1.818C1580.3,673.732,1579.168,669.924,1577.211,666.129Z" transform="translate(-1478.975 -641.602)" fill="#b76e51"/>
        <g id="Group_1096" data-name="Group 1096" transform="translate(58.913 20.895)">
          <path id="Path_2385" data-name="Path 2385" d="M1538.062,666.936c1.041-2.227,3.445-1.608,4.816-.137,1.024,1.1,1.809,3.711.152,4.639a3.885,3.885,0,0,1-3.678-.54A3.3,3.3,0,0,1,1538.062,666.936Z" transform="translate(-1537.84 -660.686)" fill="#fcc7ad"/>
          <path id="Path_2386" data-name="Path 2386" d="M1573.553,661.957c-1.616-1.854-3.759-.593-4.667,1.2-.68,1.34-.717,4.065,1.132,4.5a3.884,3.884,0,0,0,3.386-1.531A3.3,3.3,0,0,0,1573.553,661.957Z" transform="translate(-1535.365 -661.044)" fill="#fcc7ad"/>
        </g>
        <path id="Path_2387" data-name="Path 2387" d="M1570,648.918c-2.359-3.331-7.333-3.157-10.985-2.983-5.916.279-11.434.66-16.42,4.377-5.978,4.455-1.327,14.162-.5,20,.765,5.409,5.239,6.525,8.856,6.752s6.014.433,6.01,1.723-.444,4.945,2.351,4.553l.083-.012.083-.011c2.8-.393,1.471-3.853.884-5.072-.559-1.16,1.945-2.042,5.359-3.253,3.149-1.121,6.612-3.505,6.852-7.187a26.287,26.287,0,0,0-.271-4.955c-.407-4.093.119-9.953-2.052-13.554C1570.167,649.165,1570.086,649.039,1570,648.918Z" transform="translate(-1478.786 -641.378)" fill="#f9c1a5"/>
        <path id="Path_2388" data-name="Path 2388" d="M1556.713,666.964a1.7,1.7,0,0,1-.678.318,1.823,1.823,0,0,1-.8-.091c-.331-.083-.771-.214-.574-.664.115-.267.43-.254.67-.225a1.931,1.931,0,0,0,.861-.026,5.315,5.315,0,0,1,.753-.373c.349-.072.467.391.318.632-.124.2-.358.281-.54.416Z" transform="translate(-1477.571 -639.758)" fill="#eaaf99"/>
        <g id="Group_1097" data-name="Group 1097" transform="translate(64.471 25.83)" opacity="0.5">
          <path id="Path_2389" data-name="Path 2389" d="M1550.615,668.39c.091-1.282-1.39-2.429-3.306-2.565s-3.541.793-3.637,2.075,1.39,2.429,3.306,2.564S1550.523,669.67,1550.615,668.39Z" transform="translate(-1542.927 -665.595)" fill="#f08888" opacity="0.5" style="isolation: isolate"/>
          <ellipse id="Ellipse_74" data-name="Ellipse 74" cx="1.724" cy="3.48" rx="1.724" ry="3.48" transform="translate(0.988 4.049) rotate(-85.988)" fill="#f08888" opacity="0.5" style="isolation: isolate"/>
          <path id="Path_2390" data-name="Path 2390" d="M1550.478,668.391c.1-1.381-1.5-2.621-3.568-2.766s-3.828.855-3.923,2.238,1.5,2.621,3.568,2.766S1550.379,669.773,1550.478,668.391Z" transform="translate(-1542.982 -665.611)" fill="#ffc8a4" opacity="0.5" style="isolation: isolate"/>
          <path id="Path_2391" data-name="Path 2391" d="M1551.47,668.442c.091-1.282-1.735-2.454-4.077-2.62s-4.315.739-4.4,2.02,1.735,2.455,4.078,2.62S1551.383,669.728,1551.47,668.442Z" transform="translate(-1542.982 -665.595)" fill="#f08888" opacity="0.5" style="isolation: isolate"/>
        </g>
        <g id="Group_1098" data-name="Group 1098" transform="translate(84.928 22.671)" opacity="0.5">
          <path id="Path_2392" data-name="Path 2392" d="M1562.691,666.7c-.441-1.206.669-2.718,2.471-3.377s3.624-.215,4.065.991-.67,2.718-2.471,3.377S1563.131,667.907,1562.691,666.7Z" transform="translate(-1561.854 -662.661)" fill="#f08888" opacity="0.5" style="isolation: isolate"/>
          <path id="Path_2393" data-name="Path 2393" d="M1562.372,666.78c-.326-.895.871-2.153,2.679-2.812s3.532-.468,3.859.426-.871,2.153-2.679,2.812S1562.7,667.674,1562.372,666.78Z" transform="translate(-1561.876 -662.616)" fill="#f08888" opacity="0.5" style="isolation: isolate"/>
          <path id="Path_2394" data-name="Path 2394" d="M1562.859,666.661c-.479-1.3.719-2.933,2.667-3.644s3.911-.233,4.385,1.069-.719,2.933-2.665,3.645S1563.333,667.963,1562.859,666.661Z" transform="translate(-1561.841 -662.688)" fill="#ffc8a4" opacity="0.5" style="isolation: isolate"/>
          <path id="Path_2395" data-name="Path 2395" d="M1561.989,666.985c-.44-1.205.991-2.836,3.2-3.642s4.352-.478,4.791.726-.991,2.837-3.2,3.642S1562.43,668.193,1561.989,666.985Z" transform="translate(-1561.909 -662.671)" fill="#f08888" opacity="0.5" style="isolation: isolate"/>
        </g>
        <path id="Path_2396" data-name="Path 2396" d="M1547.623,666.98c1.362.065,1.451-2.4.182-2.645C1546.1,664.006,1546.273,666.915,1547.623,666.98Z" transform="translate(-1478.221 -639.886)" fill="#79354f"/>
        <path id="Path_2397" data-name="Path 2397" d="M1563.667,664.736c1.36-.1,1.154-2.556-.135-2.647C1561.8,661.967,1562.321,664.834,1563.667,664.736Z" transform="translate(-1476.939 -640.066)" fill="#79354f"/>
        <path id="Path_2398" data-name="Path 2398" d="M1552.187,668.013a3.612,3.612,0,0,0,2.723,1.655,5.651,5.651,0,0,0,4.363-1.148" transform="translate(-1477.767 -639.587)" fill="none" stroke="#d5697d" stroke-miterlimit="10" stroke-width="0.46"/>
        <path id="Path_2399" data-name="Path 2399" d="M1545.323,661.037a41.678,41.678,0,0,1,13.226-5.664c3.546-.842,6.2-1.818,6.736-3.975-.614,2.42,1.914,4.914,3.337,6.467,2.178,2.377,2.251,4.127,3.3,7.011.1-.332.35-.749.442-1.125.017.383.125.825.129,1.2.651-4.965,1.149-8.812-.612-13.685-3.683-10.181-17.362-7.985-25.227-4.83a13.74,13.74,0,0,0-5.736,20.721c1.017-1.392.958-3.589,2.362-4.824A19.987,19.987,0,0,1,1545.323,661.037Z" transform="translate(-1478.891 -641.544)" fill="#b76e51"/>
        <g id="Group_1099" data-name="Group 1099" transform="translate(67.501 19.085)">
          <path id="Path_2400" data-name="Path 2400" d="M1548.688,659.869a1.745,1.745,0,0,0-2.017-.307,1.6,1.6,0,0,0-.861,1.707c.025.108.191.4.264.151.179-.63.313-1.059.98-1.315a2.06,2.06,0,0,1,1.627.108c.135.064.066-.288.01-.344Z" transform="translate(-1545.786 -659.37)" fill="#d59280"/>
        </g>
        <g id="Group_1100" data-name="Group 1100" transform="translate(84.034 15.205)">
          <path id="Path_2401" data-name="Path 2401" d="M1561.227,656.948a2.214,2.214,0,0,1,1.422-.553c.712-.032,1.06.405,1.385.957.116.191.243.081.232-.11-.1-1.692-2.38-1.941-3.171-.609-.041.072.018.416.133.318Z" transform="translate(-1561.082 -655.78)" fill="#d59280"/>
        </g>
        <path id="Path_2402" data-name="Path 2402" d="M1558.518,694.815c-.516-1.12-1.806-2.2-2.933-1.254-1.455,1.217-.776,5.215-.542,6.89.185,1.313.565,2.642.872,3.938.242,1.019.116,2.8.821,3.627a1.956,1.956,0,0,0,2.6.107c.746-.8.418-1.9.25-2.832a36.369,36.369,0,0,1-.7-5.509C1558.838,698.122,1559.262,696.433,1558.518,694.815Z" transform="translate(-1477.566 -637.55)" fill="#f9c1a5"/>
        <path id="Path_2403" data-name="Path 2403" d="M1560.815,699.836c-.123-1.128-.441-2.2-.67-3.327a3.2,3.2,0,0,1,.654-2.836,2.174,2.174,0,0,1,2.532-.823c1.017.574,1.148,2.076,1.244,3.107.109,1.283.318,2.487.375,3.772.071,1.61-.058,3.157,0,4.775.027.754.405,1.925.026,2.628a2.078,2.078,0,0,1-2.672.723c-.66-.487-.554-1.339-.66-2.089C1561.357,703.812,1561.028,701.781,1560.815,699.836Z" transform="translate(-1477.131 -637.593)" fill="#f9c1a5"/>
        <path id="Path_2404" data-name="Path 2404" d="M1556.307,705.385c.032.021.059.04.083.053a1.421,1.421,0,0,0,.842.224,3.347,3.347,0,0,0,1.675-.462c.256-.148,1.067-.951.994-.157-.022.244-.166.46-.205.7-.043.261.042.366-.191.561a3.691,3.691,0,0,1-1.205.721,2.5,2.5,0,0,1-2.009-.172c-.287-.243-.191-.637-.278-.94-.058-.2-.5-.408-.315-.654C1555.837,705.083,1556.129,705.269,1556.307,705.385Z" transform="translate(-1477.487 -636.62)" fill="#fff"/>
        <path id="Path_2405" data-name="Path 2405" d="M1559.816,705.473c-.027.56-.664.847-1.116,1.008-.773.276-2.392.42-2.612-.666a5.708,5.708,0,0,0-.6,1.144c-.191.409-.374.819-.53,1.244a2.49,2.49,0,0,0-.247,1.425c.051.237.031.57.191.765a1.36,1.36,0,0,0,.659.288,7.014,7.014,0,0,0,2.923-.1,1.9,1.9,0,0,0,.957-.323,1.616,1.616,0,0,0,.454-.683,5.307,5.307,0,0,0,.347-3.143C1560.15,706.183,1560.1,705.59,1559.816,705.473Z" transform="translate(-1477.564 -636.558)" fill="#f4b333"/>
        <path id="Path_2406" data-name="Path 2406" d="M1554.77,709.995s.326.527,2.1.389,2.444-.344,2.716-.681a8.471,8.471,0,0,0,.741-3.087,4.64,4.64,0,0,1,.09.957c-.035.322-.192,2.618-.8,2.926a6.863,6.863,0,0,1-2.642.562,3.232,3.232,0,0,1-2.1-.469A.681.681,0,0,1,1554.77,709.995Z" transform="translate(-1477.561 -636.465)" fill="#d4d4d4"/>
        <path id="Path_2407" data-name="Path 2407" d="M1564.74,704.6l-.071.068a1.436,1.436,0,0,1-.788.374,3.349,3.349,0,0,1-1.731-.148c-.279-.1-1.222-.738-1.006.028.067.237.249.423.331.653.091.25.025.369.293.517a3.715,3.715,0,0,0,1.317.489,2.5,2.5,0,0,0,1.941-.537c.237-.287.071-.66.1-.974.021-.212.418-.494.191-.7C1565.148,704.214,1564.894,704.45,1564.74,704.6Z" transform="translate(-1477.046 -636.651)" fill="#fff"/>
        <path id="Path_2408" data-name="Path 2408" d="M1561.395,705.354c.129.545.807.711,1.282.787.811.131,2.428-.023,2.447-1.131a5.689,5.689,0,0,1,.8,1.013c.261.367.518.738.747,1.126a2.492,2.492,0,0,1,.5,1.355,1.766,1.766,0,0,1-.053.788,1.352,1.352,0,0,1-.6.406,7.005,7.005,0,0,1-2.89.438,1.9,1.9,0,0,1-1-.143,1.611,1.611,0,0,1-.575-.588,5.324,5.324,0,0,1-.916-3.026C1561.2,706.112,1561.136,705.519,1561.395,705.354Z" transform="translate(-1477.043 -636.595)" fill="#f4b333"/>
        <path id="Path_2409" data-name="Path 2409" d="M1567.194,708.811s-.225.574-2,.765-2.465.108-2.794-.173a8.453,8.453,0,0,1-1.294-2.9,4.6,4.6,0,0,0,.089.958c.1.309.67,2.538,1.323,2.73a6.881,6.881,0,0,0,2.7.069c.967-.156,1.873-.558,1.979-.845A.679.679,0,0,0,1567.194,708.811Z" transform="translate(-1477.046 -636.475)" fill="#d4d4d4"/>
        <g id="Group_1101" data-name="Group 1101" transform="translate(78.304 69.493)">
          <path id="Path_2410" data-name="Path 2410" d="M1555.843,707.276c-.127.077-.04.633.1.583a4.364,4.364,0,0,1,1.493-.26,2.793,2.793,0,0,0-1.56.454c-.078.053-.021.383.062.351a3.166,3.166,0,0,1,1.444-.252c.543.015,1.052.215,1.585.231.228.006.086-.579.038-.67a1.262,1.262,0,0,0-.418-.455.988.988,0,0,1,.542.311c.178.211.226-.512.082-.67C1558.434,706.04,1556.646,706.786,1555.843,707.276Z" transform="translate(-1555.781 -705.967)" fill="#d4d4d4"/>
          <path id="Path_2411" data-name="Path 2411" d="M1565.583,707.148a2.757,2.757,0,0,0-1.553-.17,4.424,4.424,0,0,1,1.476-.009c.144.024.1-.538-.037-.59-.884-.336-2.776-.735-3.38.249-.114.183.1.882.233.635a.977.977,0,0,1,.442-.389,1.289,1.289,0,0,0-.322.521c-.033.106-.028.691.191.643.448-.1.847-.351,1.3-.466a3.329,3.329,0,0,1,1.655-.072C1565.7,707.526,1565.673,707.187,1565.583,707.148Z" transform="translate(-1555.273 -706.008)" fill="#d4d4d4"/>
        </g>
        <path id="Path_2412" data-name="Path 2412" d="M1554.823,677.017c1.222.191.842,2.6.414,3.718-.165.428-.495,1.218-1.026,1.3-.975.152-.765-1.4-.7-2.23S1551.744,676.53,1554.823,677.017Z" transform="translate(-1477.699 -638.864)" fill="#ffd8c1"/>
        <path id="Path_2413" data-name="Path 2413" d="M1560.063,676.52c-1,.734-.407,2.872.218,3.9.241.389.712,1.139,1.244,1.091.973-.09.5-1.515.279-2.321S1561.977,675.116,1560.063,676.52Z" transform="translate(-1477.173 -638.927)" fill="#ffd8c1"/>
        <path id="Path_2414" data-name="Path 2414" d="M1565.863,692.393a7.294,7.294,0,0,0-.308-.758,16,16,0,0,1-1.18-3.747c-.319-1.635-.765-3.233-1.118-4.868a12.2,12.2,0,0,1-.539-2.569c-.271.313,1.412-.2,1.308-.574-.293-1.046-.257-5.146-2.754-3.748a1.091,1.091,0,0,1-.8.107,2.16,2.16,0,0,0-.978-.085c.075.346.338.777.2,1.139a1.185,1.185,0,0,1-.491.544,3.028,3.028,0,0,1-2.189.484c-.946-.145-1.117-.941-1.053-1.854a3.352,3.352,0,0,0-1.229.35,1.947,1.947,0,0,1-1.011.257c-2.077-.021-1.663,2.446-1.2,3.745.135.383.754-.1,1.034.8.134.048.152,4.052.177,4.409a31.47,31.47,0,0,1,.027,4.862c-.2,2.3.307,4.779-.318,7.026-.22.8-.478,1.435.618,1.71,1.136.282,2.432-.391,3.548-.574a8.673,8.673,0,0,1,4.031,0c1.962.605,3.706-.7,5.4-1.56.226-.116.453-.231.68-.345a16.946,16.946,0,0,0-1.082-2.388C1566.316,693.988,1566.135,693.177,1565.863,692.393Z" transform="translate(-1477.77 -638.954)" fill="#f4b333"/>
        <path id="Path_2415" data-name="Path 2415" d="M1540.719,666.615s-6.846-9.725,1.75-16.792,18.818-5.9,22.481-4,8.013,6.066,7.144,18.138c0,0,4.149-11.322-4.484-17.689s-20.049-2.732-26.385,2.4S1536.616,662.624,1540.719,666.615Z" transform="translate(-1478.991 -641.619)" fill="#e40066"/>
        <path id="Path_2416" data-name="Path 2416" d="M1561.133,644.438c1.426-1.094,4.726,1.518,5.188,2.149,1.127-1.016.214-5.32-.625-4.836A39.084,39.084,0,0,0,1561.133,644.438Z" transform="translate(-1477.044 -641.713)" fill="#ffa7d4"/>
        <path id="Path_2417" data-name="Path 2417" d="M1571.021,650.711c.053-1.793-3.691-3.009-4.413-3.027.155-1.506,3.881-3.213,3.971-2.249A42.083,42.083,0,0,1,1571.021,650.711Z" transform="translate(-1476.601 -641.435)" fill="#ffa7d4"/>
        <path id="Path_2418" data-name="Path 2418" d="M1565.26,644.992c-.9.641-1.349,1.469-.7,2.441a8.354,8.354,0,0,0,2.337,1.645c.926-.624,2.43-1.354,1.531-2.61C1567.7,645.461,1566.322,644.137,1565.26,644.992Z" transform="translate(-1476.792 -641.47)" fill="#f196c1"/>
        <path id="Path_2419" data-name="Path 2419" d="M1579.007,686.944c-5.4-5.014-28.77,1.384-25.316,10.8S1589.625,696.8,1579.007,686.944Z" transform="translate(-1477.674 -638.198)" fill="#fbf0df"/>
        <path id="Path_2420" data-name="Path 2420" d="M1544.474,681.468s-3.4-1.027-4.428-2.17l-1.34,1.887s3.426,4.946,7.835,2.729Z" transform="translate(-1478.857 -638.674)" fill="#f9c1a5"/>
        <path id="Path_2421" data-name="Path 2421" d="M1539.063,681.533a5.175,5.175,0,0,1-3.86-1.454c-2.041-1.74-.061-3.9.574-4.442s2.972-1.362,3.541.654,1.085,3.35,1.085,3.35v1.551Z" transform="translate(-1479.213 -639.021)" fill="#f9c1a5"/>
        <g id="Group_1102" data-name="Group 1102" transform="translate(48.671 30.125)">
          <path id="Path_2422" data-name="Path 2422" d="M1543.019,669.606c-.453-.313-3.569,2.9-6.246,6.379-2.643,3.434-4.531,7.354-3.668,7.951s3.905-2.525,6.208-6.193C1541.645,674.023,1543.554,669.971,1543.019,669.606Z" transform="translate(-1527.998 -669.584)" fill="#c18c00"/>
          <path id="Path_2423" data-name="Path 2423" d="M1534.672,680.859a4.175,4.175,0,0,0-1.107-.574c-.651,1.421-.881,2.5-.462,2.785s1.349-.3,2.464-1.4A3.84,3.84,0,0,0,1534.672,680.859Z" transform="translate(-1527.998 -668.719)" fill="#d1d3d4"/>
          <path id="Path_2424" data-name="Path 2424" d="M1534.425,682.035c2.041,2.073-.347,7.7-6.06,5.525a4.99,4.99,0,0,0,1.329-3C1529.7,682.843,1532.719,680.3,1534.425,682.035Z" transform="translate(-1528.364 -668.625)" fill="#fbf6bf"/>
          <path id="Path_2425" data-name="Path 2425" d="M1531.85,685.661c-.322-.152.1-2.393-.339-2.749-.242-.191-.928.132-1.5.466a2.274,2.274,0,0,0-.32,1.068,4.99,4.99,0,0,1-1.329,3c2.643,1.005,4.573.344,5.683-.861a2.852,2.852,0,0,0-.688-1.435C1533.018,684.721,1532.173,685.813,1531.85,685.661Z" transform="translate(-1528.364 -668.511)" fill="#ff7100"/>
        </g>
        <path id="Path_2426" data-name="Path 2426" d="M1557.122,693.585c.055,1.347,1.552.117,2.636.293s4.481-.03,5.071-1.494-.526-3.018-3.253-2.725S1557.034,691.447,1557.122,693.585Z" transform="translate(-1477.368 -637.839)" fill="#ff7100"/>
        <path id="Path_2427" data-name="Path 2427" d="M1562.435,696.775c.552,1.723,3.1.029,3.778-.264a4.445,4.445,0,0,1,2.314-.5c1.053.058,2.372-1.845.7-2.695a2.6,2.6,0,0,0-3.339.5,2.913,2.913,0,0,1-2.252.751C1562.7,694.593,1562.175,695.955,1562.435,696.775Z" transform="translate(-1476.944 -637.573)" fill="#8dc63f"/>
        <path id="Path_2428" data-name="Path 2428" d="M1574.535,692.534c-.4-.205-1.348.427-1.818.433s-1.231,1.442-.792,1.882,1.728-.234,2.168-.644S1575.208,692.885,1574.535,692.534Z" transform="translate(-1476.182 -637.607)" fill="#803900"/>
        <path id="Path_2429" data-name="Path 2429" d="M1565.116,690.072c.071,1.032,1.963.555,2.488.175s.936-.205,1.581-.175,1.418-1.406,1.485-2.021-.606-1.026-2.158-.967S1565.028,688.812,1565.116,690.072Z" transform="translate(-1476.722 -638.045)" fill="#fff200"/>
        <path id="Path_2430" data-name="Path 2430" d="M1576.948,688.324c-1.166-1.192-6.029.623-4.269,2.82S1578.259,689.663,1576.948,688.324Z" transform="translate(-1476.141 -637.975)" fill="#ffc9ab"/>
        <path id="Path_2431" data-name="Path 2431" d="M1576.55,687.893c-.878-.878-2.8-.786-3.4-1s-1.1,0-.84,1,1.856,1.441,2.663,1.441.3,1.027.99,1.267S1577.948,689.29,1576.55,687.893Z" transform="translate(-1476.145 -638.067)" fill="#f9c1a5"/>
        <path id="Path_2432" data-name="Path 2432" d="M1540.325,680.018s.9-3.182-.269-4.233-1.711.438-2.733.479-1.464.485-.451,1.148a1.958,1.958,0,0,0,1.605.09,2.35,2.35,0,0,0,.66,3.669Z" transform="translate(-1479.052 -638.988)" fill="#f9c1a5"/>
        <path id="Path_2433" data-name="Path 2433" d="M1537.261,676.874c.654-.409.669-1.073-.006-1.67s-1.748-1.208-2.356-.529-.057,1.519.717,1.959S1536.951,677.066,1537.261,676.874Z" transform="translate(-1479.186 -639.072)" fill="#f9c1a5"/>
      </g>
      <g id="Layer_2" data-name="Layer 2" transform="translate(22.667 31.185)">
        <g id="Group_1103" data-name="Group 1103">
          <path id="Path_2434" data-name="Path 2434" d="M1509.491,674.841c-.015,0-.021-.016-.039-.013-.068.013-.039-.111-.1-.115-.255-.025-.344.1-.484.23a.124.124,0,0,0-.059-.027C1508.789,674.608,1509.565,674.508,1509.491,674.841Z" transform="translate(-1503.941 -670.236)" fill="#ff7100" fill-rule="evenodd"/>
          <path id="Path_2435" data-name="Path 2435" d="M1523.25,672.546c-.133.021-.158-.11-.264-.124-.113.036-.156.123-.23.191-.012-.037-.055-.028-.067-.064a.3.3,0,0,1,.561,0Z" transform="translate(-1502.819 -670.421)" fill="#ff7100" fill-rule="evenodd"/>
          <path id="Path_2436" data-name="Path 2436" d="M1508.6,675.058c-.138,0-.2-.111-.306-.154-.281-.005-.24.294-.457.281C1507.808,674.863,1508.481,674.661,1508.6,675.058Z" transform="translate(-1504.02 -670.22)" fill="#ff7100" fill-rule="evenodd"/>
          <path id="Path_2437" data-name="Path 2437" d="M1524.537,672.4c-.106.049-.147-.112-.26-.106-.146.009-.145.128-.242.227C1523.8,672.207,1524.51,672.085,1524.537,672.4Z" transform="translate(-1502.714 -670.432)" fill="#ff7100" fill-rule="evenodd"/>
          <path id="Path_2438" data-name="Path 2438" d="M1524.5,672.8c.044.005.058.053.1.057.081.958-1.213,1.053-1.6.4.136-.055.191.1.27.16a.748.748,0,0,0,1.222-.615Z" transform="translate(-1502.792 -670.385)" fill="#ff7100" fill-rule="evenodd"/>
          <path id="Path_2439" data-name="Path 2439" d="M1509.327,675.378l.055-.01c.155.119.077.617-.024.751-.333.439-1.219.055-1.218-.469.154.023.146.2.26.33a.707.707,0,0,0,.488.237c.42-.021.463-.431.447-.785Z" transform="translate(-1503.995 -670.177)" fill="#ff7100" fill-rule="evenodd"/>
          <path id="Path_2440" data-name="Path 2440" d="M1519.965,676.066c-.116,0-.145-.128-.233-.166-.148.05-.191.17-.294.255C1519.292,675.88,1519.917,675.641,1519.965,676.066Z" transform="translate(-1503.083 -670.139)" fill="#ff7100" fill-rule="evenodd"/>
          <path id="Path_2441" data-name="Path 2441" d="M1518.822,676.272c-.1.01-.132-.084-.206-.115-.144.057-.168.2-.227.318-.175-.061.006-.371.158-.4A.243.243,0,0,1,1518.822,676.272Z" transform="translate(-1503.172 -670.12)" fill="#ff7100" fill-rule="evenodd"/>
          <path id="Path_2442" data-name="Path 2442" d="M1513.967,677.27c-.186-.034-.427-.185-.491.082-.056.025-.062-.019-.1-.022C1513.357,677.012,1513.879,677.054,1513.967,677.27Z" transform="translate(-1503.571 -670.037)" fill="#ff7100" fill-rule="evenodd"/>
          <path id="Path_2443" data-name="Path 2443" d="M1514.985,677.157c-.109,0-.122-.142-.215-.17a.381.381,0,0,0-.3.237c-.03-.017-.078-.011-.095-.039C1514.362,676.864,1515.018,676.8,1514.985,677.157Z" transform="translate(-1503.491 -670.052)" fill="#ff7100" fill-rule="evenodd"/>
          <path id="Path_2444" data-name="Path 2444" d="M1513.593,677.874l.054-.01c.213.237.495.533.9.336.2-.1.2-.3.333-.466.143.2-.077.479-.242.563A.809.809,0,0,1,1513.593,677.874Z" transform="translate(-1503.554 -669.986)" fill="#ff7100" fill-rule="evenodd"/>
          <path id="Path_2445" data-name="Path 2445" d="M1527.317,673.622c-.314.121-.6.264-.926.383a15.248,15.248,0,0,0,1.735.327,2.283,2.283,0,0,0,.606.049c.115-.032.394-.6.479-.733a8.135,8.135,0,0,0,.468-.765c.046-.108.043-.307.131-.339-.07-.265.215-.5.191-.742-.009-.1-.1-.161-.136-.257-.129-.347,0-1,.383-.978.524.035.432.9.107,1.2-.053.007-.118.029-.149.005a6.706,6.706,0,0,0-.408,1.132,2.769,2.769,0,0,1-.574.9c-.025.238-.267.459-.306.742-.791-.126-1.734-.232-2.535-.418.4.794.772,1.6,1.153,2.328.5.713,1.02,1.435,1.572,2.147.391.5.782,1,1.165,1.506-.052.04-.057.052-.057.1-.721.224-1.473.418-2.052.567.5.518,1.162.809,1.674,1.308.2-.212.445-.631.766-.8.137-.073.394-.161.511-.067.288.231-.135.807-.326.951a2.286,2.286,0,0,1-.608.269c-.688-.574-1.437-1.071-2.138-1.627a10.111,10.111,0,0,1-1.03.209,19.164,19.164,0,0,0,.039,3.15c-.253-.008-.685.32-1.008.224a.43.43,0,0,1-.245-.239c-.107-.424.709-.531,1.075-.609-.03-.881-.027-1.641,0-2.484a11.986,11.986,0,0,0-1.278.288c-.165.037-.5.125-.649.034a18.687,18.687,0,0,0,.176-3.2c-.027-.428-.072-.817-.072-1.219,0-.467.012-.976.033-1.481a5.563,5.563,0,0,0,.012-1.16,3.209,3.209,0,0,0-.229.861c-.135.57-.359,1.154-.494,1.745a6.894,6.894,0,0,1-.394,1.339.506.506,0,0,1,.412.23,1.122,1.122,0,0,1,.095.375c-.02.124-.286.307-.408.348a2.484,2.484,0,0,1-.39.009.574.574,0,0,1-.257-.76,10.463,10.463,0,0,1-1.958-.439c.254.519.512,1.019.76,1.53s.553.966.765,1.478a1.84,1.84,0,0,1,.136.817c-.321.086-.606.2-.924.287.168.569.362,1.165.539,1.777.329-.161.84-.647,1.108-.185a.861.861,0,0,1-.879.843h-.027a11.453,11.453,0,0,1-.86-2.377,11.078,11.078,0,0,1-1.158.23c.007.319.122.723.148,1.113a3.177,3.177,0,0,0,.086.845,1.131,1.131,0,0,0-.036.566c-.28.345-.871.133-1.111-.057-.06-.456.644-.511.957-.514a10.443,10.443,0,0,0-.191-1.914c-.431-.034-.893.145-1.226.037.324-1.23.219-2.769.442-4.07a11.488,11.488,0,0,0-1.5,1.408.6.6,0,0,1-.289.792l-.009,0c-.361.106-.7-.348-.6-.778a8.965,8.965,0,0,1-1.462-.819,19.971,19.971,0,0,1,.7,2.552c.026.055-.055.036-.042.082.048.559.216,1.148.219,1.644-.236,0-.279.077-.479.136.106.3.151.745.233,1.062.244-.068.694-.453,1.048-.324.22.081.275.427.2.658a2.048,2.048,0,0,1-1.154.585c-.187-.523-.257-1.252-.432-1.926-.164.017-.255.151-.409.124-.09-.27-.162-.564-.237-.861a1.2,1.2,0,0,0-.148.791c-.085.043-.159,0-.257.024.019.788.065,1.5.063,2.174-.206-.067-.383.036-.67.037-.26,0-.618-.079-.653-.227-.033-.131.218-.35.411-.442.268-.128.54-.045.742-.143a9.761,9.761,0,0,0-.042-1.375c-.155-.037-.383.081-.491.081a5,5,0,0,1-.088-.975c-.029-.241-.073-.415-.072-.548-.034-.044-.1-.032-.128-.091-.114-.962-.039-1.835-.118-2.726-.574.082-.891.191-1.472.245-.1.123-.033.219-.115.318-.236.286-.87.026-.921-.257-.038-.212.147-.36.208-.539-.065-.006-.074-.058-.015-.1-.574-.627-1.053-1.376-1.607-2.029.158.452.172.886.324,1.383.073.237.2.574.309.845.1.252.144.544.224.785a2.991,2.991,0,0,0,.254.629,5.98,5.98,0,0,0,.245,1.36c.1.519.084.9.191,1.387a9.759,9.759,0,0,0,.546,1.7c.535.035.935.155,1.077.754a3.9,3.9,0,0,1-1.7.64c-.4.017-.421-.417-.509-.812.006-.069-.084,0-.085-.06a23.961,23.961,0,0,0-1.035-3.525,3.162,3.162,0,0,0-.563.766c-.151.276-.343.524-.5.792s-.341.526-.5.793a3.859,3.859,0,0,1-.53.743c-.032.212-.218.313-.287.5-.335.1-.383.4-.614.57a1.811,1.811,0,0,1-1.215-1.459.789.789,0,0,1,.536-.034c.059.019.219.15.247.145.071-.011.328-.447.365-.508.124-.212.2-.369.3-.553.043-.047.052.032.109-.018-.005-.028-.059-.052-.037.005-.04-.107.069-.216.118-.3q.269-.477.491-.978a9.438,9.438,0,0,0,.6-1.332c-.01-.055-.057-.054-.073-.1a37.97,37.97,0,0,0-.26-4.027c-.654.276-1.137.758-1.713,1.033-.184-.1-.3-.309-.473-.479a5.206,5.206,0,0,1-.472-.479,6.168,6.168,0,0,0-.815-1.078c-.208-.166-.6-.281-.66-.6a.592.592,0,0,1,.529-.65.58.58,0,0,1,.265.032.917.917,0,0,1,.183.861,1.635,1.635,0,0,0-.1.333c.016.155.246.383.348.521a9,9,0,0,0,1.163,1.375c.618-.3,1.088-.7,1.627-1.017.014-.058.073,0,.1,0a1.935,1.935,0,0,1-.724-1.765c.016-.073-.055-.027-.051-.085a.557.557,0,0,0,.076-.442c.162-.221.224-.516.426-.687.049-.041.134-.046.192-.088.126-.1.172-.179.36-.191a1.465,1.465,0,0,1,1.035.276,2.384,2.384,0,0,1,.721,1.635,1.518,1.518,0,0,1-.045.624c-.026.066-.143.163-.145.247-.005.2.349.523.444.655a16.665,16.665,0,0,0,1.442,1.818c.447-.186.664.114.687.538a5.71,5.71,0,0,0,1.384-.211c.165-.055.325-.161.286.139a.437.437,0,0,0,.24.2.816.816,0,0,0,.252-.287c-.852,0-1.427-1.088-1.309-2.023a1.334,1.334,0,0,1,.758-1.059.83.83,0,0,1,.587-.059c.049-.026-.035-.044.006-.076a1.651,1.651,0,0,1,1.217,1.589,1.85,1.85,0,0,1-.237,1.048,2.06,2.06,0,0,0,.751.585,3.536,3.536,0,0,0,.854.418c.079-.4.589-.172.765,0,.529-.5,1.074-1.069,1.617-1.5-.184-.109-.368-.217-.557-.318-.222.106-.5.245-.67.335-.084.051-.146.216-.249.079.177-.486.221-1.191.415-1.657-.059-.048-.029-.134-.081-.153.344-.515.427-1.416,1.4-1.484a1.459,1.459,0,0,1,.814.294,1.924,1.924,0,0,1,.575.445c-.037.014-.05,0-.076-.005.24.313.473.83.753,1.162.12.1.313.235.276.422a3.274,3.274,0,0,1-.893.242,3.6,3.6,0,0,0-.168.327,7.565,7.565,0,0,0,1.4.363,1.369,1.369,0,0,0,.832-.044,8.218,8.218,0,0,0,.594-1.929c.191-.649.384-1.307.512-1.971-.4.155-.779.1-1.141.209-.054-.045-.213-.062-.191-.136-.018-.077.1-.035.125-.039,0-.065-.039-.065-.039-.124a3.445,3.445,0,0,0-.059-1.914c.036-.052.039.022.1,0,.079-.771.371-1.524,1.29-1.56a1.6,1.6,0,0,1,1.078.306c.651.557.575,1.675,1.212,2.338C1527.19,673.562,1527.266,673.5,1527.317,673.622Zm-2.558-2.583a2.744,2.744,0,0,1-.965,1.374,1.811,1.811,0,0,0,.424,1.2,1.344,1.344,0,0,0,.978.6c1.238-.038,1.67-1.216,1.177-2.343a3.673,3.673,0,0,1-1.612-.828Zm-15.406,2.8c-.124-.013-.244-.085-.338-.018C1509.134,673.8,1509.278,673.863,1509.354,673.835Zm-.681.281c0-.066-.128-.072-.139-.052a.651.651,0,0,1,.138.052Zm.424.078c-.031.024-.07-.043-.073.013.028.012.073,0,.067.063-.061.038-.119-.04-.131,0,.045.05.156.008.167.1-.086.024-.156-.1-.226-.018.041.025.134-.023.124.072a1.342,1.342,0,0,1-.621-.027,3.028,3.028,0,0,0-.5.551c0-.01.011-.024.017,0-.025.014-.041.035-.067.049-.181,1.053.519,2.3,1.544,1.982a1.484,1.484,0,0,0,.862-1.915c-.011-.03-.024-.059-.037-.089a1.792,1.792,0,0,0-.8-1.082c0,.121.132.054.125.185-.1-.01-.191-.052-.287-.063,0,.09.178.017.13.109-.131,0-.3-.065-.4-.028.027.036.113,0,.1.094Zm-.363.173c-.111-.01-.2-.043-.309-.06a.319.319,0,0,0,.308.062Zm21.253-2.776c.049.044.118.059.167.1.294-.149.526-.8.167-1.017-.417.084-.426.512-.333.912Zm-25.372,4.172a2.321,2.321,0,0,0,.429.227c.063-.309.248-.7-.005-1.045a.485.485,0,0,0-.424.818Zm6.271,3.343c-.077-.238-.2-.479-.273-.738a15.663,15.663,0,0,0-.454-1.717c-.007-.013-.018-.018-.039-.012a1.261,1.261,0,0,1-.279.233,2.95,2.95,0,0,1-.136.639c-.113-.022-.167-.124-.269-.161a8.6,8.6,0,0,0,.775,1.628,3.879,3.879,0,0,0-.46.935c-.149.006-.224-.191-.333-.317-.067-.079-.306-.235-.339-.355a3.671,3.671,0,0,1,.061-.645c.013-.479-.037-.851-.03-1.189-.085.024-.124.219-.191.311-.2,0-.172-.328-.327-.393.079,1.123.286,2.622.257,3.673.1,0,.1.036.146.089.4,0,.669-.163,1.178-.215a2.567,2.567,0,0,0,1.186-.273c-.208-.493-.311-1-.47-1.493Zm15.237-5.041a2.348,2.348,0,0,1-.909.263,15.633,15.633,0,0,1-.024,1.871c0,.651.019,1.3.064,1.951a23.671,23.671,0,0,1-.146,3.157,11.9,11.9,0,0,0,1.244-.263c.456-.112.939-.16,1.393-.27.4-.1.808-.227,1.2-.33a5.624,5.624,0,0,0,1.118-.354c-.67-.941-1.406-1.928-2.105-2.749a26.75,26.75,0,0,1-1.735-3.24c-.061-.014-.1.115-.106.036.029,0,.013-.047.01-.072Zm-17.254,3.47c.052-.149.215-.219.191-.424a1.132,1.132,0,0,1-.463-.091A1.979,1.979,0,0,0,1508.868,677.534Zm.416-.424c.134.05.2.2.338.242.021-.151.087-.268.1-.427a4.645,4.645,0,0,1-.436.187Zm9.951-.574c-.1-.018-.1.039-.176.067a1.458,1.458,0,0,0,2.263,1.36c0-.032-.067-.082-.019-.109.069-.03.064.045.133.015a1.91,1.91,0,0,0,.269-1.632.448.448,0,0,0-.229-.037c-.1-.086-.238-.1-.33-.191a1.247,1.247,0,0,1-1.01-.785c-.1.048-.147.106-.168-.009a2.828,2.828,0,0,1-.736,1.322Zm1.684-1.1c-.09-.054-.15-.148-.255-.182a.516.516,0,0,0,.252.184Zm-11.661,3.326a1.877,1.877,0,0,0-.033.473c.075.237.383.279.439.506.059-.244.383-.54.37-.808-.014-.2-.219-.4-.324-.6-.179-.347-.272-.79-.46-1.082a.015.015,0,0,0-.022-.015C1509.209,677.641,1509.284,678.3,1509.258,678.76Zm6.144-2.125c-.075.006-.183-.056-.212-.039.032,0,.1.071.055.1-.091.008-.128-.059-.216-.057.009.05.125.062.075.118-.095.013-.1-.109-.218-.076.032.062.162.1.125.185-.1,0-.141-.057-.219-.076.017.08.167.1.139.164-.08,0-.081-.051-.163-.085.025.066-.007.1-.058.1.058.06.061.143.1.134-.016.019.005.067-.045.063a4.845,4.845,0,0,0-.533-.509.624.624,0,0,1-.143.383c.015,0,.036-.005.04.013-.113.119-.165.231-.309.387-.019.971.478,1.946,1.378,1.768a1.192,1.192,0,0,0,.884-.968c.024-.154-.031-.3.057-.44a2.145,2.145,0,0,0-.518-1.313c-.1.106-.255-.1-.336,0,.073-.021.118,0,.124.072-.067.028-.038-.007,0,.072Zm-3.158,2.468c-.146.129-.346.334-.257.585a.5.5,0,0,0,.563.242c.33-.128.1-1.194-.306-.938-.037.026.056.075,0,.111Zm9.556-1.592c.049-.036.071.01.085-.052-.028-.025-.1-.009-.081.051Zm-5.987,1.5c-.005-.022-.012-.042-.042-.03a.789.789,0,0,1-.53.294c.06.141.223.136.333.205a2.044,2.044,0,0,1,.243-.47Zm-.178.609c-.1-.016-.234-.191-.281-.121a4.091,4.091,0,0,0,.617,1.244c-.268.139-.344.416-.534.612-.2-.14-.322-.4-.5-.57a5.717,5.717,0,0,0,.088-1.267c-.127.032-.12.16-.206.222a1.56,1.56,0,0,1-.318-.227,22.65,22.65,0,0,0,.112,2.465c.03.017.084,0,.085.061a13.708,13.708,0,0,0,1.925-.433c.017-.067.016-.1.075-.106a12.83,12.83,0,0,0-.758-2.525c-.083.223-.2.428-.3.645Zm4.535-1.353c-.3,1.308-.164,2.929-.442,4.182a10.957,10.957,0,0,0,2.223-.333c.055-.018.07-.067.115-.1a2.719,2.719,0,0,0,.943-.287,3.292,3.292,0,0,0-.455-1.269c-.383-.819-.83-1.572-1.2-2.392a1.742,1.742,0,0,1-1.176.195Zm-4.777,2.926a4.167,4.167,0,0,0,.4-.514c-.24-.384-.469-.893-.66-1.272.09.644-.238,1.4.265,1.786Zm8.287-2.819c-.039.019.006.035-.042.082s-.095.046-.118.076a.676.676,0,0,0,0,.429c.146.287.62.152.806-.1a.445.445,0,0,0-.641-.493Zm-14.916,3.27c-.1.243-.222.464-.333.69-.451.915-.946,1.826-1.462,2.654a9.756,9.756,0,0,0,.82.553c.8-1.107,1.459-2.307,2.229-3.433.1.035.154-.211.266-.192s.174.444.242.67c.191.642.59,1.512.723,2.105.044.191.035.731.191.827.083.051.371-.123.424-.146a1.508,1.508,0,0,0,.452-.205c-.167,0,.022-.1.036-.118a28.4,28.4,0,0,1-1.014-4.293c-.922.235-1.516.286-2.447.444a1.289,1.289,0,0,1-.122.443Zm9.341-1.089a.489.489,0,0,0,.311-.616l-.006-.014c-.052-.048-.129-.043-.095-.151-.113-.108-.448-.214-.582-.015.02.068.1.055.061.139l-.091.015c-.04.289.141.684.406.641Zm-1.43,1.172a.057.057,0,0,0-.042-.03,17.645,17.645,0,0,1-1.92.432,9.653,9.653,0,0,1,.109,1.435c.207,0,.467-.16.66-.072a2.244,2.244,0,0,1,.267-.978c.054-.022.069.008.112,0,.052.294.191.72.26,1,.067-.043.174-.056.244-.1.046-.022-.054-.078.021-.1.17.067.319-.05.469-.1a11.142,11.142,0,0,0-.176-1.5Zm-9.741,3.4a.763.763,0,0,0-.757-.286,1.7,1.7,0,0,0,1.017,1.286,3.56,3.56,0,0,0,.469-.544c-.253-.131-.465-.326-.724-.457Zm23.739-3.769a2.232,2.232,0,0,0-.723.812c.191.227.493.078.745-.125a.8.8,0,0,0,.363-.733.461.461,0,0,0-.378.045Zm-12.9,2.915c-.259-.141-.732.239-.9.335-.056.018-.076-.014-.115-.017.084.244.115.5.217.748a1.966,1.966,0,0,0,.936-.548C1517.938,684.6,1517.907,684.339,1517.774,684.269Zm-4.708.99a1.688,1.688,0,0,0-.624-.045c-.286.121-.656.3-.941.4.066.215.042.559.172.7.163.176.652.016.939-.082a4.634,4.634,0,0,0,.847-.4c-.112-.244-.189-.492-.392-.572Zm10.552-1.666a1.46,1.46,0,0,0-.817.473,3.363,3.363,0,0,0,.222.429c.378-.045.876-.587.6-.9Zm-9.386,1.938c.234.268.706.159,1.084.118-.012-.23,0-.347-.021-.574a1.289,1.289,0,0,0-1.061.455Zm6.029-.928c-.384.338.317.525.663.393a.927.927,0,0,0,.042-.531,1.281,1.281,0,0,0-.7.136Zm5.616-.469c.052.354.827.063,1.029-.1a3.518,3.518,0,0,1-.044-.383c-.325.016-1.028.2-.986.477Z" transform="translate(-1504.305 -670.565)" fill="#ff7100" fill-rule="evenodd"/>
          <path id="Path_2446" data-name="Path 2446" d="M1518.523,676.883c.243.119.352.479.7.479a.988.988,0,0,0,.5-.158c.028-.081.144-.191.175-.286.025-.077-.021-.191.039-.212.022-.006.1.056.109.1.05.151-.186.383-.229.523a1.256,1.256,0,0,1-.884.072C1518.822,677.279,1518.554,677.1,1518.523,676.883Z" transform="translate(-1503.156 -670.069)" fill="#ff7100" fill-rule="evenodd"/>
        </g>
      </g>
    </g>
    <rect id="Rectangle_1350" data-name="Rectangle 1350" width="92.824" height="29.666" rx="13.281" transform="translate(545.464 119.619)" fill="#f4b333"/>
    <g id="تعرف_على" data-name="تعرف على" transform="translate(554.909 122.546)" style="isolation: isolate">
      <text id="تعرف_على-2" data-name="تعرف على" transform="translate(1 16)" fill="#fff" font-size="17" font-family="SegoeUI, Segoe UI" letter-spacing="-0.05em" style="isolation: isolate"><tspan x="0" y="0">تعرف على</tspan></text>
    </g>
  </g>
</svg>
