<svg xmlns="http://www.w3.org/2000/svg" xmlns:xlink="http://www.w3.org/1999/xlink" width="137.627" height="147.388" viewBox="0 0 137.627 147.388">
  <defs>
    <clipPath id="clip-path">
      <path id="Path_8632" data-name="Path 8632" d="M1841.5,705.277l9.828-.819-2.849-16.028c-.234-1.1-2.064-2.819-3.146-2.494l-7.238,2.119a1.928,1.928,0,0,0-1.238,2.557Z" transform="translate(-1836.722 -685.896)" fill="none"/>
    </clipPath>
  </defs>
  <g id="Group_3153" data-name="Group 3153" transform="translate(-1876.459 -637.793)">
    <g id="Group_2089" data-name="Group 2089" transform="translate(1876.977 638.294)">
      <path id="Path_311-5" data-name="Path 311-5" d="M1811.3,738.071c2.181-7.516,9.665-12.026,9.187-20.74-.222-4.012-2.127-7.2-3.413-10.8-3.026-8.478-5.579-21.819-.941-30.144,5.942-10.656,19.859-9.457,28.638-14.318,4.76-2.636,8.627-7.082,12.219-11.63,2.61-3.31,5.167-6.762,8.363-9.243a18.632,18.632,0,0,1,22.3-.513c6.828,4.863,11.222,13.463,20.112,11.592,3.687-.776,7.439-2.457,11.169-1.252a16.108,16.108,0,0,1,8.995,8.184c5.4,10.735-3.4,22.084.277,33.17,2.744,8.266,10.654,11.362,15.064,18.041,3.55,5.377,4.39,12.218,3.3,18.8-2.194,13.264-3.947,27.376-8.135,39.989-4.593,13.848-18.31,13.978-29.023,13.993-16.277.023-33.14,1.519-49.282-.8-12.6-1.81-27.265-6.1-37.725-15.024C1814.85,760.928,1807.968,749.558,1811.3,738.071Z" transform="translate(-1810.439 -637.224)" fill="#fff" stroke="#fb4f3f" stroke-width="1"/>
    </g>
    <rect id="Rectangle_1339" data-name="Rectangle 1339" width="92.824" height="29.666" rx="13.281" transform="translate(1898.988 744.518)" fill="#03cea4"/>
    <text id="الاحصائيات" transform="translate(1909.466 764)" fill="#fff" font-size="17" font-family="SegoeUI-Light, Segoe UI" font-weight="300"><tspan x="0" y="0">الاحصائيات</tspan></text>
    <g id="Layer_4" data-name="Layer 4" transform="translate(1889.342 641.573)">
      <g id="Layer_7" data-name="Layer 7">
        <g id="Group_2518" data-name="Group 2518">
          <path id="Path_8611" data-name="Path 8611" d="M1928.677,693.38c0,13.491,1.8,25.325-13.75,33.256-12.677,6.464-33.576-3.518-53.4,7.354-36.092,19.792-41.145-37.02-39.331-53.081,2.239-19.825,19.234-38.721,56.163-40.6,25.376-1.291,23.633,22.222,31.133,27.488C1925.991,679.384,1928.677,678.35,1928.677,693.38Z" transform="translate(-1821.879 -640.259)" fill="#d8e2e5"/>
        </g>
      </g>
      <g id="Group_2597" data-name="Group 2597" transform="translate(5.47 3.026)">
        <path id="Path_8612" data-name="Path 8612" d="M1898.432,672.028l-2.009.8.4,3.616h.8l1.607-1.205-.8-3.214" transform="translate(-1821.321 -640.716)" fill="#5e3728"/>
        <path id="Path_702" data-name="Path 702" d="M1902.041,678.821c-1.6.214-4.322-1.125-3.841-3.266a.65.65,0,0,0-.28-.653c.313-.25-.171-.754-.171-.754.5-.034.092-.723.092-.723a.4.4,0,0,0,.351-.439.385.385,0,0,0-.035-.125c-.248-.74.238-1.523,1.578-2.062,2.877-1.158,4.04.919,4.948,2.45C1905.837,675.2,1905.409,678.372,1902.041,678.821Z" transform="translate(-1821.214 -640.843)" fill="#e0a075"/>
        <path id="Path_703" data-name="Path 703" d="M1898.881,676.763c-.466.593-1.5.083-1.612-.694s1-.88,1.3-.627S1899.106,676.475,1898.881,676.763Z" transform="translate(-1821.253 -640.45)" fill="#e0a075"/>
        <path id="Path_704" data-name="Path 704" d="M1898.661,676.563c-.3.384-.967.054-1.041-.448s.646-.57.843-.405S1898.808,676.377,1898.661,676.563Z" transform="translate(-1821.225 -640.425)" fill="#ad7445"/>
        <path id="Path_705" data-name="Path 705" d="M1898.792,676.69c-.211.268-.678.038-.729-.315s.453-.4.591-.284S1898.895,676.557,1898.792,676.69Z" transform="translate(-1821.189 -640.392)" fill="#e0a075"/>
        <path id="Path_747" data-name="Path 747" d="M1901.615,675.673c-.009-.219-.341-.385-.743-.37s-.72.205-.712.425.342.386.743.37S1901.623,675.892,1901.615,675.673Z" transform="translate(-1821.019 -640.451)" fill="#b86a68" opacity="0.5" style="isolation: isolate"/>
        <path id="Path_748" data-name="Path 748" d="M1903.228,675.411c-.137-.171,0-.515.317-.766s.679-.319.816-.148,0,.515-.317.767S1903.366,675.582,1903.228,675.411Z" transform="translate(-1820.776 -640.524)" fill="#b86a68" opacity="0.5" style="isolation: isolate"/>
        <path id="Path_749" data-name="Path 749" d="M1900.361,674.7c.229.039.3-.378.084-.446C1900.163,674.163,1900.133,674.66,1900.361,674.7Z" transform="translate(-1821.015 -640.537)" fill="#79354f"/>
        <path id="Path_750" data-name="Path 750" d="M1903.3,674.03c.222-.07.092-.471-.125-.437C1902.881,673.641,1903.08,674.1,1903.3,674.03Z" transform="translate(-1820.787 -640.59)" fill="#79354f"/>
        <path id="Path_751" data-name="Path 751" d="M1900.267,673.578c-.232-.351-.7.282-.627.594" transform="translate(-1821.062 -640.599)" fill="#ad7445"/>
        <path id="Path_753" data-name="Path 753" d="M1902.712,672.811c-.067-.416.7-.262.863.016" transform="translate(-1820.813 -640.673)" fill="#ad7445"/>
        <path id="Path_754" data-name="Path 754" d="M1903.022,676.39a.652.652,0,0,1-.533.329,1.216,1.216,0,0,1-.674-.138" transform="translate(-1820.886 -640.363)" fill="#ad7445"/>
        <path id="Path_756" data-name="Path 756" d="M1904.006,672.252c-.219-.143-.569-.539-.459-.759-.257.142-.554.247-.75-.189a.463.463,0,0,1-.8.431c.222.66-.326.994-.632.484-.041.494-.427.637-.711.332,0,.36-.339.49-.512.192.095.667-.633.776-.793.118,0-.03,0-.03,0,0-.069.588-.725.5-.823-.045-.016.366-.417.719-.576.254,0-.029,0-.029,0,0,.034.422-.278.547-.524.393.257.346.01.813-.183.388h0a.5.5,0,0,1-.184.487.544.544,0,0,1,.08.757c.312.217.2.757-.069.506a.384.384,0,0,1,.032.543.361.361,0,0,1-.079.067c.247.092.481.363.175.479a1.88,1.88,0,0,1,.184.386c-.253,0-1.148-.483-.9-.878a.826.826,0,0,1-.276-1c-.236-.238-.506-.805-.222-1.077-.156-.309-.333-.826-.027-.978-.176-.321-.31-.886-.024-1.062-.292-.342-.3-1.019.111-1.033-.321-.716.738-.777.727-.761-.148-.249.012-1.04.476-.9,0-.43.349-.856.632-.535.065-.409.364-.627.638-.395.092-.367.407-.492.643-.253a.459.459,0,0,1,.831-.01c-.015-.034.682-.5.857.055.2-.316.746-.44.787.2.239-.2.818-.394.834.269-.015.017-.018.016-.009,0,.276-.264.661-.244.751.363-.015.008-.023,0-.022-.025a.464.464,0,0,1,.625.2.475.475,0,0,1,.052.2c.314-.049.957.545.667,1.025a.5.5,0,0,1,.24.746c.29.1.522.735.2.884.169.324.278,1.14-.055,1.445" transform="translate(-1821.378 -641.047)" fill="#5e3728"/>
        <g id="Group_2521" data-name="Group 2521" transform="translate(72.29 31.664)">
          <g id="Group_2520" data-name="Group 2520">
            <g id="Group_2519" data-name="Group 2519">
              <path id="Path_8613" data-name="Path 8613" d="M1893.99,673.741c-.176-.265-.254-.979-.036-1.109s.8-.524.994-.055l.249.949-.982.552Z" transform="translate(-1893.822 -672.354)" fill="#61b3db"/>
            </g>
          </g>
        </g>
        <g id="Group_2532" data-name="Group 2532" transform="translate(76.308 38.292)">
          <g id="Group_2522" data-name="Group 2522" transform="translate(0.318)">
            <path id="Path_8614" data-name="Path 8614" d="M1905.09,688.345h-6.446l-.805-8.561a1.326,1.326,0,0,1,1.462-1.3h5.132a1.325,1.325,0,0,1,1.461,1.3Z" transform="translate(-1897.833 -678.486)" fill="#29266b"/>
          </g>
          <g id="Group_2525" data-name="Group 2525" transform="translate(1.23 9.457)">
            <g id="Group_2524" data-name="Group 2524">
              <g id="Group_2523" data-name="Group 2523">
                <path id="Path_8615" data-name="Path 8615" d="M1904.8,687.236h-6.124l.163,13.085h1.169s.885-6.582,1.219-10.221h.811l.244,10.221h1.169s1.38-10.263,1.344-12.241A7.6,7.6,0,0,0,1904.8,687.236Z" transform="translate(-1898.677 -687.236)" fill="#61b3db"/>
              </g>
            </g>
          </g>
          <g id="Group_2528" data-name="Group 2528" transform="translate(0 22.525)">
            <g id="Group_2527" data-name="Group 2527">
              <g id="Group_2526" data-name="Group 2526">
                <path id="Path_8616" data-name="Path 8616" d="M1898.916,699.326h1.189v.912h-2.411c-.16,0-.214-.358-.074-.435Z" transform="translate(-1897.539 -699.326)" fill="#0f2337"/>
              </g>
            </g>
          </g>
          <g id="Group_2531" data-name="Group 2531" transform="translate(3.495 22.525)">
            <g id="Group_2530" data-name="Group 2530">
              <g id="Group_2529" data-name="Group 2529">
                <path id="Path_8617" data-name="Path 8617" d="M1902.149,699.326h1.189v.912h-2.411c-.159,0-.214-.358-.075-.435Z" transform="translate(-1900.772 -699.326)" fill="#0f2337"/>
              </g>
            </g>
          </g>
        </g>
        <g id="Group_2534" data-name="Group 2534" transform="translate(72.671 32.782)">
          <g id="Group_2533" data-name="Group 2533">
            <path id="Path_8618" data-name="Path 8618" d="M1896.56,677.538l-1.342-4.133c0-.11-1.179.332-1.031.589.239.418-.011,4.059,1.278,5.422.72.76,3.64,3.319,3.755,3.128a6.378,6.378,0,0,0,.248-2.165.464.464,0,0,0-.417-.478l.921-.517C1899.759,679.362,1896.56,677.538,1896.56,677.538Z" transform="translate(-1894.174 -673.388)" fill="#29266b"/>
          </g>
        </g>
        <g id="Group_2537" data-name="Group 2537" transform="translate(85.83 30.134)">
          <g id="Group_2536" data-name="Group 2536">
            <g id="Group_2535" data-name="Group 2535">
              <path id="Path_8619" data-name="Path 8619" d="M1907.6,672.111c.095-.3-.032-1.011-.278-1.073s-.917-.278-.969.227l.028.98,1.1.253Z" transform="translate(-1906.349 -670.938)" fill="#e0a075"/>
            </g>
          </g>
        </g>
        <g id="Group_2539" data-name="Group 2539" transform="translate(83.196 31.376)">
          <g id="Group_2538" data-name="Group 2538">
            <path id="Path_8620" data-name="Path 8620" d="M1906.193,676.338l.325-4.208c-.031-.106,1.225-.014,1.156.275-.111.469,1.154,3.891.3,5.562-.476.933-3.184,4.4-3.348,4.245a8.906,8.906,0,0,1-.688-2.1,4.738,4.738,0,0,1,.04-1.1C1904.173,678.93,1906.193,676.338,1906.193,676.338Z" transform="translate(-1903.912 -672.088)" fill="#29266b"/>
          </g>
        </g>
        <g id="Group_2542" data-name="Group 2542" transform="translate(79.584 36.71)">
          <g id="Group_2541" data-name="Group 2541">
            <g id="Group_2540" data-name="Group 2540">
              <path id="Path_8621" data-name="Path 8621" d="M1901.614,679.511c1.141,0,1.135-.776,1.135-.963v-1.262c0-.286-.427-.263-.681-.263h-.817c-.254,0-.681.232-.681.518v1.007A.972.972,0,0,0,1901.614,679.511Z" transform="translate(-1900.57 -677.023)" fill="#e0a075"/>
            </g>
          </g>
        </g>
        <g id="Layer_1" data-name="Layer 1" transform="translate(9.017 31.052)">
          <path id="Path_2384" data-name="Path 2384" d="M1852.728,681.485c-.429-.611-.878-1.223-1.367-1.8a2.242,2.242,0,0,1-.472-1.544,6.1,6.1,0,0,0-1.788-3.958,4.213,4.213,0,0,0-3.414-1.443c-3.946-.23-9.716,2.53-10.333,5.9-.276,1.5.8,2.705,1.4,3.973a8.887,8.887,0,0,1,.9,4.028c-.031,1.108-.021,2.309,1.6,2.542a1.934,1.934,0,0,0,1.856-.491c.766.824,2.091-.264,2.561-.965a3.794,3.794,0,0,0,1.842.272c.723-.145.931-.691,1.413-.834s.951.166,1.565-.091a4.529,4.529,0,0,0,1.247-1.147,2.116,2.116,0,0,0,2.585-1.132C1854.464,684.506,1853.769,682.969,1852.728,681.485Z" transform="translate(-1835.28 -671.711)" fill="#b56e51"/>
          <g id="Group_1096" data-name="Group 1096" transform="translate(1.113 8.407)">
            <path id="Path_2385" data-name="Path 2385" d="M1836.35,683.985c.31-1,1.356-.874,2.018-.335.494.405.974,1.457.331,1.942a1.649,1.649,0,0,1-1.578-.015A1.4,1.4,0,0,1,1836.35,683.985Z" transform="translate(-1836.312 -679.268)" fill="#fac5ab"/>
            <path id="Path_2386" data-name="Path 2386" d="M1850.986,679.854c-.786-.686-1.615-.033-1.894.773-.209.6-.068,1.751.734,1.827a1.649,1.649,0,0,0,1.337-.839A1.4,1.4,0,0,0,1850.986,679.854Z" transform="translate(-1835.286 -679.565)" fill="#fac5ab"/>
          </g>
          <path id="Path_2387" data-name="Path 2387" d="M1848.714,674.66c-1.183-1.266-3.266-.907-4.792-.624-2.472.458-4.771.936-6.655,2.785-2.259,2.218.256,6.033.937,8.441.634,2.231,2.579,2.444,4.114,2.331s2.554-.163,2.627.379.1,2.105,1.25,1.78l.035-.011.035-.009c1.153-.326.4-1.706.08-2.184-.3-.456.7-.971,2.068-1.676,1.259-.653,2.579-1.855,2.469-3.417a11.107,11.107,0,0,0-.4-2.069c-.406-1.7-.521-4.194-1.642-5.584C1848.8,674.754,1848.756,674.707,1848.714,674.66Z" transform="translate(-1835.196 -671.628)" fill="#f7bfa3"/>
          <path id="Path_2388" data-name="Path 2388" d="M1844.2,682.923a.711.711,0,0,1-.266.173.771.771,0,0,1-.341.008c-.144-.015-.336-.045-.279-.245.032-.12.165-.132.268-.134a.823.823,0,0,0,.361-.059,2.311,2.311,0,0,1,.3-.2c.142-.05.218.138.17.247-.041.093-.134.139-.2.206Z" transform="translate(-1834.633 -670.925)" fill="#e8ad97"/>
          <g id="Group_1097" data-name="Group 1097" transform="translate(3.449 12.038)" opacity="0.5">
            <path id="Path_2389" data-name="Path 2389" d="M1841.715,683.879c-.036-.544-.724-.941-1.538-.888s-1.444.537-1.411,1.082.724.941,1.538.888S1841.75,684.422,1841.715,683.879Z" transform="translate(-1838.45 -682.92)" fill="#ee8686" opacity="0.5" style="isolation: isolate"/>
            <ellipse id="Ellipse_74" data-name="Ellipse 74" cx="1.477" cy="0.732" rx="1.477" ry="0.732" transform="matrix(0.998, -0.066, 0.066, 0.998, 0.422, 0.411)" fill="#ee8686" opacity="0.5" style="isolation: isolate"/>
            <path id="Path_2390" data-name="Path 2390" d="M1841.656,683.889c-.039-.587-.781-1.016-1.659-.959s-1.561.579-1.522,1.167.781,1.016,1.66.959S1841.695,684.476,1841.656,683.889Z" transform="translate(-1838.473 -682.925)" fill="#fdc6a2" opacity="0.5" style="isolation: isolate"/>
            <path id="Path_2391" data-name="Path 2391" d="M1842.078,683.855c-.036-.545-.871-.933-1.865-.868s-1.773.559-1.736,1.1.871.932,1.866.867S1842.115,684.4,1842.078,683.855Z" transform="translate(-1838.473 -682.921)" fill="#ee8686" opacity="0.5" style="isolation: isolate"/>
          </g>
          <g id="Group_1098" data-name="Group 1098" transform="translate(11.96 9.427)" opacity="0.5">
            <path id="Path_2392" data-name="Path 2392" d="M1846.693,682.478c-.254-.482.125-1.181.845-1.562s1.513-.3,1.767.183-.125,1.182-.845,1.563S1846.948,682.96,1846.693,682.478Z" transform="translate(-1846.325 -680.495)" fill="#ee8686" opacity="0.5" style="isolation: isolate"/>
            <path id="Path_2393" data-name="Path 2393" d="M1846.564,682.532c-.188-.358.243-.955.965-1.337s1.459-.4,1.648-.043-.243.957-.965,1.337S1846.753,682.889,1846.564,682.532Z" transform="translate(-1846.333 -680.478)" fill="#ee8686" opacity="0.5" style="isolation: isolate"/>
            <path id="Path_2394" data-name="Path 2394" d="M1846.76,682.453c-.276-.52.134-1.275.912-1.686s1.632-.322,1.907.2-.134,1.275-.912,1.686S1847.035,682.973,1846.76,682.453Z" transform="translate(-1846.32 -680.509)" fill="#fdc6a2" opacity="0.5" style="isolation: isolate"/>
            <path id="Path_2395" data-name="Path 2395" d="M1846.413,682.645c-.255-.482.253-1.251,1.135-1.716s1.8-.451,2.057.03-.254,1.25-1.135,1.716S1846.667,683.127,1846.413,682.645Z" transform="translate(-1846.347 -680.503)" fill="#ee8686" opacity="0.5" style="isolation: isolate"/>
          </g>
          <path id="Path_2396" data-name="Path 2396" d="M1840.38,683.447c.576-.051.472-1.094-.076-1.123C1839.568,682.284,1839.808,683.5,1840.38,683.447Z" transform="translate(-1834.913 -670.935)" fill="#7a354f"/>
          <path id="Path_2397" data-name="Path 2397" d="M1847,681.581c.566-.118.338-1.141-.209-1.106C1846.055,680.524,1846.439,681.7,1847,681.581Z" transform="translate(-1834.384 -671.085)" fill="#7a354f"/>
          <path id="Path_2398" data-name="Path 2398" d="M1843.036,684.3a1.534,1.534,0,0,0,1.241.539,2.4,2.4,0,0,0,1.77-.734" transform="translate(-1834.655 -670.791)" fill="none" stroke="#d3697d" stroke-miterlimit="10" stroke-width="0.46"/>
          <path id="Path_2399" data-name="Path 2399" d="M1839.014,681.172a17.692,17.692,0,0,1,5.238-3.143c1.443-.558,2.5-1.121,2.6-2.059-.119,1.054,1.087,1.956,1.775,2.528a6.946,6.946,0,0,1,1.79,2.759c.022-.145.1-.335.121-.5.029.16.1.339.123.5a11.2,11.2,0,0,0-1.044-5.72c-2.135-4.07-7.762-2.362-10.888-.583a5.833,5.833,0,0,0-2.021,8,5.773,5.773,0,0,0,.8,1.049c.348-.643.2-1.564.717-2.164A8.672,8.672,0,0,1,1839.014,681.172Z" transform="translate(-1835.233 -671.687)" fill="#b56e51"/>
          <g id="Group_1099" data-name="Group 1099" transform="translate(4.294 9.149)">
            <path id="Path_2400" data-name="Path 2400" d="M1840.417,680.4a.74.74,0,0,0-.866-.013.678.678,0,0,0-.264.767c.016.044.1.157.119.049.04-.276.071-.464.337-.61a.876.876,0,0,1,.69-.049c.062.019.012-.124-.015-.145Z" transform="translate(-1839.255 -680.252)" fill="#d39080"/>
          </g>
          <g id="Group_1100" data-name="Group 1100" transform="translate(10.99 6.572)">
            <path id="Path_2401" data-name="Path 2401" d="M1845.526,678.448a.944.944,0,0,1,.567-.315.626.626,0,0,1,.637.322c.059.075.107.021.092-.059a.723.723,0,0,0-1.369-.073c-.013.032.032.174.074.126Z" transform="translate(-1845.45 -677.868)" fill="#d39080"/>
          </g>
          <path id="Path_2415" data-name="Path 2415" d="M1837.4,683.778s-3.439-3.7-.229-7.164,7.576-3.562,9.226-2.976,3.718,2.09,4.047,7.218c0,0,1.095-5-2.9-7.182s-8.589,0-10.96,2.526S1835.445,682.335,1837.4,683.778Z" transform="translate(-1835.282 -671.707)" fill="#f54c8d"/>
          <path id="Path_2416" data-name="Path 2416" d="M1844.76,673.2c.536-.542,2.075.367,2.305.605.415-.492-.216-2.249-.542-2A16.563,16.563,0,0,0,1844.76,673.2Z" transform="translate(-1834.516 -671.787)" fill="#ffa4d2"/>
          <path id="Path_2417" data-name="Path 2417" d="M1849.28,675.269c-.081-.757-1.725-1.053-2.03-1.019-.022-.642,1.448-1.575,1.54-1.175A17.788,17.788,0,0,1,1849.28,675.269Z" transform="translate(-1834.314 -671.691)" fill="#ffa4d2"/>
          <path id="Path_2418" data-name="Path 2418" d="M1846.531,673.187c-.339.321-.482.7-.153,1.067a3.55,3.55,0,0,0,1.078.558c.354-.316.945-.709.494-1.186C1847.585,673.245,1846.929,672.767,1846.531,673.187Z" transform="translate(-1834.4 -671.687)" fill="#ef94bf"/>
        </g>
        <g id="Group_2594" data-name="Group 2594">
          <g id="Group_2580" data-name="Group 2580">
            <g id="Group_2544" data-name="Group 2544" transform="translate(21.767 47.247)">
              <g id="Group_2543" data-name="Group 2543">
                <path id="Path_8622" data-name="Path 8622" d="M1847.8,686.822c1.015.476,2.983,3.012,2.983,3.012l3.81,1.583-.12,1.066-4.813-.816s-2.2-2.088-2.475-3.154S1847.21,686.545,1847.8,686.822Z" transform="translate(-1847.078 -686.771)" fill="#f4b333"/>
              </g>
            </g>
            <g id="Group_2564" data-name="Group 2564" transform="translate(10.574 46.301)">
              <g id="Group_2563" data-name="Group 2563" clip-path="url(#clip-path)">
                <g id="Group_2562" data-name="Group 2562" transform="translate(11.674 4.998)">
                  <g id="Group_2561" data-name="Group 2561">
                    <rect id="Rectangle_1380" data-name="Rectangle 1380" width="0.178" height="5.674" transform="translate(0 0.058) rotate(-19.004)" fill="#f79b94"/>
                  </g>
                </g>
              </g>
            </g>
            <g id="Group_1101" data-name="Group 1101" transform="translate(16.546 47.302)">
              <path id="Path_2410" data-name="Path 2410" d="M1844.554,706.459c-.08.049-.025.4.063.364a2.72,2.72,0,0,1,.933-.162,1.744,1.744,0,0,0-.975.283c-.049.032-.013.239.039.219a1.971,1.971,0,0,1,.9-.157c.339.009.658.134.99.144.143,0,.055-.361.024-.418a.783.783,0,0,0-.261-.284.624.624,0,0,1,.338.195c.111.132.141-.32.051-.418C1846.173,705.687,1845.055,706.154,1844.554,706.459Z" transform="translate(-1842.064 -685.273)" fill="#d4d4d4"/>
              <path id="Path_2411" data-name="Path 2411" d="M1850.639,706.38a1.713,1.713,0,0,0-.97-.106,2.723,2.723,0,0,1,.922-.005c.091.015.065-.336-.023-.37-.552-.21-1.734-.458-2.111.156-.071.115.06.551.146.4a.614.614,0,0,1,.276-.243.817.817,0,0,0-.2.325c-.022.067-.017.432.12.4.279-.059.53-.219.81-.291a2.066,2.066,0,0,1,1.033-.045C1850.714,706.616,1850.7,706.4,1850.639,706.38Z" transform="translate(-1841.747 -685.298)" fill="#d4d4d4"/>
              <path id="Path_2402" data-name="Path 2402" d="M1846.225,698.675c-.322-.7-1.129-1.372-1.832-.784-.91.76-.485,3.258-.338,4.3.115.821.352,1.652.544,2.46.151.637.072,1.747.513,2.267a1.222,1.222,0,0,0,1.628.067c.466-.5.26-1.188.156-1.769a22.748,22.748,0,0,1-.439-3.441A7.518,7.518,0,0,0,1846.225,698.675Z" transform="translate(-1842.12 -685.945)" fill="#f9c1a5"/>
              <path id="Path_2403" data-name="Path 2403" d="M1847.661,701.812c-.078-.7-.276-1.375-.419-2.078a2,2,0,0,1,.409-1.772,1.36,1.36,0,0,1,1.582-.514c.636.359.717,1.3.777,1.941.068.8.2,1.554.234,2.357.044,1.005-.037,1.973,0,2.983.017.471.253,1.2.016,1.641a1.3,1.3,0,0,1-1.669.453c-.413-.3-.347-.838-.413-1.306C1848,704.3,1847.793,703.026,1847.661,701.812Z" transform="translate(-1841.849 -685.971)" fill="#f9c1a5"/>
              <path id="Path_2404" data-name="Path 2404" d="M1844.844,705.278c.021.013.038.026.052.034a.9.9,0,0,0,.526.141,2.1,2.1,0,0,0,1.046-.289c.161-.093.667-.594.621-.1-.014.153-.1.289-.129.438s.027.229-.119.351a2.315,2.315,0,0,1-.753.451,1.561,1.561,0,0,1-1.255-.108c-.179-.152-.12-.4-.174-.587-.037-.128-.313-.255-.2-.409C1844.55,705.09,1844.732,705.206,1844.844,705.278Z" transform="translate(-1842.071 -685.364)" fill="#fff"/>
              <path id="Path_2405" data-name="Path 2405" d="M1847.036,705.334c-.017.349-.415.529-.7.629-.483.172-1.495.264-1.632-.415a3.5,3.5,0,0,0-.375.713c-.119.255-.234.512-.33.777a1.549,1.549,0,0,0-.156.891c.032.147.02.356.12.478a.842.842,0,0,0,.412.179,4.369,4.369,0,0,0,1.826-.059,1.184,1.184,0,0,0,.6-.2,1,1,0,0,0,.283-.427,3.315,3.315,0,0,0,.217-1.963C1847.245,705.777,1847.214,705.406,1847.036,705.334Z" transform="translate(-1842.119 -685.325)" fill="#f4b333"/>
              <path id="Path_2406" data-name="Path 2406" d="M1843.883,708.158s.2.33,1.315.243,1.526-.215,1.7-.425a5.3,5.3,0,0,0,.463-1.929,2.86,2.86,0,0,1,.056.6c-.022.2-.12,1.636-.5,1.829a4.31,4.31,0,0,1-1.649.351,2.015,2.015,0,0,1-1.312-.294A.426.426,0,0,1,1843.883,708.158Z" transform="translate(-1842.117 -685.267)" fill="#d4d4d4"/>
              <path id="Path_2407" data-name="Path 2407" d="M1850.113,704.787l-.044.042a.894.894,0,0,1-.493.233,2.1,2.1,0,0,1-1.082-.092c-.174-.059-.763-.461-.628.017.042.148.156.264.206.407s.016.23.184.323a2.31,2.31,0,0,0,.821.3,1.564,1.564,0,0,0,1.213-.335c.148-.179.044-.413.063-.609.013-.133.261-.309.12-.438C1850.366,704.547,1850.209,704.694,1850.113,704.787Z" transform="translate(-1841.795 -685.383)" fill="#fff"/>
              <path id="Path_2408" data-name="Path 2408" d="M1848.023,705.259c.08.34.5.444.8.492.506.081,1.515-.015,1.528-.707a3.477,3.477,0,0,1,.5.633c.163.229.324.461.467.7a1.553,1.553,0,0,1,.316.846,1.1,1.1,0,0,1-.033.493.834.834,0,0,1-.372.253,4.4,4.4,0,0,1-1.806.274,1.2,1.2,0,0,1-.627-.09,1.019,1.019,0,0,1-.359-.367,3.327,3.327,0,0,1-.572-1.89C1847.9,705.734,1847.861,705.363,1848.023,705.259Z" transform="translate(-1841.793 -685.348)" fill="#f4b333"/>
              <path id="Path_2409" data-name="Path 2409" d="M1851.645,707.419s-.141.359-1.248.478-1.54.068-1.746-.108a5.27,5.27,0,0,1-.808-1.812,2.9,2.9,0,0,0,.055.6c.06.193.419,1.587.827,1.706a4.284,4.284,0,0,0,1.687.044,2.024,2.024,0,0,0,1.237-.529A.421.421,0,0,0,1851.645,707.419Z" transform="translate(-1841.795 -685.273)" fill="#d4d4d4"/>
              <path id="Path_2414" data-name="Path 2414" d="M1850.814,698.134a5.281,5.281,0,0,0-.192-.518,11.664,11.664,0,0,1-.737-2.562c-.2-1.118-.479-2.209-.7-3.327a9.036,9.036,0,0,1-.337-1.756c-.17.215.882-.138.817-.392-.183-.714-.161-3.516-1.721-2.562a.633.633,0,0,1-.5.073,1.241,1.241,0,0,0-.612-.058c.048.236.212.531.128.778a.789.789,0,0,1-.307.372,1.764,1.764,0,0,1-1.367.331c-.59-.1-.7-.643-.657-1.267a1.951,1.951,0,0,0-.768.239,1.131,1.131,0,0,1-.632.176c-1.3-.014-1.039,1.672-.747,2.559.085.262.472-.071.646.55.084.032.1,2.769.111,3.012a23.67,23.67,0,0,1,.017,3.324c-.123,1.575.191,3.266-.2,4.8-.138.544-.3.98.386,1.168.71.193,1.52-.267,2.217-.392a4.975,4.975,0,0,1,2.52,0c1.225.414,2.314-.476,3.372-1.066q.212-.118.426-.236a12.209,12.209,0,0,0-.677-1.632C1851.1,699.224,1850.983,698.669,1850.814,698.134Z" transform="translate(-1842.247 -686.822)" fill="#f4b333"/>
            </g>
            <g id="Group_2565" data-name="Group 2565" transform="translate(29.071 19.389)">
              <path id="Path_8633" data-name="Path 8633" d="M1859.978,712.408l-6.142-5.938L1897.646,661l6.207,5.763Z" transform="translate(-1853.836 -660.997)" fill="#61b3db"/>
            </g>
            <g id="Group_2566" data-name="Group 2566" transform="translate(18.981 46.222)">
              <path id="Path_8634" data-name="Path 8634" d="M1844.5,694.592l3.5-8.77,16.142,16.336-5.456,6.2Z" transform="translate(-1844.5 -685.822)" fill="#61b3db"/>
            </g>
            <g id="Group_2567" data-name="Group 2567" transform="translate(61.882)">
              <path id="Path_8635" data-name="Path 8635" d="M1884.192,652.8l34.325-9.746-6.563,35.522Z" transform="translate(-1884.192 -643.058)" fill="#61b3db"/>
            </g>
            <g id="Group_2573" data-name="Group 2573" transform="translate(0 46.222)">
              <path id="Path_8639" data-name="Path 8639" d="M1833.465,715.985l-6.526-5.939,22.48-24.223,6.029,6.007Z" transform="translate(-1826.939 -685.822)" fill="#61b3db"/>
            </g>
            <g id="Group_2575" data-name="Group 2575" transform="translate(16.164 48.581)">
              <g id="Group_2574" data-name="Group 2574">
                <path id="Path_8640" data-name="Path 8640" d="M1842.83,688.01c.67.078,1.471,4.1,1.471,4.1l3.669,2.242-.5.814-4.876-1.881a13.242,13.242,0,0,1-.682-3.578C1842.053,688.731,1842.2,687.937,1842.83,688.01Z" transform="translate(-1841.895 -688.006)" fill="#f4b333"/>
              </g>
            </g>
            <g id="Group_2577" data-name="Group 2577" transform="translate(28.114 56.826)">
              <g id="Group_2576" data-name="Group 2576">
                <path id="Path_8641" data-name="Path 8641" d="M1853.243,695.634l-.293,2.288s2.507-.4,2.774-.981a.629.629,0,0,0-.177-.846Z" transform="translate(-1852.95 -695.634)" fill="#61b3db"/>
              </g>
            </g>
            <g id="Group_2579" data-name="Group 2579" transform="translate(28.395 52.479)">
              <g id="Group_2578" data-name="Group 2578">
                <path id="Path_8642" data-name="Path 8642" d="M1854.348,692.472l-.36-.86s-.8.457-.777.72a.468.468,0,0,0,.3.361Z" transform="translate(-1853.21 -691.612)" fill="#fca89e"/>
              </g>
            </g>
          </g>
          <g id="Group_2593" data-name="Group 2593" transform="translate(21.306 2.509)">
            <g id="Group_2582" data-name="Group 2582" transform="translate(0 20.449)">
              <g id="Group_2581" data-name="Group 2581">
                <rect id="Rectangle_1381" data-name="Rectangle 1381" width="7.329" height="6.383" fill="#8cb3de"/>
              </g>
            </g>
            <g id="Group_2584" data-name="Group 2584" transform="translate(7.27 15.485)">
              <g id="Group_2583" data-name="Group 2583">
                <rect id="Rectangle_1382" data-name="Rectangle 1382" width="7.328" height="11.348" fill="#fb4f3f"/>
              </g>
            </g>
            <g id="Group_2587" data-name="Group 2587" transform="translate(14.539 10.244)">
              <g id="Group_2586" data-name="Group 2586">
                <g id="Group_2585" data-name="Group 2585">
                  <rect id="Rectangle_1383" data-name="Rectangle 1383" width="7.329" height="16.588" fill="#61b3db"/>
                </g>
              </g>
            </g>
            <g id="Group_2590" data-name="Group 2590" transform="translate(21.808 5.142)">
              <g id="Group_2589" data-name="Group 2589">
                <g id="Group_2588" data-name="Group 2588">
                  <rect id="Rectangle_1384" data-name="Rectangle 1384" width="7.329" height="21.69" fill="#ffb31a"/>
                </g>
              </g>
            </g>
            <g id="Group_2592" data-name="Group 2592" transform="translate(29.078)">
              <g id="Group_2591" data-name="Group 2591">
                <rect id="Rectangle_1385" data-name="Rectangle 1385" width="7.329" height="26.832" fill="#f54c8d"/>
              </g>
            </g>
          </g>
        </g>
        <g id="Group_2596" data-name="Group 2596" transform="translate(21.846 54.922)">
          <g id="Group_2595" data-name="Group 2595">
            <path id="Path_8643" data-name="Path 8643" d="M1847.531,693.872l-.381.717s.714.278.873.114a.419.419,0,0,0,.085-.4Z" transform="translate(-1847.151 -693.872)" fill="#fca89e"/>
          </g>
        </g>
      </g>
    </g>
  </g>
</svg>
