<svg xmlns="http://www.w3.org/2000/svg" width="32.384" height="38.82" viewBox="0 0 32.384 38.82">
  <g id="Group_16331" data-name="Group 16331" transform="translate(-25 -238)">
    <g id="privacy" transform="translate(25 238)">
      <path id="Path_10554" data-name="Path 10554" d="M172.675,296.871a.761.761,0,0,0,.76-.76v-3.15a.761.761,0,0,0-1.521,0v3.15A.761.761,0,0,0,172.675,296.871Zm0,0" transform="translate(-156.483 -268.434)" fill="#345995"/>
      <path id="Path_10555" data-name="Path 10555" d="M31.084,12.475h-6.15V6.934C24.934,3.11,21.012,0,16.191,0S7.449,3.11,7.449,6.934v5.54H1.3A1.227,1.227,0,0,0,0,13.612V28.157C0,34.036,5.465,38.82,12.183,38.82H20.2c6.718,0,12.183-4.783,12.183-10.663V13.612a1.227,1.227,0,0,0-1.3-1.137ZM10.048,6.934c0-2.57,2.756-4.66,6.143-4.66s6.144,2.09,6.144,4.66v5.54H10.048ZM29.784,28.157c0,4.625-4.3,8.388-9.584,8.388H12.182C6.9,36.545,2.6,32.782,2.6,28.157V14.749H29.784Zm0,0" transform="translate(0 0)" fill="#345995"/>
    </g>
  </g>
</svg>
