<svg xmlns="http://www.w3.org/2000/svg" width="19.027" height="25.37" viewBox="0 0 19.027 25.37">
  <path id="Icon_awesome-child" data-name="Icon awesome-child" d="M5.946,3.568A3.568,3.568,0,1,1,9.514,7.135,3.568,3.568,0,0,1,5.946,3.568Zm12.617.068a1.586,1.586,0,0,0-2.242,0L12.028,7.928H7L2.707,3.636A1.586,1.586,0,0,0,.464,5.878l4.689,4.689V23.784A1.586,1.586,0,0,0,6.739,25.37h.793a1.586,1.586,0,0,0,1.586-1.586v-5.55H9.91v5.55A1.586,1.586,0,0,0,11.5,25.37h.793a1.586,1.586,0,0,0,1.586-1.586V10.567l4.689-4.689a1.586,1.586,0,0,0,0-2.242Z" transform="translate(0)" fill="#345995"/>
</svg>
