<svg xmlns="http://www.w3.org/2000/svg" width="38.405" height="38.405" viewBox="0 0 38.405 38.405">
  <g id="gear_2_" data-name="gear (2)" transform="translate(0 0)">
    <path id="Path_10556" data-name="Path 10556" d="M142.79,133.609a9.181,9.181,0,1,0,9.181,9.181A9.191,9.191,0,0,0,142.79,133.609Zm0,16.066a6.885,6.885,0,1,1,6.885-6.885A6.893,6.893,0,0,1,142.79,149.675Zm0,0" transform="translate(-123.587 -123.587)" fill="#345995"/>
    <path id="Path_10557" data-name="Path 10557" d="M37.5,14.83l-2.952-.642A16.065,16.065,0,0,0,33.6,11.9l1.634-2.542a1.148,1.148,0,0,0-.154-1.432l-4.6-4.6a1.148,1.148,0,0,0-1.432-.154L26.508,4.805a16.065,16.065,0,0,0-2.291-.95L23.576.9A1.148,1.148,0,0,0,22.454,0h-6.5A1.148,1.148,0,0,0,14.83.9l-.642,2.952a16.064,16.064,0,0,0-2.291.95L9.355,3.171a1.148,1.148,0,0,0-1.432.154l-4.6,4.6a1.148,1.148,0,0,0-.154,1.432L4.805,11.9a16.065,16.065,0,0,0-.95,2.291L.9,14.83A1.148,1.148,0,0,0,0,15.951v6.5a1.148,1.148,0,0,0,.9,1.121l2.952.642a16.064,16.064,0,0,0,.95,2.291L3.171,29.05a1.148,1.148,0,0,0,.154,1.432l4.6,4.6a1.148,1.148,0,0,0,1.432.154L11.9,33.6a16.064,16.064,0,0,0,2.291.95L14.83,37.5a1.148,1.148,0,0,0,1.121.9h6.5a1.148,1.148,0,0,0,1.121-.9l.642-2.952a16.064,16.064,0,0,0,2.291-.95l2.542,1.634a1.147,1.147,0,0,0,1.432-.154l4.6-4.6a1.148,1.148,0,0,0,.154-1.432L33.6,26.508a16.065,16.065,0,0,0,.95-2.291l2.952-.642a1.148,1.148,0,0,0,.9-1.121v-6.5A1.148,1.148,0,0,0,37.5,14.83Zm-1.392,6.7-2.707.588a1.148,1.148,0,0,0-.862.813A13.769,13.769,0,0,1,31.271,26a1.147,1.147,0,0,0,.034,1.185l1.5,2.331L29.513,32.8l-2.331-1.5A1.147,1.147,0,0,0,26,31.27a13.777,13.777,0,0,1-3.067,1.271,1.148,1.148,0,0,0-.813.862l-.588,2.707H16.876L16.288,33.4a1.148,1.148,0,0,0-.813-.862,13.769,13.769,0,0,1-3.066-1.271,1.148,1.148,0,0,0-1.185.034L8.892,32.8,5.6,29.513l1.5-2.331A1.147,1.147,0,0,0,7.135,26a13.784,13.784,0,0,1-1.272-3.066A1.148,1.148,0,0,0,5,22.117L2.3,21.529V16.876L5,16.288a1.148,1.148,0,0,0,.862-.813,13.769,13.769,0,0,1,1.271-3.066A1.147,1.147,0,0,0,7.1,11.224L5.6,8.892,8.892,5.6l2.331,1.5a1.147,1.147,0,0,0,1.184.034,13.777,13.777,0,0,1,3.067-1.271A1.148,1.148,0,0,0,16.288,5l.588-2.707h4.653L22.117,5a1.148,1.148,0,0,0,.813.862A13.769,13.769,0,0,1,26,7.135,1.148,1.148,0,0,0,27.182,7.1l2.331-1.5L32.8,8.892l-1.5,2.331a1.147,1.147,0,0,0-.034,1.185,13.77,13.77,0,0,1,1.272,3.066,1.148,1.148,0,0,0,.861.813l2.707.588Zm0,0" transform="translate(0 0)" fill="#345995"/>
  </g>
</svg>
